<svg id="Layer_1" data-name="Layer 1" xmlns="http://www.w3.org/2000/svg" xmlns:xlink="http://www.w3.org/1999/xlink" viewBox="0 0 281.89 261.56"><defs><style>.cls-1{fill:none;stroke:#231f20;stroke-miterlimit:10;}.cls-2{clip-path:url(#clip-path);}.cls-3{fill:#fff;}.cls-4{fill:#19b24b;}.cls-5{fill:#6456a5;}.cls-6{fill:#f47a22;}.cls-7{fill:#fbb040;}.cls-8{fill:#e6e7e8;}.cls-9{fill:#c2b59b;}.cls-10{fill:#ee2a7b;}.cls-11{fill:#d1d3d4;}.cls-12{fill:#84c880;}.cls-13{fill:#ec008c;}.cls-14{fill:#c49a6c;}.cls-15{fill:#00aeef;}</style><clipPath id="clip-path"><ellipse id="_Ellipse_" data-name="&lt;Ellipse&gt;" class="cls-1" cx="133.93" cy="139.8" rx="105.31" ry="101.76"/></clipPath></defs><title>Art-icon</title><g class="cls-2"><path d="M110.61,38h15.7l4.85.82,4-.14.57.18,6.34,1.87,1.51.24,9.07,2.24,1.12.42,9.79,4.53,6.66,4.59.27,1.74L174,60.1l-.49,2.84-.56-1-.44,2.13,1.71,1.85L178,70.44l.13.27L178,81.25l-2.9,3.13-.37-.26,1-4.84-3.49,1.42v1.85l-1-2.2-1.14.08-3-10.3-6.18,6.22.47-1.56-5,5.09V78.56l-2.52,2.21L151.45,82l-4.6-2-5.33-2.83-2.71-1.26-.44,0-2.19-.76L135,74.09l-4-3-1.87.22-.28,3.6,1.79,5,.92,4.12,1.13,3.33L136.88,91l2.54,3.32-6.25-5-1.29,1.65.62,2.23.66.59L136.53,97l6.47,5,.74,1.63-2.18,1-1.16-.17v2l1.6-.11,3,.1.7-.67.23-3.88-.18-10.24.28-3.87h1.31l.43,1.42.49,9-1.32,6.36,1,2,1.72-4.79,0-3.12-1.23-9.39.26-1.14.71.88,1.95,11-2.64,6.31-.47,1.29,1.09.28h1.19l0,.38-3.86.27,3.53,6.56.2.62.66,2.27,1.45,4.44-.35.19-.76-1-2.53-4.32-2.83-5.29-1.18-1.79-.35.22.5,1.4-3.67-2.39,0-1.87,1.19,1.25,1.32-.06-.63-1.08-1.56-.78-3.49,3.16L133.38,113l-3.53-.39-6.27-1.82-1.41-.41,4.55,4.35-1.32-.13-5.32-3.45L115,108.76h-3.43l4.06-.53,2.86-1-1.63-.9v-3.43l-1.81-.39,2-1.65,1.47-.5,7.77-3.73,1-1.59-5.52-5.27-.29-1.26-4,2.5-1.35.48-3,.37-1.14.8-.36-.32,3.44-4.74,3.44-1.53.89-.87.54-1.43,2-1.87-2.72-.46,2.33-.85,1.4-1.21.32-1.74,1.33-7.6-.05-1.38-3.13-1.52-1.16.56-1.3-.16-3.75-1.23-3.71-.66-3.87-.39-5.3,1.35L101,68.1l1.7,5.59,1.27,2-.21,1.85L102,80l2-2.11.68.88-.4,1.57-5.9,4-2.57,2.48L94,88.45,91.48,97.2,90.89,109l-.38.76-1.68,1.55-2.44-4-1.56.73.08-1.63-.13-.84-4.62-9.34-2.6-3.53-2.66-2.11L64,88.86l-3.53,2.49-1.3,5.77,2.86,10,4.15,6.37,1.18,1.14,2.16.7-.43-2.16L69.2,110l-5.11-6-.33,2-1.06-.47-1.75-4.07-.72-5.14,3.24-4.25,1.67,0,8.93,2.88,1.29,1.14,1.43,3.28.45,2-3.33,5-3.59.33-.56-2.59,2.78-3.68L71,96.21l-.75.21-2.86,3.45-1.37-1,2.74,9.23,3.28,5,2,2.31,3-.7,1.43-1.22-3,4.19-5.22-.76,5.38,3.72,2.15-3.19,1.56-1.12.65.87-2.33,4.72-3.07,4.87-.79,1.11-1-1-1.53-3.18-.41,0-.91,4.09-3,10.38-2.08,3.79-1.42,2.54-.54,1-.3,3-.17,1.34,2.38.69.74,2.27,6.31,9.34L78,168.58l6,6.13,2.85,1.41-.91-1.78,2.36,1,2.66,3.44-2.09-1.53,3.29,1.65-.45,1.65,3.06,1.72,2.41-1.39.75.89,2,2.22,1.23-.41-.16-.7.42-.1.55,3,5.9,1.84.5-.55L107,183.42l-2-2.87-4.23-4-3.44-3.61-3.33-3.71-.31.19.72,1.84-4.51-3.84.84-.45-2.22-3.87.61-.47,6.89,7,.51-.44-6.8-9.65.46-.34.9.67,6,6.56,4.42,5.79,3.62,4.56,10.16,8.64,7,5.93,1.26.93L124,192l-1.81-4-.68-1.26-1.29-5.46-2.4-9-.26-.43-2.17-4.87-1.9-1.74-1-2.06-3.11-5.74-2.42-4.79-3.79-7.38-2.34-3.31-.59-.91-1-7,.58-2.7,2.72-2,3.6-.12h2l-.75,1.18-1.56-.38-2.29.09-2.36.82.74,2.89,1.36-.85,3,2.28,1.85-.1,3.86-2.23,9.59-.11,0,.12-3,.5H125l.89,0,3,0,1.24-.09,1,.17,2.36-1.57-4.33,3.57-2.62.78-3.15,1-.05-.17,1.33-.62H113.51l3.81,3.13,1.83.3,7.26,2.2,7.25.84,8.5.65,7,1.48h0l3-6.17,2.6,4.42,2.23,1.43,3.15.95,4.55,1.92,1.06-.62-1-.74-2.8-1.05-9.06-5.94L150.34,136l-.38-.41L146.45,133l-2.13-1.43-.48-2.34,2,.06,2.25,2.56,8.22,7,6.2,3.62,6.2,2.77,1,.19,4.63-1.74.17-.67-1.82-5.82-3.07-5.9-4.12-7.44-.2.14.75,3.13-.5.16-.64-1.23-3.78-10.49-1.22-2.66-.11-.86-.39-2.39-.26-2.12L162,102l1.26-1.14,1.63-.94,3.71-2.69,1.53.33,2.7-3.52L171,89l-.29.17.73-2.94-1,.31,1.74-4,.59-.76.4,0,.56,4.64-.22,2.27.52,5.21,2.8-1-.27,1.36,3.11,2.51-.9,3-.66-1.41-.79,1.84-2,2.17-2.43,2.75.16,2.07.27,4.18,4.88,7.23.15,1.54-1.47,3.94-1.61,2-2.8,1.74,5.39,19.42-.68-1.59-3.33,2.25.21-1.08L168.21,148l.12-1.1-1.78,1.76.61,0-1.42,2.36-.69,2.89-4.33,18.37-.35,1.14-2.52,4.29-2.78,12.05.42-.09v4l-.1.88-.66,3.65-4.27,5-1.18.63-.67.85-3.75.65-2.1.21,0-.38,2.25-.39-.06-.45-2.61.22-4.38-.49-2.43-.48-2.15,0,0-.6h1.53l-13-9.34-.92,1-8.44-6.92-.62,6.61.09.81-.75,3.74,1.09.08.69.42,4.3-1,3.74,1.33,3.59,7.68.18,1.46-1.59,0-1.34,3.25-.2,3.39,1.51,3.78-4.52,1.76-2.83-2.59-1.18.27-.69.87,1.51,2.51.43,2.09-2.51.23-.31-1.51-.41-2.82-1.06-.71-.15.28,1.67,3.29-.52-.3L110,220.83l-1.66-.79-.22.39L115.4,227l2.43.84,6.62,6.14,5.39,3.86,1.13,1.09v1.52l-1.17-.3-1.08-.47,2.48,4.12.35,6.12,1.28,3.53.43,4,1.65,8.75-1.67,9.22-.1,1.09,1,2.62,1.71-.09.15.29-1.78.85,1.11,4.44-1.81,2.28-.12.44.79,1.31.09-.28,2.37,1.08L135.41,291l2.55.63L136.58,293l-.35-1-.83,1.64-.64,2.13.44,0v-1.36l3.24-2.7,1.42,2.74-1.77.48,1.77,1.69,1.71,2.57-1.32.6-1.52-1.59-.21.16.3,1.52-.38.13-.95-1.56-.34,3.7.51-1.9,2.58-.57.82,1.26.61,1.19.85,2.59,2.12-.16L145,303l1.15,1.13.3-.19-1.28-2.27.76-.53-.2.43,3.86,3-1.9-.34-.87-.22L145,305.64l3.6,2.15-1,2.24,1.48.22,2.72-.47-2.41-2-.07.07,2.4.49,1.38-1-.74-2.18,1.48-.85.39.46-1.09.59,3.91,2.36-.63-2.1-1.81-.32.1-.5,3.35.43,0-5.77-.23-.21.84-2.17-1.85.69v-1.84h-2l.08-.54,3.77.73.13-.19-1.06-.81.2-.48,1.43.53,1.42.36v2.64l-.72-2.5-.54.13.65,2.88.34,0,.24-.52.46-1.09,1.31-.09-.53-1.75h-2.67l.24-5,0,0,2.21,1.59,1.19.53.22-.35-.54-1.22.22-.16L164,291.9l1.94-.18,0,1.31-.78,1.24,2.36.14.13-.36-1.08-.87,0,0,1.59-1.53.19.81,2.32,1.86-.93-1.23-1.42-.65.92-1.8-1-.94,1.21-1.1h0l2.49.34,1.44.16.19,2-.61,1.13,2.48,3.13,1.42-.7.33.87.4-2.33-.22-.91-.88.63,1.52-1.81.33.18-.18-1.65.77.14,1.35-2.62,2.08-2.62,1.11-4.68-1.71.43,2.77-3.52.68-.79.47-.6-1.76-2.32.74-.21-.87-3,.34-.14,1.07,1.5.18-.08L184,265.38l-1.74-1-1.13-5.66-3.26-11.58-3.21-2.36-4.2-2.84.33-2.25,1.93-1.74,2.6-1.08-1.5-5.81-.88-5.77-.53-2,.4-.16-.22-.19-2.83.49-.13-.63,34.84-6.82-.73-.81,1.07-.93,3.57,7.22.91,2,1.56,1.15,5.53,1.71L233,234l7.93,4,1.08-.1.31,1.28.28,0,.69-2.51,0,2.3.63,2.08-5.77,20,.45.14,1.4-4.37.31.28-3.65,12.16.25,2.36,1.49,6.28-1.11,2.78,1.65,5.5.25,2.54-4,7.38-.18,1.4,0,2.85,2.42.38-1.11,1.84,2.59-.75-1-4.39,3.86-.2-.91,1,1,.28-2.55.8,2.23,2.44,2.22-.74.22-.07.94.58-.51,1.56-1.26.87.17.29,1.11-.28,1.55,1.84.85-2.24.07,5.88.24,14.88H26.59l.05-.74.06-43,0-26.35.42-1.72-.43-1.89v-8.85l0-7.33,1.47-1.63.39-.22-1.27-.21,0-.18,2,.27v.4l-1.82.43L28.66,236l1.92-1.81-.08,1.52,3.13,1.93L35,236l-1.23,2.87,2.47.93,0,0-1.25.54-1.28,1.34.35,1.81v-.17l-1.22,1.75-.83-.63-.67,2.15-1.8.93L31,248,32.71,245l-3.15,5.12,1.7-.43,2.4-2.71.64-.62.69.79-2.4,3.95,2.09-.74.37,2.43,2.57-3.42-1.6-3.8,1.92,5.64.8-1.77,1.54.07L40,251.1l.36.12,1.76-4.07,2.31.88-.55-1.32,1.18.25,3.58-1.76.31-.88,0-1.52h.48l.26,1,1.23-.94,3-1,1.82-1.11.16-.59,3.62-1.26L64,235.64l3-1.72,8.36-3.26,2.2-1.63.14.15L77,230l3.78-1.49H77.82l-2.39-.85,1.8-.53,3.62.53,4.71-.51,3.44-.74.12.51-2.78.71.06.47h15.2v.46l-.92.25-.05.46,10.86,2.06-1.09-1.41,3.1.89L111,226.23l-10.42-9.48,1.4.29-4.19-5.42-2.21-1.33-6.35-5.15-2.06.39-4.75-1.86-1.58-.45-12.75-7.29-10.56-6.39-3.94-2.25-6.85-3.77-2.08-1.29.2-.26,1.56.49L44.84,181l-3.65-1.68L38,176.48l-7-7.19-2.88-.58-1.77.58,0-2.5V165.2l1.62-1.75,6.56-1.21.87-.22L40,159.89l1.28-1,3.26-4.3,3.34-1.76,1.44-.73,1.23-1.53-5.51-.36,7.24-.71,1.49-.05,3.69-3.51-1.39.33-2.74.75-4.54-.35-2.12-1-.93-2.16.66-1.07-.32-1.23L39.86,138l-.15-.19.79-.61-3.82-6,.93-1.88,1-2.16,4.15-.34.1,1.13-1.13-.14-1.06-.44-.84,1.2-.26,1.14,4.13-1.37,2-1.42-.08-3.66-.84-7.9-.5-2.25,0-3.69-1.18,1.51-1.78,2.4-1.14.48-.27-1.05,2.21-9.61.81-7.22-.2-11.14,3.14-15.24,0-1.68,0-1.08,2.56-4.7L50.31,60l1.26-1.15.92-1.3,11.14-9,11.18-4.67L79,42.69l5-1.8,6.18-1.14L96.45,38h2.46l-2.11.88.06.22h4.46l-.25-1.1h5.23l-2.48.75,3.52,1.32L110.61,38Zm6.14,260.72h0l1.51-1.57-1.39-.74.87-1.09-.07.1,3.1.37.62-1.43,1.62,1.14,0,0,1.88,1.43-.22.31-.78-.22-.45,2.32.46.56-1.49-.3,1.22,1.73,1.09-.2-.39-1,1.09.11-.44-2.29,2.78-.94-.63,2.51,2-2.36-1.16-3.79-.64-4.14-1.2-.5.07-.3,1.42-.19-1.23-1.46.26-2.24-.66-3.89-.1-2.47.06-.69-.79-4.52,2.09,2.24.81-4,1-4.29.27-1.31.09-3.21v-3h-.3l.93-1.18-.83-1-.05-3.21,0-6.27L126.93,241l-.09-.12-1.75-2.47-6.25.17.6,2.37-.38.14-1-2L117,237.59l-7.26-2.3-1.82-.3.07-.38,8.95,1.63-1.21-1.17-5.54-1-5.24-.91.07-.51,5.7.58.09-.56L103,231.12l-6.2-.45-4.12.19-5.5,1.65-.37,0V230.7l-8.09,2.45,3.51,1.53,4-1.75.18.45-6.22,3.06-2-1.77-6.07,1.44L68.18,239l-7,4.51.93,1.07-.15.18-1.42-.52-.1,1.31-4.32,2,2.32-3.19,1.22-.72,1.24-2.26-3.77,2.24-.38-.31-3.14,2,1.38.22-.22.72,1.46,1.21-.7.8-2.17-.33-2.44,1.84-.59-.33-3.27,2.42L51,252l0-1.86,2,.3,2.59-2.27,1.22.14,1.48-.48.15.28-5.94,4.16,1.49,1.42,2.5-.63.07-.07.93,3.4-2.69,1.25.45,2.62-2.15.81.86-3.6-.34-1.94-2-.05-.4-.83,1-.17,1-.32-3.92.33-2.59,1.71-.41-.43,1.65-2.18-7,2.42.08.5,1.07.24,3.69.8.45,1.57-.41,1.27v.1l.3,1,1.34.39,2.22,1.47-1,1.5-.91-1.88-1.4,1.87h2.31l3-.59-1.16-.63-.93-.27.21-.71,2.15-.21,1.35.78-1.14.72,2.48,1.55,1.23,1.86-1,2.24-1.51.44L51.22,269,51,271.4l.26.69-1.18-2.14-.48,2.91.79.5-1.8,1.31.16.36,2.36-.21,1.7-1.2-2.43-.26,1-1.26,1.07.87,1.84-1.74,2.7-.59-1.41-.89.71-1.66-.52-.78.81-.77.57,1,.24,1.78,3.71,1.06-.64,1.17.85,2.16-1.24.83-.47,1,1.17.66.75-1.05-.22-1.43-.79-.44,1.93-.58,2.38,2.84,2-.78.3.37-1.43,2.35-.17.23.17,1.1-.61,1.74-2.69.44-1.89,3.11,1.71-2.49,2.79.86,2.26-1.15,0,0,1.25,1.15,2.76-1.21.29.51-1.47,1,4.92,2.05-2.73.54,2.28,1,.83-1.1,2,2.39.5-2.6.28-.13.93,2.64.5-1.5,1.33,3,.14.59,1.14-.8,1.31.21-.12,1.6,1.46,1.06.87.05,2.58,3.36.88-2.66-1.63-2.11V292l-1.84-.34,1.87-2.43L85,286.69l5.76-.79.78.9-2.12,1.29,3,1,.08-.23-.73-.74.65.06.25-1.77.27-3.81-4.22-2.58-.51-.61h2.56l.2-.3-1.23-.74-.38-2.34-1-2.16h2.53l.32-2.26-2.65.12.5-3.26-2.75-1.71,1.19-1.29-3.63-4.61,1.5-.31-1.39-.3,1.58-.3-2.66-4.59.54-.38,1.17,1.14L89.32,264l1.15,1.2L92,264l.36-.27,5.12,11.12.43-.05,2.22-1.84.38,1.53-1.37,3.38,1.43-1.25.69,2.35,1.12,1.64.63,1.76.13,1.28,1.06,1.73,1.12,1.57,2.25-.41.45-.25-.15,1.27.71-.09.85,2.24.47-.16-.29-.91L110,287l1.21,1.15,1,2.9-2.26-.94,1.27,2.1,1.55-.38.12.36-1.68.74-.8,1-.13,2.73,1.54-1.11,1.14.94,0-.1h1l.38.85,1.36.86-1.35,2.23-.52-.47,2.19.91.6,1.25-5-1.54-.18.56,4.33,1.72v4.86l.49,0-.45-4.84.86-.59-.16,3.16.48.22,1.16-1.6-.05,0h1l.94-1.3,0-1.25.08-1-1.27.4-.64.8v-2.32l-1.53-.49Zm-58.32-15,.34-.69-1.8-.57-.78.49.58.4h-.09l1.79.36Zm36.11,4.74,2.46-.42-1.5-.94-1.28.08.36,1.24.06.5-1.11.68,3.46.27.15-.31-2.59-1.11ZM55.09,276.45l2.21-2.38-.18-.32-2.3.89.32,1.84-1.45-.11,1-1.86L54,274.1l-2,1.81.31.37,1.65-.59-.23.7.91,1,3.05,0,.08-.38-2.71-.55Zm91.76-100.37,1,.5,2-.4-2.34-.6-.65.58L139,174.29l.35.43,4,1.29,3.54.08ZM47.26,111l.05,5.66.63,0-.72-5.6.76-2-1.23-3.79L46.37,110l.89,1ZM224.77,257.18l-.79-1.3-1.2-.2,0,1.4.79.57,1.26-.52,2.34,3.63.26-1-1.59-2.38-1.06-.21ZM172.16,71.37l-1.53-3.44-.5.2,2,8.38,0-5.18,1.12,4.2.42-.12-.84-4.94-.51.06-.15.84Zm62.23,205.22-2.29,5.14,3.59-1.86-1.35-3.27.16-.94h-.37l.27.93Zm-181-157.14-.64,2-.37,1.84.73,1.57,1-1.7-1.1-.44,2.71-1L55,118.93l-1.65.56-.62-3-.09-3.75L51.08,112l0,4.7,2.33,2.71ZM114,211.22l1.72,3.38,1.24-1.55-1.8-2.24-1.2.45-6-6.59.64,2.43,4.94,4,.43.1ZM72.6,289.32l-.1.09v-.14l1.17-1-1.28-1.13-2.11-2.53-1.5.73.66-1.71-.27-.37-1.74,1.11,1.38,1.47,1,.62-1.51,1.09,4.26,1.73Zm116.19-10.71-2.66,3.71,1.85-1.41.93-2.22,1.32.45-.19-1.91.53.44v-1.62l1.74-3.74-2.63,1.27-1.05,4,.17,1.06ZM95.29,57.22l1.16-1.93,1.49-2.42,3.15-4.81-.5-.41-1.83,1.58-3.17,3.21-.51,1.09.24,3.73-1.77-.58L93,58.26l2.29-1ZM221.5,290.85l-.05-1.06-1.91-.85.22,1.42h-3.38l.68-.8-2.12-1.38-3.06-13.79-.76,1-.44-.07v-3.56l-.39-4.11-.85-3.29-1.65-5.57-3.1-6.33-1.38.95-1.49,1.71-.1,4.63.67,10.19,2,1-.93,2,1.22,5.79,1,3.58.34.31.18-1,.18.24-.22,1.89.47.1.84-1.55.14.93.16,2.39,2.07.27.78-1.52-.05-.55,1.3,1.25-2.53,1.46-.4,1.89,2,3.5.39.45.2-3.45,1.46,4.42-.23,4.64,2.1-2.89.54.18-.16,2.18h1.67l-.79-1.25,1.48-1.28,2.31-.38.34-.74,2.52,1.83V294l2.3,1.64-.91.19,0,.41,1.22,0,.52-2.42-.87-2.22.32.32,1.38,1,.92-1.69,1-1.49-1.94-.33.81-1.13-.49.12-.92-1.79.48-.22.43,1,2.13-2-.26,1.12,1.71-2.84L229,285.43l-.41-1.41.94-.47-5-1.74-4.83-.93-3.47-3.24,1.63,5,.85.4,3,3.87,0,.15,1.53,2.79,1.49,1.58-3.33-.6ZM152.16,54.34l-1.26-3.51-2.07,1.11-2,.73-3.23-1.85v.59L144,52l7.43,3.62,1.38-.09-.66-1.22,0,.06Zm-44-1.93,0,0,1.33.73,3.86.82,1.17.67,1.54-.19L115.51,53l-2.13-1.68,3-.6,2.49-.88-.08-.54-1.46-.66-1.75-.34-3.72,1.1-.41.18-1.62-.9-8.26,2.68,5,.89,1.64.16Zm122.7,238.13.69,2.95,1,1.87,3.78-4.54-.11-8.51-.64,1.26-1.33-.45-.6,1.42-3.43,3.55.24.66.39,1.83-1-1.73-1.55,2.47,1.92.4.63-1.18Zm-5.1-44.21,1.58.58,2.12,4.24,1.12,1.1-.2-2.37-4.62-3.55.38-1.41,2.62-.85,5.11.26L229.3,240l-3,.3-2.14,2.85-.9-1.13-2.14-3.71L213,236.55l7.1,5.28-1.5-.46-7.86,3.49.12.15,1.17-.88-.27,1.07,3.47-3.57,1.5.67,2.41.74,4.52,2.17,2.09,1.11Zm.46,33.84h.8l2.86,2.2v-3.71l2-4.72,2.05-5-1.38-.21.58-2.73,2.24-2.84,1.19-4.06,4.17-15.69.45-3.55-1.45.46-3-1.43-8.47-4.68-3-1.52-.54-1.05-1.7.09-.26-.15-2.7-1.41L210.72,226l-.22,1.32-1.19-1.43-.2.29-1.5-.87-3.7,6.9-.78,2.67-1.45,4.3L199,250l-.81,6.38.47-1.72,2.73-4.3.78-1.1,1.32-2.67.06-3,1.38-.31.69.63-1,1-1,.21,1.87,3.63,2.63,2.77.26-.65,1.24-6.07,3.71-4.84,4.27-.48-1.31-.93-4.18-.13-2.46.21-1-2,2.43-1.57,2.09.32,3.14,0,4.63,1.61,3.14,3.54,2-1.32,8.4,4.1,1.62,1.42,1.87,2.74-1.54,2.49-2-.89-.14-2.44-.51-.89-3.83-.57.87,2.24,2.65,5.09,0,.68-.26,2.87-.11,1.11-1,3.21,1.44,2.6-.48,3.13-.87-.58-1.71,1.43-.15,2.85-.28,1.22-1.53-1.2-1.45-2-.5-3.35-.47.61-4.36,2.66-11-3.49L215.32,276l.56.45,10.36,3.75ZM80.77,61.33l-3,.79,4.74-3.75-.34-.5L70,64l-.86-.46L70.91,61l2.51-1.69-1.63.42L76,55.59,74.2,56.74l-6.5,3.89-2.87,2.71L62.4,65l-5,4.46-3.27,2.57-1.36.49L51.66,73l0,.4,1.53.33-.69,3.5,1.39-1.56,2.73-3.27,1.07-1,1.71-2.84,1.48,1.58.42,3.9-1.49,1.23-1.5.6-4.48,3.94-3.26,2.9.3.33,5.31-2.77-.2-.31-.91-.08-.1-.48,10.66-2.73,9.5-5.21L74,72.81l3.83,0,.8-.21,2-.09L79.54,71l.89-.5,8.13,1.2.09-.53-4.89-.66-.31-1.06-2.77.21,2.18-1.87-3.31.2-3.07,1,3.44-4-8.42.74-.11-.14,3.49-1.64,2.52-1.12,3.36-1.46,5.5-2.86-2-.66.13.45-.82.78-2.78,2.33ZM62.21,188l2.1,2.48-2.14-2.45L62,186.33l-3.57-3.65.32-.47,14.06,10,1.28-1.83L72,187.55l-3.17-4.14-1.13-1.63L65.93,180l-2.67-4.49L59,169.34l-.24-.66-.73-1.78-4.75-9.74-2.12-4.09-3.75,3.14-3.95,3.21-5.82,3.64-5.47,1.12-1.62.47.3,1.31L36,170.11l.72,0,2.81,1.06,6.27,5.33,9.94,8,6.5,3.52Zm-9.35-35.66,2.46,6.09,3.16,6.25L60.85,167l6.05,8.55,2.56-.25,3.07,3.59L74,180.92l5.6,6.6,7.51,11.83L89,202,95,206.29,95.6,208l4.65,3.17,2.51-.6,1.23-3.42,1.65-5.71.8-4.17-.88-2.91-.32-.47-3.39-3.71-2.51-1.68L90,181.66l-.66-.38-6.05-4.39L68.75,161.31l-4.17-4.76-4.81-7.95-6.91,3.78Zm58.59-5-.46.4L120.06,167l-.74.33-12.14-24.38-.71.31-6.39-10.47-.53.1.57,3.84,1.82,2.48,1.88,4.62,4.42,8.35,7.84,14,3.73,7.25,2.13,4.56.36,1.26,1,5.72,1.82,8.18,1.7,2.81,4.94,3,5.9,3.08,3.84-.63,6.07-.36,1.44-1.81,3.19-3.3.49-2.19.48-6.65,3.2-10.83,0-5.14-.77,4.61-.35-.08.17-1.46L154,178.5l-8.94,6,.48-.89-3.56-1.9-.12.17,3.36,3.85L145,186l-6.76-6.62L138,181l-9.17-9.77.11,1.66-.38.12-1-2-3.88-5.65-1-1.88-4.27-6.21-5.6-8.6-1.38-1.31Zm71.85,73.9-2.78.5-5.93,1.33-.75,1.12,1.82,6,3.07,1-2.71.42.69,2.42.36.07.81-1.53,1.56.51.41,2.87,1.1-.26.33,2-2.25.3-1-3.81-.94,1.58,3.15,13.4,1.19,3.76.41-.13-.55-1.8.62.32,3,11.46,1.23,1.42.76,4.38.93.27.58-2.84.29-2,1.24-3.75-.26-2.22,1.27-.66.2,1-.36,3.82-1.08,5.12V270l2.37-.62,2.16-1.88,1.59-8.52.85-5.28-.21-.95-.52,0-1.35.34-1.9.19-3.58-1-.91-1.15-2.15-1.85-2.12-5.07-1-11,1.72-5-1.37-7Zm-62-73.4,2.26-1.1,4.14.64,1.2,1.13,2.12,1.37,1.08.33,3,.66,1.48.2,1.27-.57.88,1.41,3.65.3,2.29-1.76,1.45,2.78,1.14-.09,5.51,1.66,1.13-.44,3,0,1.16,2,.39,1.84h.68l1.61-6.88-2.5-1.2-7-1.27-.86-.18-6.57-2-5-.2-4.51,0-10.81-2.33-4.32-1.33-2.31-.14-.52.88.72,1.78-1.13.23,2.67,1.17,2.65,1.2ZM81.54,45.48l-.21-.4-6,2.33L71.43,49.2l-3.13.47-1,.16-2.37.38-4.22,2-3.17,2.54-3.07,4.61-.68-1-2.16,3.12L50,61.64l.38,1.77-1.45.11v2.94l.46-.31,2.45.87,3.54-4.56.47.86-1.35,2.2-2.19,2.22-1,.64-4.17,6.52,3.54-.46-.14-2.31,5.72-4.88,4.13-4.54,1.35-1.23,1.58-1.09,2.59-2.25.23,1.29L72.42,54l-.31-.4L70.39,54l-1.17-.7.81-.8,1.53-.91L78.3,47.1l3.24-1.61ZM204.77,226l-.21-1.88-1.1-5-2.35-1.46h-5l-1.85.6-.87.22-1.19-.08-1.14.83-6.69,1.89,1.07.74,2.21,3.1,4.63,1.76,1.31-2.28-.17-3.4.78-1.13,1,.53,2.62,6.13.71,1.12,3.94,2.74.74-3.8,1.57-.66ZM165.91,118.14l.11.07,0,.14-.83,1.24,2.09,3,2.68-.33,2.85.72-2.29.78-1,1.86,2,.48,2.39-1.34,2-2.22v-3.46L173,113.89l-1.2-1.34-1.48,1.37-3,2.3-2.65,1-.68,1.4,1.84-.47ZM118.67,201l1.48,6.18-.33,1.72-3,5.88-.44.4-3.37,2-3.34.95.11.38,5-.77,4.12-2.77,3.59-7.08-.32-3.41-2.28-4.18-2.1-.73-7.1,1.68-.8.62-.9,1.44,9.7-2.31Zm105.64,47.44-2.4,1.76-.7-3.35.63-.37-3.26-1.83-.15.23,1.11,1.63L217,248.72l-1.62-3.45L217.6,244l-.08-.38-2.24-.12-.45,1.7,3.6,6.37,7.83-3.69-2-.94-.25.38.31,1.08ZM213.2,263.32l-.3-.35,3.27-2.86-1.61-1.69-3.8.12,1,2.81-1.19-.48,5.79,4.85,3.25-2.73-2.89-2.52-3.52,2.86ZM143.59,55l.42-.47-2.08-1.78L140.3,50.7l.47-1.31-.1-1.33L138,47.42l-2.11,0-2.18-1-2.69.72-2.35.42-3.65.22,1.49.36,3.12,1.61,2.07-1.63,2.51,1.46.78-1.81,3.59,1.44,1,1.42-4.39-.7,4.21,2.8.59.91,2.14,1.66.58-1,.85.7ZM114.76,215.47l-8-7.78,1.92,9,6-1.19Zm70.53,14.68-.61-.1-1,2.7.6,9.27.26.09.62-1.08,1.72.46-1.59-11.33ZM111.46,205l6.77,5.39.16-7.19-.93-.43-6,2.23Zm15-127-3,6.51-.42,1.61,1.72.32,3.87,3.35L126.51,78Zm10.87-35.44L139,44.29l.13,1.25,7.25,2.77L149.88,47l-4.77-1.25-1.46-1.14-6.27-2ZM140,161.09l1.72-8-.9-.68-2,2.7-.92-.8-.58,7.05,2.68-.23ZM52.85,97.42l4.83-4.84.09-1.86-4.35,3.43,2.67-4.06-.26-.35-1,.19L51.05,93l-1.68-.33L50,94.37l1.57-.46L51.72,96h.4l-.84,1.12,1.56.31Zm90.61,65.42.76-11.05-1.49,2.76-.79,5.68,1.53,2.62Zm5.93-5.88-1.23-1.32-2,.77L145,162.52l1.45,1.34,1.22-.59,1.68-6.31Zm-13.08,3.87.79-7.28-.74-1.57-1.68,1.21-1.57,6.17,3.2,1.46Zm-7.45-2.28-.79,2.88,1,4.46,1.28.12,1.3-4.67-2.79-2.78Zm.07-6.47-.35-2.18-2.14-.93-.94,1.9.33,4.56,1.61,1.19,1-.73.47-3.8Zm5.8-45.79-4.65-3.85-1.63-.84v5l6.28-.32Zm82.85,159.62.32.52,3,0,4.29-3-.17-.76L222.43,261l-2.21,2.72-2.65,2.18ZM139.67,104.63l-2.21-.62-2.54-2.68-1,0,.31,1,2.32,3.19-1.14,1.79-1.79.57,4.93.2,1.07-3.48Zm-7.23,49.28,0-1.42-.48-1.33-1.48.59-.52,1-.75,3,.86,1.87,1.11.43,1.3-.66.71-3.47-.14-.28-.66.26Zm22.39,5.24-1,5.16,1.22,1.26,1.27-2,0-2.73-.81-5.39-2.13,3.78,1.5-.08ZM120,57.69l-4.09,1.53L123,61.35l.48-.44L122,58.1l.94-1-3.14-1,.14,1.6Zm90,193.48,4,.23,1.25-1.94-1.8-4.31L212.11,248l-.58.76-1.5,2.44Zm-77-89L131.31,167l.61,1.37,2.09,1.23,1.1-4.6L133,162.16ZM103.68,41.65l0-.71-2.17-.07-3.9.92L89,42.64l1.13.81,5.59.11,5-1.39,1,1,.19-1.53ZM222.55,253.37l4.42,3.5.28-3.53-.45-3.24-4.25,3.27Zm-99.64-104.5-1.52,3,3.07,2.77-.77-5.3.73-1.34-.24-.37-1.55.37.28.81Zm13.77,14.54-1.26,5.33.85,1.94,1.87-1.65.32-2.32-1.79-3.3Zm37.53,74.94-2.29,3.27,3.86,1.09-.28-4.34-1.77,1.2-.2-.21.69-1Zm-31-72-2.7,1.1-.8,3.47.48,1.74,1.36-1.21,1.66-5.1Zm27.5-57.45-2.39-1.83-3,.45.66,4,4.69-2.63ZM145,172.74l1.72-4.72-2.1-2.16-1.08,6.07,1.46.81ZM196.05,268l1.64-2.66.55-8.6L196.05,268ZM47.5,133.09l5-1.38.59-1.08v-2.55l-.8-2.22-.93,2.09-.19,1.4-1.91,1.53-1.73,2.22ZM106,208.28l-.48-.2L103.78,213l2.84,2.28-.64-7Zm45.15-33.59,1.7-.77,1.8-4.85-2.42.31-1.08,5.31ZM148.06,167l-1.49,5.74.14.73.89,0,1.63-2.74L148.06,167ZM81.88,231.34l-11.37,3.44.21.58,11.16-4Zm39.7-96.55,0-.44-4.67.28-4.66-1.15-1,1.07,10.33.24Zm11.18-81.67,1,3.59L136,56.5l.72-.73-2.61-2.29-1.38-.36Zm40,45.8-5.49,5.5,1.91-.82,2.32,1,1.26-5.71Zm57.59,162.5.77-4.46-1.71-3.75v8.64l.94-.43Zm-22.88-38.23L204,218.54l1.71,5.58,1.77-.94Zm20.83,9.07-.27.33,6.77,4.28.54.2,2.17.46,1.69.79.26-.52-11.15-5.54ZM107.8,42.82l-.29-.33-4.28,5.42,2.44-3.47,2.13-1.62Zm18.83,119.62.61-3.4-1.65-1-.9.4,1.95,4ZM57.07,124.35l2.6-2.06.21-1.62-2.32-1.82-.49,5.5ZM108.84,56l0,.28,4.9,2.3,1.43-.39-.22-1.35-1.83-.43-2.77-.27L108.84,56ZM217.55,259.95l1.28,1.35,1.19,1.27,1.68-1.93-4.15-.69ZM175.87,72.07l.31-.24-5.13-5.68,4.82,5.92ZM150.5,165.4l.76-9.9-.76,9.9Zm-67.27-103,6.51-4.94L83.55,61l-.32,1.47Zm41.07,175.25-7-2.23,7,2.23ZM80,52.95l-.13-.52-.8-.24-4,2.1-1.82.53-1.21,1.9L80,52.95ZM218.82,258.11l-4.18-1.49,4.18,1.49Zm-173-119.47,8.43-3.8-8.43,3.8ZM47,178.72l-.36.36,6.88,5.75.39-.45L47,178.72ZM50.88,95.2l-3.85,1-1.36,1.09.61,1,1.48-1,1.65-.75,1.47-1.45Zm40-25.63-6.05-1.82,2,1.82ZM120,214.72l-1.13,3.5,2.7.37L120,214.72ZM157.14,52.54,152,49.21l5.15,3.34ZM96.7,57.32l1.72.45,2.12-.53.06-.63-2.11-.28,1.46-2.86-.39-.21L96.7,57.32Zm113.61,200.5,2.84-1.46-2.63-1.87-.21,3.32ZM84.63,66.27l1-1.23.09-1.2-1.07.23-4.79,2.1,4.54-1,.28,1.14Zm142.2,229,3.84,2,1-.88-.28-.28-1.24.67-2-3.06-1.3,1.56Zm-.05-33.47-3.86-1.61,3.86,1.61Zm9.35,10.35,1.24,6.2-1.24-6.2ZM202,231.37l-3-2,2,4.75,1-2.8Zm13.47,23.78-3.67-1.35,3.67,1.35ZM91.61,66.41l.13-.51-4.81-1.38,4.69,1.9Zm69.83-15-1.22-2.25-2-.06,3.26,2.31Zm-41.2,100.3-.47-4.15.47,4.15ZM48,91.38l-.41.87-.4-4.18L48,91.38Zm4.27,190.3,2.6-.17-1.27-.78-1-.25-2.18-.18,1.86,1.39Zm160.08-45.61-.51-.5-2,1,.11,1.22,1.4.2,1-1.91Zm8.29,20.43-3.12-1.24,3.12,1.24Zm-38.69,32.3,1.37,3,1.44,1.77,1.74-.89-4.55-3.92Zm35.35,10.3.4.46,2.18-1,3.64-1.92-4.09.44-2.12,2ZM126.53,54.38l.27-.61L121.47,52l5.06,2.33ZM55.06,129l.31,0,1-5.08-.46-.3-1,.94.16,4.38ZM82.19,87.2l.21-.61L81,85.33,79.33,85l-.44.63,1.32.86,2,.67ZM86,55l2.33,1.62,1.81-1.5-.21-.43L86,55Zm99.71,230.71-.4,2.21-.1,1,2.69-3.22ZM70.2,181.19l-.42.41,4,5.09.31-.25-3.88-5.25Zm22,112.57,2.47,2.73,1.68-1.87-4.16-.86ZM63.35,78.86l1,.93,2.12-1.51,2.15-1.41-.13-.21-5.17,2.2ZM52,88.19l-.3-.53-2.32.71-.36.81,1,.47,2-1.46Zm79.61,11.27.29-.5-1.61-2.35-1.26,1.6,2.57,1.25Zm72.84,185.43-1.71-6.17,1.71,6.17ZM56,273.19l1.36,0,1-.79-1-1.35-.8,1.06L56,273.19Zm4-184.28.25.77L65,87.8l-.14-.44L60.06,88.9Zm104.3-22.14L164,66.5l-1.83,3.15,2.17-2.88ZM78.83,48.52l-.37-.6L74.57,50l.34.58,3.93-2.11ZM29.71,241.21l-.43,1,.54,1.48,2.72-1.59-2.83-.89ZM171.4,63.11l-.56-3.16.56,3.16Zm-5.6-3L166,64l-.23-3.87ZM48.85,265.84l0-.3-4.68-.31,0,.61Zm165.67-13,3.46.76-3.46-.76Zm1.37,48.56,1.27-.95-.15-.17-.84.19-2.46-2.81,1.65,1.47.54,2.26ZM102.3,54.92l3,.89-3-.89ZM153.23,311.5l-.05.48,1.18.33-.44.35,1,1.47-.31-2.45-1.37-.18Zm-24.59-8.07-2,1.5.28,1,.78-.51.94-1.94ZM53.54,133.74,49.91,136l3.63-2.22ZM219.94,255l1.6.91,1.07-1.3-.34-.51-2.34.91ZM144.56,57.09l1.27.42,1.09-2.29-.42-.29-1.93,2.16ZM104.51,289.57l1.65-1,.18.28-.4.33.19.32,1.76-.71-.21-.52-3.17,1.31ZM187.92,291l-1.48-3,.16,2.24,1.32.72Zm32.43-32.84,2.88.32-2.88-.32Zm-65.71,52.49,1,1h1.69l-2.7-1ZM122.42,99.06l3.23-.74-3.23.74Zm27.09-38.64.32-.3L148.3,58.2l1.21,2.22Zm85.67,187,2.43.17-1.87-2.5-.55,2.32ZM62.9,289.05l.46,0-.46-3.51v3.56ZM119,295.44v2.91l1.78-.79L119,295.44ZM85.22,76.19l.07.47h3.16l0-.63-3.19.17Zm-8,218.44.44,0,.25-3.61-.69,0v3.67Zm106-74.43.21.5,4.83-1.52-.13-.41-4.9,1.42Zm-50.1,45,.64-.11-.48-3.55-.42.05.26,3.6ZM41.67,177.71l-.21.5,2.48,1,.18-.43-2.45-1.09Zm76.12,127.79-.22.46,1,.78.84.58,1-.85-.24-.29-.7.29-1.66-1Zm53.75-14.56-1.7-1.27-.3.22,1.76,2.86.23-1.8Zm33.69-41.1.19-.3-1.6-2-.56,1.84,2,.45ZM41.68,257.9l1.05.69.87.39-.13-1-1.79-.08ZM122.81,46.65l-4.06-.56-.06.45,4.12.11ZM233.52,300.14l.65,2.8,1.57-1.87-2.22-.93Zm-5.78-6.94,2.85-.51-2.79-.3-.06.82ZM97.54,299.8H95.37l2.17,1.66V299.8ZM228.39,253v0ZM160.51,60l-.59.18.75,2.48.75-.25L160.51,60Zm17.81,18v0ZM110.38,55.45l.2-.7-2.59,0,2.39.72Zm52.46,245.11.34-2.75-.34,2.75Zm-18.2,14.62-.14-1.44-.38.33-1.71-1.39,2.22,2.5ZM64,138.7,62,140.87,64,138.7ZM46.6,91.9,46,91.78l-1.25,1.68,1.55-.16.3-1.4Zm17.73-9.59.23.49,2.26-1.16-.27-.5-2.23,1.16ZM59.94,282l1-2-.2-.21-1.86,1.57,1.08.67ZM57.6,115.44l-.82.12.47,2.22.47-.08-.12-2.25ZM166.52,297.23l-.24-.14-.41.66.25.14.4-.66ZM56.25,281.91h.08l0-.08,0,.08Z"/><path class="cls-3" d="M133.55,287l1.81-2.28-1.11-4.44,1.78-.85-.15-.29-1.71.09-1-2.62.1-1.09,1.67-9.22-1.65-8.75-.43-4L131.55,250l-.35-6.12-2.48-4.12,1.08.47,1.17.3V239L129.83,238l-5.39-3.86L117.83,228l-2.43-.84-7.29-6.57.22-.39,1.66.79,2.66,1.84.52.3,0,0,.31,1.51,2.51-.23-.43-2.09L114,219.72l.69-.87,1.18-.27,2.83,2.59,4.52-1.76-1.51-3.78.2-3.39,1.34-3.25,1.59,0-.18-1.46-3.59-7.68-3.74-1.33-4.3,1-.69-.42-1.09-.08.75-3.74-.09-.81.62-6.61,8.44,6.92.92-1,13,9.34h-1.53l0,.6,2.15,0,2.43.48,4.38.49,2.61-.22.06.45-2.25.39,0,.38,2.1-.21,3.75-.65.67-.85,1.18-.63,4.27-5,.66-3.65.1-.88v-4l-.42.09,2.78-12.05,2.52-4.29.35-1.14L165.05,154l.69-2.89,1.42-2.36-.61,0,1.78-1.76-.12,1.1,5.84-1.15-.21,1.08,3.33-2.25.68,1.59-5.39-19.42,2.8-1.74,1.61-2,1.47-3.94-.15-1.54-4.88-7.23-.27-4.18-.16-2.07,2.43-2.75,2-2.17.79-1.84.66,1.41.9-3-3.11-2.51.27-1.36-2.8,1-.52-5.21.22-2.27-.56-4.64-.4,0-.59.76,0,0V80.81l3.49-1.42-1,4.84.37.26,2.9-3.13.13-10.54-.13-.27L174.25,66l-1.71-1.85L173,62l.56,1,.49-2.84-3.52-5.55-.27-1.74-6.66-4.59-9.79-4.53-1.12-.42-9.07-2.24-1.51-.24L135.74,39l-.57-.18-4,.14-4.85-.82H247.56V323l-.3,1.34L247,309.43l-.07-5.88-.85,2.24-1.55-1.84-1.11.28-.17-.29,1.26-.87.51-1.56-.94-.58-.37-2.5.14,2.57-2.22.74-2.23-2.44,2.55-.8-1-.28.91-1-3.86.2,1,4.39-2.59.75,1.11-1.84-2.42-.38,0-2.85.18-1.4,4-7.38L239,286.2l-1.65-5.5,1.11-2.78-1.49-6.28-.25-2.36,3.65-12.16-.31-.28-1.4,4.37-.45-.14,5.77-20-.63-2.08,0-2.3-.69,2.51-.28,0-.31-1.28-1.08.1-7.93-4-16.58-7.69-5.53-1.71-1.56-1.15-.91-2-3.57-7.22-1.07.93.73.81-34.84,6.82.13.63,2.83-.49.22.19-.4.16.53,2,.88,5.77,1.5,5.81-2.6,1.08-1.93,1.74-.33,2.25,4.2,2.84,3.21,2.36,3.26,11.58,1.13,5.66,1.74,1,1.33,5.81-.18.08-1.07-1.5-.34.14.87,3-.74.21,1.76,2.32-.47.6-.68.79-2.77,3.52,1.71-.43-1.11,4.68-2.08,2.62-1.35,2.62-.77-.14.18,1.65-.33-.18-1.52,1.81-.27.69-2.2-1.23.12-.24,1.1.12.16-.43-1.84-.73-.19-2-1.44-.16-2.48-.35.49-2-1.93.15,1.44,1.88-1.21,1.1,1,.94-.92,1.8,0,0-.18-.81-1.59,1.53-1.3-4.31.66,2.79L164,292l-1.12-1.35-.22.16.54,1.22-.22.35-1.19-.53-2.21-1.59-1.23-2.07-.51.22v.93l.8,1.61,1-.74-.24,5,0,0-1.42-.54-.2.48,1.06.81-.13.19-3.77-.73-.08.54h2v1.84l1.85-.69-.84,2.17-4.54-.74-.76,1.42,1.93-.49h3.59l0,5.77-3.35-.43-.1.5,1.81.32.63,2.1-3.91-2.36,1.09-.59-.39-.46-1.48.85.74,2.18-1.38,1-2.4-.49.16-1.32-1.2-1.36.32,2.7v0l-3.6-2.15,1.82-1.63.87.22,1.9.34-3.86-3,.2-.43-.76.53,1.28,2.27-.3.19L145,303.1l-.36,1.59-1.32-2.39-.8,2.56-.85-2.59-.61-1.19-.82-1.26v.11l1.32-.6-1.71-2.57-1.77-1.69,1.77-.48-1.42-2.74-.47-.1-2.55-.63,1.27-1.54-2.37-1.08-.09.28-.79-1.3,3.58.85-1.9-1.35,1.08-.62-2.64.67Zm9,10.42,1,3.3,1.58-.23-.45-1.45,1.16.32-.21-1.94Zm10.16,4.72L151,300.81l-1.26-.1.48,1.28,1.08.43,2.89.17-.05-.55-1.42.13Zm-2.68-4-.07-.57-3.73.57Z"/><polygon class="cls-4" points="110.61 38.15 107.35 40.21 103.82 38.89 106.3 38.15 110.61 38.15 110.61 38.15"/><polygon class="cls-4" points="101.07 38.15 101.32 39.25 96.85 39.25 96.8 39.03 98.91 38.15 101.07 38.15 101.07 38.15"/><path class="cls-3" d="M172.21,82.62l-1.74,4,1-.31-.73,2.94.29-.17,1.83,5.11-2.7,3.52-1.53-.33-3.71,2.69-1.63.94L162,102.15l-2.86,5.48.26,2.12.39,2.39.11.86,1.22,2.66,3.78,10.49.64,1.23.5-.16-.75-3.13.2-.14,4.12,7.44,3.07,5.9,1.82,5.82-.17.67-4.63,1.74-1-.19-6.2-2.77-6.2-3.62-8.22-7-2.25-2.56-2-.06.48,2.34,2.13,1.43,3.51,2.64.38.41,2.57,3.16,9.06,5.94,2.8,1.05,1,.74-1.06.62-4.55-1.92-3.15-.95-2.23-1.43-2.6-4.42-3,6.17h0l-7-1.48-8.5-.65-7.25-.84-7.26-2.2-1.83-.3-3.81-3.13h11.24l-1.33.62.05.17,3.15-1,2.62-.78,4.33-3.57-2.36,1.57-1-.17-1.24.09-3,0-.89,0h-6.49l3-.5,0-.12-9.59.11L108,135.17l-1.85.1-3-2.28-1.36.85-.74-2.89,2.36-.82,2.29-.09,1.56.38.75-1.18h-2l-3.6.12-2.72,2-.58,2.7,1,7,.59.91,2.34,3.31,3.79,7.38,2.42,4.79,3.11,5.74,1,2.06,1.9,1.74,2.17,4.87.26.43,2.4,9,1.29,5.46.68,1.26,1.81,4-.53.31-1.26-.93-7-5.93L105,176.88l-3.62-4.56L97,166.52,91,160l-.9-.67-.46.34,6.8,9.65-.51.44-6.89-7-.61.47,2.22,3.87-.84.45,4.51,3.84-.72-1.84.31-.19L97.26,173l3.44,3.61,4.23,4,2,2.87,1.29,3.62-.5.55-5.9-1.84-.55-3-.42.1.16.7-1.23.41-2-2.22-.75-.89-2.41,1.39-3.06-1.72.45-1.65-3.29-1.65,2.09,1.53-2.66-3.44-2.36-1,.91,1.78-2.85-1.41-6-6.13-6.15-6.49-6.31-9.34-.74-2.27-2.38-.69.17-1.34.3-3,.54-1L64.8,142l2.08-3.79,3-10.38.91-4.09.41,0L72.73,127l1,1,.79-1.11L77.59,122l2.33-4.72-.65-.87-1.56,1.12-2.15,3.19L70.16,117l5.22.76,3-4.19-1.43,1.22-3,.7-2-2.31-3.28-5L66,99l1.37,1,2.86-3.45.75-.21,1.56,4.31-2.78,3.68.56,2.59,3.59-.33,3.33-5-.45-2L75.35,96.3l-1.29-1.14-8.93-2.88-1.67,0-3.24,4.25.72,5.14,1.75,4.07,1.06.47.33-2,5.11,6-.09,3.17.43,2.16-2.16-.7-1.18-1.14L62,107.25l-2.86-10,1.3-5.77L64,89l10.88,1.72,2.66,2.11,2.6,3.53,4.62,9.34.13.84-.08,1.63,1.56-.73,2.44,4,1.68-1.55.38-.76.59-11.84L94,88.56l1.84-1.63,2.57-2.48,5.9-4,.4-1.57L104,78l-2,2.11,1.73-2.45L104,75.8l-1.27-2L101,68.21l1.34-1.48,5.3-1.35,3.87.39,3.71.66L119,67.66l1.3.16,1.16-.56,3.13,1.52.05,1.38-1.33,7.6-.32,1.74-1.4,1.21-2.33.85,2.72.46-2,1.87-.54,1.43-.89.87-3.44,1.53-3.44,4.74.36.32,1.14-.8,3-.37,1.35-.48,4-2.5.29,1.26,5.52,5.27-1,1.59-7.77,3.73-1.47.5-2,1.65,1.81.39v3.43l1.63.9-2.86,1-4.06.53H115l5.09,2.34,5.32,3.45,1.32.13-4.55-4.35,1.41.41,6.27,1.82,3.53.39,4.79-2.85,3.49-3.16,1.56.78.63,1.08-1.32.06-1.19-1.25,0,1.87L145,112l-.5-1.4.35-.22,1.18,1.79,2.83,5.29,2.53,4.32.76,1,.35-.19-1.45-4.44-.66-2.27-.2-.62-3.53-6.56,3.86-.27,0-.38h-1.19l-1.09-.28.47-1.29,2.64-6.31-1.95-11-.71-.88-.26,1.14,1.23,9.39,0,3.12L148,106.65l-1-2,1.32-6.36-.49-9-.43-1.42H146l-.28,3.87.18,10.24-.23,3.88-.7.67-3-.1-1.6.11v-2l1.16.17,2.18-1-.74-1.63-6.47-5-3.37-3.26-.66-.59L131.88,91l1.29-1.65,6.25,5-2.54-3.32-4.19-3.65-1.13-3.33L130.64,80l-1.79-5,.28-3.6,1.87-.22,4,3,1.22,1.06,2.19.76.44,0,2.71,1.26,5.33,2.83,4.6,2,2.39-1.26,2.52-2.21V80l5-5.09-.47,1.56,6.18-6.22,3,10.3,1.14-.08,1,2.2,0,0ZM75.84,153.75l-4.12-8.5-.4.16,4.09,9.17.46-.88.15,2.66,1.76,3,1.45,4.44L80,166l1,.37.83-3.26-.47-7-.48-6.93-.57-4-.52-.06-1.06,3.71,1.06,5-.41.86-1.93,1.56v-1.55l-1.61-1Zm78.72-55.67-.61,0-.05,3.54-1.38,3.42,1.46-.28.1,1,1.59-2.51.35.2-.39,1.36,8.65-8.29-1,.28,2.53-7.3-1,2.15-.31-.12,1.09-4.58-.48-.11L160,98.43l-.44-.19.78-4.66.11-5-2.95,5.6-.12,3-.26.75.08,2.18-.75,1.07-1-.79-.88-2.32ZM110.47,92,108,93.46v1.82l-1.24,6.11-.22.15.65-.64-3.34-2.16-2.11-3.18,1,3.56L106.1,106l-5-1.79.17-1.65-3.47-.68-.19.52,1.72,1.47,3.28,2.07,3.21.21,1.37,1.53.55,1.15,2.19-3.84-1.59.76.76-6.43,1.41-7.3Zm-5.33,27.48-2.77,1-3.67,1-4.26,8.09-.25,3.72.49.08.7-.91,2.54-4.48.72-1.48,3.86-4.76,2.64-2.23ZM104,165.62l.53-.18-8.73-16.91-.43,2.76,3.74,6.33,4.89,8Zm50.41-72.39,1.17-1.36,3.44-6.3,1.12-4.19-.55-.27-.77,1-1,1-3.37,10.12Zm-12.21-2.88-8.55-6.72,7.9,6.86.64-.14ZM93.76,118.48l.54.43,7.15-6.94-4.22,1.44-.23.19-3.23,4.88Zm58-5.18,4.46,7.73-4.7-10.29.24,2.56Zm-10.33,19.91.47-.21-1.32-3.33,2-2.65.09.74,2.44-1.16-1.29-1.54-4.46,4.47,2,3.67ZM114.26,112.1v1.8l5.06.75,1-.23-.43-.93-5.66-1.39ZM78.9,144.85l1.12-2.1-.51-3-.9-1.06L78,139.86l.94,5Zm7-14-.56.08.92,7.63.85-1.45-.86-5.18-.35-1.08Zm-2.67-14.15,1.37-3.75-1.37,3.75Zm86.41-37-.6-.19-1.36,4.3.5.16,1.46-4.27Zm-81.75,94,.38-.28-1.89-3.94-.38.2,1.89,4Zm82.86-90.94-.65-.22L169,85.6l.61.2,1.15-3.13Z"/><path class="cls-5" d="M115.76,298.17l-1.36-.86,1.3-3.4-.66,1.36-.15-.85-.32-.18v-2.79l-2.08,2.41,0,.83.52,1.85-1.14-.94-1.54,1.11.13-2.73.8-1,1.68-.74-.12-.36-1.55.38-1.27-2.1,2.26.94-1-2.9L110,287.08l-.41,1.7.29.91-.47.16-.85-2.24-.71.09.15-1.27-.45.25-2.25.41-1.12-1.57-1.06-1.73-.13-1.28-.63-1.76-1.12-1.64-.69-2.35L99.14,278l1.37-3.38-.38-1.53-2.22,1.84-.43.05-5.12-11.12-.36.27-1.54,1.15-1.15-1.2-4.68-7.81-1.17-1.14-.54.38,2.66,4.59-1.58.3,1.39.3-1.5.31,3.63,4.61-1.19,1.29,2.75,1.71-.5,3.26,2.65-.12L90.93,274H88.4l1,2.16.38,2.34,1.23.74-.2.3H88.22l.51.61,4.22,2.58-.27,3.81-.25,1.77-.65-.06.73.74-.08.23-3-1,2.12-1.29-.78-.9-5.76.79,0-.06-.51.13-2.86-.68,2.33-.32L83,284.08l-.4.19.27,1.08-1.55.26.28.55-.44,1.36-.28,1.72-1.33-3-.5,1.5-.93-2.64-.28.13-.5,2.6-2-2.39-.83,1.1-2.28-1,2.73-.54L70,282.85l1.47-1-.29-.51-2.76,1.21-1.25-1.15.67-.64-.4-3,3.42-.09L68.33,277l1.24-.19,1-.83.43-1.15-1-2.35.72,3.54-1.45.19-1.76,1.58-1.83-.24,1.43-2.35-.3-.37-2,.78-2.38-2.84-1.93.58.79.44h0l-.86-2.15.64-1.17-3.71-1.06-.24-1.78-.57-1-.81.77,0,0-1.23-1.86L52.13,264l1.14-.72-1.35-.78-2.15.21-.22.72h0l-2.23-1.47L46,261.53l-.3-1,2.91.72,1.66-.35-.52-.87.53-.67L49.79,258l-1.48.79.05,1L47,258.18l-1.31,2.29.41-1.27-.45-1.57-3.69-.8-1.07-.24-.08-.5,7-2.42-1.65,2.18.41.43,2.59-1.71,3.92-.33-1,.32-1,.17.4.83,2,.05.34,1.94-.86,3.6,2.15-.81-.45-2.62,2.69-1.25-.93-3.39,1.71,1.79-1.78-1.73-2.5.63-1.49-1.42,5.94-4.16-.15-.28-1.48.48-1.22-.14v.09l.7-.8-.12.05,4.32-2,.1-1.31,1.42.52.15-.18-.93-1.07,7-4.51,3.93-2.85,6.07-1.44,2,1.77,6.22-3.06-.18-.45-4,1.75-3.51-1.53,8.09-2.45v1.78l.37,0,5.5-1.65,4.12-.19,6.2.45,7.76,1.58-.09.56-5.7-.58-.07.51,5.24.91,5.54,1,1.21,1.17-8.95-1.63-.07.38,1.82.3,7.26,2.3,1.11,1.44,1,2,.38-.14-.6-2.37,6.25-.17,1.75,2.47.09.12,2.15,6.95,0,6.27.05,3.21.83,1-.93,1.18h.3v3l-.09,3.21-.27,1.31-1,4.29-.81,4-2.09-2.24.79,4.52-.06.69.1,2.47.66,3.89-.26,2.24,1.23,1.46-1.42.19-.07.3,1.2.5.64,4.14,1.16,3.79-2,2.36.63-2.51-2.78.94.44,2.29-1.08-.11-.43-.27-.46-.56.45-2.32.78.22.22-.31L123,295.68v-2.74l-.57-.38-.55.2,1.16,2.88-1.62-1.14-.62,1.43-3.1-.37-.65-1.93,1.23-1.67-1-2-1,2.7-.14.26,1.6,2.49-.87,1.09,1.39.74-1.51,1.57-.47-.58h0l-.52-.08-.06,0ZM65.55,270l0,0,.91,1.6.17-.43,1.51.09.47-2.73L67,266.9l.61,2.09-1.95-1.3-1-.76,1.46-.66-1.06-2.22.68-3.2-.39-.08-.78,1.3-1.92-.57-.27-1.2-.5.15.79,1.83L65.09,264l.07,1.84-1.57.34.13,1.49-.49,1.84.12.21-.52.47.86.56-1.46.35,2.39.42.93-1.49Zm-4.37-2.39,1.43-.76-1.34-.8,2.16-1.2-3.14,1.58,1,1.26h-2l-.93-1.82L60,269l.53-.87.49,1.1.17-1.59Zm21.48,6.76.49-2L82.77,270l-.38-.27L80.78,271l2.07,2.39-.18,1,.65,1.77-1.15,3.73-1.67-.44,0,.22,1.26.94-.7.64-2.09,2.1.36.25,1-1.45,3.58-2.53.52-4.3-1.74-.92Zm37,1,1.44,1.85.75-.54-1.1-1.83-1,.66-.08-1.72-1,.53.93-2.15-1.93-3.61-1.85-6.16-1.15-2.53-1.9-6-2.3-7.24-1.3-3.4-1.58-2.37L106,238.62l-.49.13-1.15,3.81,2.74,6.95,2.42,5.91,2.63,8.93-.27,1.26,1.88,4.41,1.62,4.41,1.62,2.31.76,1.91-.34.17,1.23-.14,1-.77-.41-.1.32-1.6.17-.81Zm-11.91,7.69,1.62.2-.95-2-3.67,1.12,1.68,2,1.32-1.38Zm-28.31-9.4,1.59.68.26-1L79,271.59,77.83,275l1.62-1.32ZM59.58,261.08l1.57-1.94,2,.43.11-.36-2.27-1.14-2.34,1.09,1,1.91Zm3.83-17.17,8-2.72-.23-.55-7.76,3.27ZM80.2,278.6l.43-.09-.34-1-2.78-.94-2.2.85.63,1.06,4.25.17Zm-4.95,4,2.35-.37,0-.39-2.48-.48-.87,1.46,2.41,1,.1-.25-1.49-.94Zm46.56,7.67-2.22,1.42-1,1.6,2.07-1.17,1.13-1.85Zm1.61,5.14,2.31-.92-1.34-1.16v1.16l-1-.41v1.33ZM69.36,273.24h.18v-2.9l-.49-.13-.81,2.31.28.09.72-.65.11,1.29ZM87.77,279v-1.83l-.39.24-1-1.35-.06,1.51,1.5,1.43Zm-23.52-5.16L67.13,272l-2.88,1.83ZM120,242l-.46.15,1.05,3.16.51-.17L120,242Zm-4.71,50.54-.47-2.74.47,2.74ZM84.64,285l.84-1.71,1.52-1L84.64,285Zm-11-5.85,2.19,1.46-2.19-1.46Zm5.25-1.42-.53,2.43.53-2.43Z"/><polygon class="cls-6" points="52.87 152.49 59.77 148.71 64.58 156.66 68.75 161.41 83.27 176.99 89.32 181.38 89.97 181.76 99.33 188.64 101.84 190.32 105.23 194.03 105.55 194.5 106.43 197.41 105.63 201.58 103.98 207.28 102.76 210.7 100.24 211.3 95.6 208.13 95.03 206.4 88.98 202.08 87.08 199.46 79.57 187.63 73.97 181.03 72.54 178.95 69.47 175.36 66.91 175.61 60.85 167.06 58.48 164.83 55.32 158.58 52.87 152.49 52.87 152.49"/><polygon class="cls-3" points="111.45 147.48 112.83 148.78 118.43 157.38 122.7 163.59 123.73 165.47 127.61 171.12 128.58 173.09 128.95 172.97 128.85 171.31 138.02 181.07 138.23 179.47 144.99 186.09 145.21 185.87 141.85 182.02 141.98 181.85 145.53 183.75 145.06 184.63 153.99 178.61 155.49 174.25 155.31 175.71 155.67 175.79 156.44 171.18 156.4 176.33 153.2 187.16 152.72 193.81 152.23 195.99 149.04 199.29 147.6 201.09 141.52 201.45 137.69 202.08 131.78 199 126.84 196.04 125.14 193.23 123.32 185.05 122.3 179.33 121.94 178.07 119.81 173.51 116.07 166.26 108.23 152.24 103.81 143.9 101.94 139.28 100.12 136.8 99.55 132.95 100.08 132.86 106.48 143.32 107.19 143.01 119.33 167.39 120.06 167.05 110.99 147.88 111.45 147.48 111.45 147.48"/><polygon class="cls-5" points="62.21 188.15 55.72 184.62 45.78 176.62 39.51 171.29 36.7 170.24 35.98 170.22 30.89 166.07 30.59 164.76 32.21 164.29 37.68 163.17 43.49 159.53 47.44 156.32 51.19 153.18 53.31 157.26 58.06 167 58.8 168.78 59.04 169.44 63.26 175.56 65.93 180.06 67.68 181.88 68.81 183.51 71.99 187.66 74.08 190.47 72.8 192.3 58.73 182.31 58.42 182.78 61.99 186.43 62.17 188.18 62.21 188.15 62.21 188.15"/><path class="cls-7" d="M233.19,266.17l.48-3.13-1.44-2.6,1-3.21.11-1.11.26-2.87,0-.68L231,247.49l-.87-2.24,3.83.57.51.89.14,2.44,2,.89,1.54-2.49-1.87-2.74-1.62-1.42-8.4-4.1-2,1.32-3.14-3.54-4.63-1.61-3.14,0-2.09-.32-2.43,1.57,1,2,2.46-.21,4.18.13,1.31.93-4.27.48-3.71,4.84L208.49,251l-.26.65-2.63-2.77-1.87-3.63,1-.21,1-1-.69-.63-1.38.31-.06,3-1.32,2.67-.78,1.1-2.73,4.3-.47,1.72.81-6.38,2.63-10.8,1.45-4.3.78-2.67,3.7-6.9,1.5.87.2-.29,1.19,1.43.22-1.32,9.37,4.16,2.7,1.41.26.15,1.7-.09.54,1.05,3,1.52,8.47,4.68,3,1.43,1.45-.46-.45,3.55-4.17,15.69-1.19,4.06-2.24,2.84.05.05Zm-27.92-31.88-.84,1.29.7,2.1,1.58-1.33.28-1.27.8-2-.06-4.13L206,233.34l-1.1-2-.36.12.69,2.85Zm1.75,6-1.7-.49.36-1.51-2.47,4.45,3.25-.33-1.36-1.25.82-.41,1.1-.45Z"/><path class="cls-8" d="M183.31,221.38l1.37,7-1.72,5,1,11,2.12,5.07,2.15,1.85.91,1.15,3.58,1,1.9-.19,1.35-.34.52,0,.21.95-.85,5.28-1.59,8.52-2.16,1.88-2.37.62V267.5l1.08-5.12.36-3.82-.2-1-1.27.66.26,2.22-1.24,3.75-.29,2-.58,2.84-.93-.27-.76-4.38-1.23-1.42-3-11.46-.62-.32.55,1.8-.41.13-1.19-3.76-3.15-13.4.94-1.58,1,3.81,2.25-.3-.33-2-1.1.26-.41-2.87-1.56-.51-.81,1.53-.36-.07-.69-2.42,2.71-.42-3.07-1-1.82-6,.75-1.12,5.93-1.33,2.78-.5Zm-7.64,6.46,3-1.13L176.76,224l-1.45.09.62,3.18.62-1.46,1.16.66-.44.47-1.6.88Zm7.41,19.5-2.87-3.43.32,2.91,1.4-.81,1.15,1.34Zm-2.74-4.52,1.51-2-1.54-1L179,241.09l1.3,1.74Z"/><path class="cls-4" d="M80.73,61.39l-3.36,1.46L74.85,64l-3.49,1.64.11.14L79.9,65l-3.44,4,3.07-1,3.31-.2-2.18,1.87,2.77-.21.31,1.06,4.89.66-.09.53-8.13-1.2-.89.5,1.06,1.46-2,.09-.8.21-3.83,0,1.17-1.4-9.5,5.21L55,79.46l.1.48L56,80l.2.31-5.31,2.77-.3-.33,3.26-2.9,4.48-3.94,1.5-.6,1.49-1.23-.42-3.9-1.48-1.58-1.71,2.84-1.07,1-2.73,3.27-1.39,1.56.69-3.5-1.53-.33,0-.4,1.15-.46,1.36-.49,3.27-2.57,5-4.46,2.44-1.68,2.87-2.71,6.5-3.89L76,55.69l-4.19,4.14,1.63-.42-2.51,1.69-1.75,2.5.86.46L82.15,58l.34.5-4.74,3.75,3-.79,0,0ZM68.4,64.69l-2.35,1.6,2.38.73,1.23-.71-.92.08-.35-1.69Zm8.35,2.63-2.13,2.46,2.13-2.46Z"/><path class="cls-9" d="M219.84,294.51l-2.31.38-1.48,1.28.79,1.25h-1.67l.16-2.18-.54-.18-2.1,2.89.23-4.64-1.46-4.42-.2,3.45-.39-.45-2-3.5.4-1.89,2.53-1.46-1.3-1.25.05.55-.78,1.52-2.07-.27-.16-2.39-.14-.93-.84,1.55-.47-.1.22-1.89-.18-.24-.18,1-.34-.31-1-3.58L203.48,273l.93-2-2-1-.67-10.19.1-4.63,1.49-1.71,1.38-.95,3.1,6.33,1.65,5.57.85,3.29.39,4.11v3.56l.44.07.76-1,3.06,13.79,2.12,1.38-.68.8h3.37l1.64.59-.26,1.49-.52.17-.42.41-.35.49,0,0v1Zm-12.56-18.68-3.68-15.6,3.68,15.6Zm7.35,12.94-1.08,1.15,1.31,1.62.76-1-1-1.73Z"/><polygon class="cls-10" points="121.26 147.98 118.62 146.78 115.94 145.62 117.08 145.39 116.36 143.61 116.87 142.73 119.18 142.87 123.5 144.19 134.31 146.52 138.82 146.55 143.81 146.75 150.37 148.73 151.24 148.91 158.22 150.17 160.72 151.38 159.12 158.25 158.44 158.25 158.05 156.41 156.89 154.46 153.86 154.5 152.73 154.94 147.23 153.28 146.08 153.37 144.63 150.59 142.34 152.35 138.69 152.05 137.81 150.64 136.54 151.21 135.06 151.01 132.06 150.35 130.98 150.02 128.86 148.65 127.66 147.52 123.52 146.88 121.26 147.98 121.26 147.98"/><path class="cls-4" d="M81.54,45.59,78.3,47.2l-6.75,4.47L70,52.58l-.81.8,1.17.7,1.72-.33.31.4-6.25,5.36-.23-1.29-2.59,2.25-1.58,1.09L60.42,62.8l-4.13,4.54-5.72,4.88.14,2.31L47.17,75l4.17-6.52,1-.64,2.19-2.22,1.35-2.2-.47-.86-3.54,4.56-2.45-.87-.46.31V63.63l1.45-.11L50,61.75l1.63-.25,2.16-3.12.68,1,3.07-4.61,3.17-2.54,4.22-2,2.37-.38,1-.16,3.13-.47,3.89-1.79,6-2.33.21.4ZM58.8,59.27l1.79,0,2.32-1.43.49-1.38-.14-2.09,1.5-2.79-3.65,5.14L58.8,59.27Z"/><polygon class="cls-11" points="204.77 226.13 203.21 226.79 202.47 230.59 198.53 227.85 197.81 226.72 195.19 220.6 194.24 220.07 193.46 221.19 193.63 224.59 192.33 226.87 187.7 225.11 185.49 222 184.42 221.27 191.11 219.38 192.25 218.55 193.44 218.63 194.31 218.41 196.16 217.81 201.11 217.81 203.46 219.28 204.56 224.25 204.77 226.13 204.77 226.13"/><polygon class="cls-3" points="165.91 118.24 164.07 118.71 164.75 117.31 167.4 116.33 170.36 114.03 171.84 112.66 173.04 113.99 175.83 119.18 175.81 122.64 173.85 124.86 171.46 126.2 169.48 125.72 170.49 123.86 172.78 123.07 169.93 122.35 167.25 122.67 165.16 119.69 165.99 118.46 166.02 118.32 165.91 118.24 165.91 118.24"/><polygon class="cls-12" points="225.79 246.44 223.7 245.33 219.18 243.15 216.77 242.41 215.26 241.74 211.79 245.31 212.06 244.24 210.89 245.11 210.77 244.96 218.63 241.47 220.13 241.93 213.03 236.65 221.15 238.38 223.29 242.09 224.19 243.22 226.33 240.37 229.3 240.07 233.89 244.44 228.78 244.18 226.16 245.03 225.79 246.44 225.79 246.44 225.79 246.44"/><polygon class="cls-12" points="118.67 201.06 108.97 203.36 109.87 201.92 110.67 201.31 117.77 199.62 119.87 200.36 122.15 204.54 122.47 207.94 118.88 215.02 114.76 217.79 109.81 218.55 109.7 218.18 113.04 217.23 116.42 215.23 116.85 214.83 119.83 208.96 120.15 207.24 118.67 201.06 118.67 201.06"/><polygon class="cls-4" points="108.19 52.52 106.55 52.36 101.59 51.47 109.85 48.79 111.47 49.69 111.87 49.52 115.59 48.42 117.34 48.76 118.8 49.42 118.87 49.96 116.38 50.84 113.38 51.44 115.51 53.12 116.05 54.51 114.51 54.7 113.34 54.03 109.48 53.21 108.15 52.48 109.7 51.7 110.63 49.93 108.19 52.52 108.19 52.52"/><polygon class="cls-3" points="224.31 248.49 224 247.41 224.25 247.03 226.26 247.98 218.43 251.67 214.82 245.29 215.27 243.59 217.52 243.72 217.6 244.1 215.41 245.37 217.03 248.82 219.54 246.55 218.43 244.92 218.58 244.69 221.84 246.52 221.22 246.89 221.91 250.25 224.31 248.49 224.31 248.49"/><polygon class="cls-13" points="213.21 263.42 216.72 260.56 219.61 263.09 216.37 265.82 210.57 260.96 211.77 261.45 210.77 258.64 214.57 258.52 216.18 260.21 212.91 263.07 213.21 263.42 213.21 263.42"/><polygon class="cls-4" points="143.59 55.12 142.73 54.42 142.15 55.4 140.01 53.74 139.42 52.83 135.21 50.03 139.6 50.73 138.57 49.31 134.98 47.87 134.19 49.68 131.68 48.21 129.61 49.84 126.49 48.23 125 47.87 128.65 47.65 131 47.23 133.69 46.51 135.86 47.55 137.98 47.53 140.67 48.17 140.77 49.49 140.3 50.8 141.93 52.88 144 54.66 143.59 55.12 143.59 55.12"/><polygon class="cls-12" points="114.76 215.58 108.72 216.77 106.8 207.79 114.76 215.58 114.76 215.58"/><polygon class="cls-3" points="185.29 230.26 186.88 241.59 185.16 241.14 184.54 242.22 184.28 242.13 183.68 232.86 184.68 230.17 185.29 230.26 185.29 230.26"/><polygon class="cls-3" points="111.46 205.13 117.46 202.9 118.39 203.33 118.23 210.52 111.46 205.13 111.46 205.13"/><polygon class="cls-3" points="126.51 78.1 128.63 89.9 124.77 86.54 123.05 86.22 123.47 84.61 126.51 78.1 126.51 78.1"/><polygon class="cls-4" points="137.38 42.66 143.65 44.71 145.11 45.85 149.88 47.1 146.36 48.41 139.11 45.65 138.97 44.4 137.38 42.66 137.38 42.66"/><polygon class="cls-3" points="139.99 161.2 137.31 161.43 137.89 154.37 138.8 155.17 140.81 152.47 141.71 153.15 139.99 161.2 139.99 161.2"/><polygon class="cls-4" points="52.84 97.53 51.29 97.22 52.13 96.1 51.72 96.09 51.57 94.02 50 94.48 49.38 92.79 51.05 93.12 54.84 90.04 55.82 89.84 56.08 90.19 53.41 94.25 57.76 90.83 57.67 92.69 52.84 97.53 52.84 97.53"/><polygon class="cls-3" points="143.45 162.95 141.92 160.33 142.72 154.65 144.21 151.89 143.45 162.95 143.45 162.95"/><polygon class="cls-3" points="149.38 157.06 147.7 163.38 146.48 163.97 145.03 162.63 146.18 156.52 148.15 155.74 149.38 157.06 149.38 157.06"/><polygon class="cls-3" points="136.3 160.93 133.11 159.47 134.68 153.3 136.36 152.09 137.1 153.65 136.3 160.93 136.3 160.93"/><polygon class="cls-3" points="128.85 158.65 131.64 161.43 130.34 166.1 129.05 165.98 128.06 161.53 128.85 158.65 128.85 158.65"/><polygon class="cls-3" points="128.92 152.18 128.45 155.98 127.42 156.71 125.82 155.52 125.49 150.96 126.43 149.06 128.57 150 128.92 152.18 128.92 152.18"/><polygon class="cls-3" points="134.72 106.39 128.44 106.71 128.44 101.71 130.07 102.54 134.72 106.39 134.72 106.39"/><polygon class="cls-13" points="217.57 266.01 220.22 263.83 222.43 261.11 224.98 262.83 225.16 263.58 220.86 266.56 217.9 266.54 217.57 266.01 217.57 266.01"/><polygon class="cls-3" points="139.67 104.73 138.59 108.21 133.66 108.01 135.46 107.44 136.6 105.64 134.27 102.45 133.96 101.48 134.92 101.43 137.46 104.11 139.67 104.73 139.67 104.73"/><polygon class="cls-3" points="132.44 154.01 133.1 153.75 133.24 154.03 132.53 157.5 131.23 158.16 130.11 157.74 129.25 155.87 130 152.86 130.53 151.86 132 151.26 132.49 152.59 132.44 154.01 132.44 154.01"/><polygon class="cls-4" points="152.18 54.39 152.84 55.61 151.46 55.7 144.03 52.08 143.58 51.51 143.57 50.92 146.8 52.77 148.82 52.05 150.89 50.94 152.16 54.45 151.03 53.13 149.92 53.93 150 54.39 152.18 54.39 152.18 54.39"/><polygon class="cls-3" points="154.83 159.25 153.33 159.34 155.46 155.56 156.27 160.95 156.31 163.68 155.04 165.67 153.82 164.41 154.83 159.25 154.83 159.25"/><polygon class="cls-4" points="119.99 57.8 119.85 56.2 122.99 57.2 122.05 58.21 123.46 61.01 122.98 61.45 115.91 59.33 119.99 57.8 119.99 57.8"/><polygon class="cls-7" points="210.03 251.27 211.53 248.83 212.11 248.07 213.47 245.25 215.27 249.56 214.01 251.5 210.03 251.27 210.03 251.27"/><polygon class="cls-3" points="133.04 162.26 135.11 165.15 134 169.75 131.92 168.52 131.31 167.15 133.04 162.26 133.04 162.26"/><polygon class="cls-4" points="103.68 41.75 101.93 41.75 101.74 43.28 100.78 42.27 95.76 43.66 90.18 43.55 89.05 42.75 97.58 41.89 101.48 40.97 103.65 41.03 103.68 41.75 103.68 41.75"/><polygon class="cls-7" points="222.54 253.47 226.8 250.21 227.25 253.45 226.97 256.98 222.54 253.47 222.54 253.47"/><polygon class="cls-3" points="122.91 148.98 122.63 148.16 124.18 147.79 124.42 148.16 123.68 149.5 124.45 154.8 121.39 152.03 122.91 148.98 122.91 148.98"/><polygon class="cls-3" points="136.68 163.51 138.47 166.82 138.15 169.14 136.27 170.79 135.42 168.84 136.68 163.51 136.68 163.51"/><polygon class="cls-14" points="174.21 238.45 173.53 239.46 173.72 239.67 175.5 238.46 175.78 242.81 171.92 241.72 174.21 238.45 174.21 238.45"/><polygon class="cls-4" points="95.33 57.37 95.08 53.63 95.59 52.53 98.77 49.33 100.59 47.74 101.09 48.16 97.94 52.97 96.45 55.39 95.3 57.33 95.33 57.37 95.33 57.37"/><polygon class="cls-3" points="143.24 166.47 141.57 171.57 140.21 172.78 139.73 171.04 140.53 167.57 143.24 166.47 143.24 166.47"/><polygon class="cls-3" points="170.74 109.02 166.05 111.64 165.39 107.63 168.35 107.19 170.74 109.02 170.74 109.02"/><polygon class="cls-3" points="144.99 172.85 143.53 172.04 144.61 165.97 146.71 168.13 144.99 172.85 144.99 172.85"/><polygon class="cls-7" points="196.05 268.06 198.24 256.79 197.7 265.39 196.05 268.06 196.05 268.06"/><polygon class="cls-5" points="56.13 247.59 56.25 247.53 54.79 246.33 55.01 245.61 53.63 245.39 56.77 243.34 57.15 243.65 60.92 241.42 59.67 243.68 58.45 244.39 56.13 247.59 56.13 247.59"/><polygon class="cls-4" points="47.5 133.19 49.23 130.97 51.15 129.44 51.34 128.04 52.27 125.96 53.06 128.18 53.07 130.73 52.49 131.81 47.5 133.19 47.5 133.19"/><polygon class="cls-3" points="105.98 208.38 106.62 215.34 103.78 213.06 105.51 208.18 105.98 208.38 105.98 208.38"/><polygon class="cls-3" points="151.13 174.79 152.21 169.48 154.63 169.18 152.83 174.02 151.13 174.79 151.13 174.79"/><polygon class="cls-12" points="114.01 211.33 113.57 211.22 108.64 207.22 107.99 204.78 113.97 211.37 114.01 211.33 114.01 211.33"/><polygon class="cls-3" points="148.06 167.07 149.23 170.78 147.59 173.53 146.7 173.54 146.56 172.81 148.06 167.07 148.06 167.07"/><polygon class="cls-3" points="225.79 246.44 230.41 249.99 230.61 252.36 229.49 251.26 227.37 247.02 225.79 246.44 225.79 246.44 225.79 246.44"/><polygon class="cls-4" points="53.37 119.56 51.04 116.85 51.08 112.15 52.62 112.84 52.71 116.59 53.33 119.6 53.37 119.56 53.37 119.56"/><polygon class="cls-5" points="81.88 231.44 70.72 235.46 70.51 234.88 81.88 231.44 81.88 231.44"/><polygon class="cls-4" points="53.33 119.6 54.98 119.04 55.69 121.86 52.98 122.86 54.09 123.31 53.08 125.01 52.36 123.43 52.73 121.59 53.37 119.56 53.33 119.6 53.33 119.6"/><polygon class="cls-3" points="121.58 134.9 111.25 134.66 112.23 133.58 116.89 134.73 121.56 134.45 121.58 134.9 121.58 134.9"/><polygon class="cls-4" points="132.76 53.22 134.15 53.59 136.76 55.87 136.04 56.6 133.79 56.81 132.76 53.22 132.76 53.22"/><polygon class="cls-3" points="172.81 99.02 171.55 104.73 169.23 103.7 167.32 104.52 172.81 99.02 172.81 99.02"/><polygon class="cls-3" points="230.39 261.52 229.46 261.95 229.46 253.31 231.16 257.06 230.39 261.52 230.39 261.52"/><polygon class="cls-8" points="207.51 223.29 205.73 224.23 204.02 218.65 207.51 223.29 207.51 223.29"/><polygon class="cls-7" points="228.34 232.35 239.49 237.89 239.23 238.41 237.54 237.62 235.37 237.16 234.84 236.96 228.07 232.68 228.34 232.35 228.34 232.35"/><polygon class="cls-4" points="107.8 42.92 105.67 44.54 103.22 48.01 107.5 42.59 107.8 42.92 107.8 42.92"/><polygon class="cls-5" points="51 250.22 50.95 252.08 47.08 251.94 50.35 249.52 50.95 249.84 51 250.22 51 250.22"/><polygon class="cls-3" points="126.63 162.54 124.68 158.54 125.58 158.15 127.24 159.14 126.63 162.54 126.63 162.54"/><polygon class="cls-4" points="57.07 124.46 57.56 118.96 59.88 120.78 59.67 122.4 57.07 124.46 57.07 124.46"/><polygon class="cls-4" points="108.84 56.14 110.31 56.28 113.08 56.55 114.91 56.98 115.13 58.32 113.7 58.72 108.8 56.42 108.84 56.14 108.84 56.14"/><polygon class="cls-13" points="217.55 260.05 221.7 260.74 220.01 262.67 218.83 261.39 217.55 260.05 217.55 260.05"/><polygon class="cls-4" points="175.87 72.17 171.06 66.25 176.18 71.93 175.87 72.17 175.87 72.17"/><polygon class="cls-3" points="150.5 165.5 151.26 155.6 150.5 165.5 150.5 165.5"/><polygon class="cls-5" points="51 250.22 50.95 249.84 53.38 248 55.55 248.33 55.56 248.25 52.97 250.52 51 250.22 51 250.22"/><polygon class="cls-4" points="83.22 62.54 83.55 61.07 89.73 57.6 83.22 62.54 83.22 62.54"/><polygon class="cls-3" points="124.29 237.79 117.31 235.56 124.29 237.79 124.29 237.79"/><polygon class="cls-4" points="79.96 53.05 72.06 56.82 73.27 54.92 75.08 54.39 79.04 52.29 79.83 52.53 79.96 53.05 79.96 53.05"/><polygon class="cls-3" points="218.82 258.21 214.64 256.72 218.82 258.21 218.82 258.21"/><polygon class="cls-4" points="45.8 138.74 54.24 134.94 45.8 138.74 45.8 138.74"/><polygon class="cls-4" points="172.13 71.43 172.1 76.61 170.13 68.23 170.63 68.03 172.16 71.47 172.13 71.43 172.13 71.43"/><polygon class="cls-5" points="46.98 178.82 53.89 184.48 53.51 184.93 46.62 179.18 46.98 178.82 46.98 178.82"/><polygon class="cls-4" points="50.88 95.31 49.4 96.76 47.75 97.51 46.28 98.46 45.66 97.42 47.03 96.33 50.88 95.31 50.88 95.31"/><polygon class="cls-4" points="90.84 69.68 86.78 69.67 84.79 67.86 90.84 69.68 90.84 69.68"/><polygon class="cls-12" points="120.02 214.82 121.6 218.69 118.89 218.32 120.02 214.82 120.02 214.82"/><polygon class="cls-3" points="157.14 52.65 151.99 49.31 157.14 52.65 157.14 52.65"/><polygon class="cls-4" points="96.7 57.43 99.55 53.37 99.94 53.58 98.48 56.44 100.59 56.72 100.54 57.35 98.42 57.88 96.7 57.43 96.7 57.43"/><polygon class="cls-3" points="210.31 257.93 210.52 254.6 213.15 256.47 210.31 257.93 210.31 257.93"/><polygon class="cls-3" points="224.77 257.29 225.83 257.49 227.42 259.88 227.16 260.87 224.81 257.24 224.77 257.29 224.77 257.29"/><polygon points="38.01 242.05 37.1 242.9 37.15 242.86 36.06 243.78 34.07 245.43 33.78 245.13 33.98 243.41 33.97 243.59 38.05 242.09 38.01 242.05 38.01 242.05"/><polygon class="cls-4" points="84.63 66.38 84.35 65.24 79.81 66.28 84.6 64.17 85.67 63.95 85.58 65.14 84.63 66.38 84.63 66.38"/><polygon points="45.72 260.46 47.02 258.18 48.36 259.81 49.75 260.07 50.27 260.94 48.61 261.29 45.71 260.56 45.72 260.46 45.72 260.46"/><polygon class="cls-3" points="226.78 261.9 222.92 260.29 226.78 261.9 226.78 261.9"/><polygon class="cls-3" points="202.01 231.47 201.02 234.27 199.03 229.52 202.01 231.47 202.01 231.47"/><polygon class="cls-4" points="47.26 111.12 46.37 110.11 46.75 105.37 47.98 109.17 47.22 111.15 47.26 111.12 47.26 111.12"/><polygon class="cls-3" points="215.48 255.25 211.8 253.9 215.48 255.25 215.48 255.25"/><polygon class="cls-3" points="146.85 176.19 143.31 176.11 139.34 174.82 138.99 174.39 146.9 176.26 146.85 176.19 146.85 176.19"/><polygon class="cls-4" points="91.61 66.51 86.92 64.62 91.73 66 91.61 66.51 91.61 66.51"/><polygon class="cls-4" points="161.44 51.49 158.18 49.18 160.22 49.24 161.44 51.49 161.44 51.49"/><polygon class="cls-3" points="120.24 151.79 119.78 147.64 120.24 151.79 120.24 151.79"/><polygon class="cls-4" points="47.99 91.48 47.19 88.17 47.59 92.35 47.99 91.48 47.99 91.48"/><polygon class="cls-15" points="212.35 236.18 211.32 238.09 209.93 237.89 209.81 236.68 211.84 235.68 212.35 236.18 212.35 236.18"/><polygon class="cls-3" points="220.63 256.61 217.52 255.37 220.63 256.61 220.63 256.61"/><polygon class="cls-12" points="113.97 211.37 115.17 210.92 116.97 213.16 115.73 214.71 114.01 211.33 113.97 211.37 113.97 211.37"/><polygon class="cls-4" points="126.53 54.48 121.47 52.15 126.8 53.87 126.53 54.48 126.53 54.48"/><polygon class="cls-4" points="55.06 129.09 54.91 124.7 55.89 123.76 56.35 124.06 55.37 129.13 55.06 129.09 55.06 129.09"/><polygon class="cls-3" points="47.22 111.15 47.94 116.75 47.31 116.78 47.26 111.12 47.22 111.15 47.22 111.15"/><polygon class="cls-4" points="82.19 87.3 80.2 86.64 78.89 85.78 79.33 85.14 80.97 85.44 82.4 86.69 82.19 87.3 82.19 87.3"/><polygon class="cls-4" points="85.97 55.11 89.9 54.8 90.11 55.23 88.3 56.73 85.97 55.11 85.97 55.11"/><polygon class="cls-5" points="70.2 181.29 74.08 186.54 73.77 186.79 69.77 181.7 70.2 181.29 70.2 181.29"/><polygon class="cls-4" points="80.77 61.43 83.54 59.1 84.36 58.32 84.24 57.87 86.22 58.53 80.73 61.39 80.77 61.43 80.77 61.43"/><polygon class="cls-4" points="63.35 78.96 68.52 76.76 68.66 76.97 66.51 78.38 64.39 79.89 63.35 78.96 63.35 78.96"/><polygon class="cls-4" points="52.02 88.29 49.99 89.75 49.03 89.28 49.4 88.47 51.72 87.77 52.02 88.29 52.02 88.29"/><polygon class="cls-3" points="131.63 99.56 129.06 98.31 130.32 96.72 131.93 99.06 131.63 99.56 131.63 99.56"/><polygon class="cls-4" points="60.06 89.01 64.85 87.47 64.99 87.9 60.3 89.78 60.06 89.01 60.06 89.01"/><polygon class="cls-4" points="164.35 66.87 162.18 69.76 164.01 66.61 164.35 66.87 164.35 66.87"/><polygon class="cls-4" points="78.83 48.62 74.9 50.73 74.57 50.15 78.46 48.02 78.83 48.62 78.83 48.62"/><polygon class="cls-3" points="224.81 257.24 223.55 257.76 222.76 257.19 222.79 255.79 223.98 255.99 224.77 257.29 224.81 257.24 224.81 257.24"/><polygon class="cls-5" points="29.71 241.32 32.54 242.2 29.82 243.8 29.28 242.32 29.71 241.32 29.71 241.32"/><polygon class="cls-4" points="171.4 63.21 170.84 60.05 171.4 63.21 171.4 63.21"/><polygon class="cls-4" points="165.8 60.2 166.02 64.07 165.8 60.2 165.8 60.2"/><polygon class="cls-4" points="172.16 71.47 172.31 70.63 172.82 70.57 173.67 75.51 173.25 75.63 172.13 71.43 172.16 71.47 172.16 71.47"/><polygon points="56.45 253.13 58.23 254.86 56.52 253.07 56.45 253.13 56.45 253.13"/><polygon class="cls-3" points="214.53 252.93 217.99 253.69 214.53 252.93 214.53 252.93"/><polygon class="cls-3" points="102.3 55.02 105.29 55.91 102.3 55.02 102.3 55.02"/><polygon class="cls-3" points="32.76 245.16 32.71 245.14 31.03 248.09 29.46 247.61 31.26 246.68 31.93 244.53 32.76 245.16 32.76 245.16"/><polygon class="cls-3" points="113.17 223.07 111.5 219.78 111.66 219.5 112.72 220.21 113.13 223.03 113.17 223.07 113.17 223.07"/><polygon class="cls-4" points="53.54 133.84 49.91 136.06 53.54 133.84 53.54 133.84"/><polygon class="cls-3" points="219.94 255.09 222.27 254.18 222.61 254.7 221.53 256 219.94 255.09 219.94 255.09"/><polygon class="cls-4" points="144.56 57.2 146.5 55.03 146.92 55.32 145.83 57.62 144.56 57.2 144.56 57.2"/><polygon class="cls-3" points="220.35 258.25 223.23 258.57 220.35 258.25 220.35 258.25"/><polygon class="cls-3" points="122.42 99.17 125.65 98.42 122.42 99.17 122.42 99.17"/><polygon class="cls-4" points="149.51 60.52 148.3 58.31 149.84 60.23 149.51 60.52 149.51 60.52"/><polygon class="cls-15" points="235.19 247.51 235.74 245.18 237.61 247.68 235.19 247.51 235.19 247.51"/><polygon class="cls-3" points="146.85 176.19 146.9 176.26 147.55 175.68 149.9 176.29 147.9 176.69 146.85 176.19 146.85 176.19"/><polygon class="cls-4" points="95.3 57.33 93 58.37 93.55 56.78 95.33 57.36 95.3 57.33 95.3 57.33"/><polygon class="cls-4" points="85.22 76.29 88.41 76.13 88.45 76.76 85.29 76.76 85.22 76.29 85.22 76.29"/><polygon class="cls-3" points="62.17 188.18 64.32 190.63 62.21 188.15 62.17 188.18 62.17 188.18"/><polygon class="cls-3" points="183.2 220.3 188.1 218.88 188.23 219.28 183.41 220.8 183.2 220.3 183.2 220.3"/><polygon class="cls-5" points="41.67 177.81 44.12 178.9 43.94 179.32 41.46 178.31 41.67 177.81 41.67 177.81"/><polygon class="cls-3" points="205.24 249.94 203.27 249.49 203.83 247.65 205.43 249.63 205.24 249.94 205.24 249.94"/><polygon class="cls-5" points="41.68 258 43.47 258.08 43.6 259.08 42.73 258.69 41.68 258 41.68 258"/><polygon class="cls-4" points="122.81 46.75 118.68 46.64 118.74 46.19 122.81 46.75 122.81 46.75"/><polygon class="cls-4" points="160.51 60.15 161.42 62.56 160.67 62.81 159.92 60.34 160.51 60.15 160.51 60.15"/><polygon class="cls-4" points="110.38 55.56 107.99 54.83 110.59 54.85 110.38 55.56 110.38 55.56"/><polygon points="152.18 54.39 150 54.39 149.92 53.93 151.03 53.13 152.16 54.45 152.18 54.39 152.18 54.39"/><polygon class="cls-4" points="63.99 138.8 62.05 140.97 63.99 138.8 63.99 138.8"/><polygon class="cls-4" points="46.6 92 46.3 93.4 44.75 93.56 45.99 91.88 46.6 92 46.6 92"/><polygon class="cls-4" points="64.33 82.41 66.55 81.25 66.82 81.75 64.56 82.91 64.33 82.41 64.33 82.41"/><polygon class="cls-4" points="57.6 115.55 57.72 117.8 57.25 117.88 56.78 115.67 57.6 115.55 57.6 115.55"/><polygon points="42.61 239.02 40.8 237.05 47.1 236.63 48.38 236.54 49.91 236.17 45.49 237.31 43.94 236.79 42.57 239.06 42.61 239.02 42.61 239.02"/><polygon points="42.57 239.06 44.1 242.22 43.69 242.54 40.22 242.53 43.67 241.46 42.61 239.02 42.57 239.06 42.57 239.06"/><polygon points="36.19 239.95 36.01 239.22 37.29 237.33 39.48 238.43 37.03 240.8 36.14 239.9 36.19 239.95 36.19 239.95"/><polygon points="91.92 211.08 88.2 207.47 89.14 206.57 92.75 210.31 91.92 211.08 91.92 211.08"/><polygon points="28.8 229.08 26.98 230.63 28.48 231.72 28.39 231.97 26.91 231.4 26.94 229.29 28.73 228.8 28.8 229.08 28.8 229.08"/><polygon points="27.15 226.67 26.69 221.58 27.12 221.54 27.65 226.63 27.15 226.67 27.15 226.67"/><polygon points="37.1 242.9 39.11 244.42 37.15 242.86 37.1 242.9 37.1 242.9"/><polygon points="38.05 242.09 38.85 239.55 38.01 242.05 38.05 242.09 38.05 242.09"/><polygon points="106.54 223.33 108.96 225.43 108.49 225.89 106.23 223.65 106.54 223.33 106.54 223.33"/><polygon points="33.38 233.86 31.48 233.86 31.98 232.27 33.38 233.86 33.38 233.86"/><polygon points="154.56 98.08 155.44 100.4 156.48 101.19 157.24 100.12 157.16 97.94 157.42 97.19 157.54 94.22 160.49 88.62 160.38 93.58 159.6 98.24 160.04 98.43 165.17 86.83 165.65 86.94 164.56 91.53 164.87 91.65 165.85 89.49 163.31 96.8 164.3 96.52 155.64 104.81 156.03 103.45 155.68 103.25 154.08 105.76 153.98 104.8 152.52 105.09 153.9 101.67 153.95 98.13 154.56 98.08 154.56 98.08"/><polygon points="110.47 91.99 109.06 99.29 108.3 105.72 109.89 104.96 107.7 108.79 107.15 107.65 105.78 106.12 102.57 105.91 99.29 103.84 97.57 102.37 97.75 101.85 101.23 102.53 101.06 104.19 106.1 105.98 102.72 99.12 101.72 95.55 103.83 98.73 107.17 100.89 106.52 101.54 106.75 101.39 107.99 95.28 107.99 93.46 110.47 91.99 110.47 91.99"/><polygon points="75.84 153.75 77.45 154.77 77.45 156.31 79.38 154.75 79.79 153.89 78.73 148.87 79.79 145.16 80.32 145.21 80.89 149.19 81.37 156.12 81.84 163.13 81.01 166.39 80 166.03 79.24 163.81 77.79 159.37 76.03 156.36 75.88 153.7 75.84 153.75 75.84 153.75"/><polygon points="105.14 119.47 102.5 121.69 98.64 126.45 97.92 127.93 95.39 132.41 94.68 133.32 94.19 133.25 94.44 129.53 98.7 121.44 102.37 120.44 105.14 119.47 105.14 119.47"/><polygon points="103.95 165.62 99.06 157.61 95.33 151.28 95.76 148.52 104.49 165.44 103.95 165.62 103.95 165.62"/><polygon points="154.36 93.23 157.73 83.11 158.76 82.14 159.53 81.11 160.08 81.38 158.97 85.57 155.53 91.88 154.36 93.23 154.36 93.23"/><polygon points="142.15 90.35 141.51 90.49 133.61 83.63 142.15 90.35 142.15 90.35"/><polygon points="93.76 118.48 96.99 113.6 97.22 113.41 101.44 111.97 94.29 118.91 93.76 118.48 93.76 118.48"/><polygon points="151.71 113.3 151.47 110.75 156.18 121.03 151.71 113.3 151.71 113.3"/><polygon points="141.38 133.22 139.35 129.54 143.81 125.07 145.1 126.61 142.66 127.77 142.57 127.03 140.53 129.67 141.85 133 141.38 133.22 141.38 133.22"/><polygon points="75.88 153.7 75.41 154.58 71.33 145.42 71.72 145.25 75.84 153.75 75.88 153.7 75.88 153.7"/><polygon points="114.26 112.1 119.92 113.49 120.35 114.42 119.32 114.65 114.26 113.9 114.26 112.1 114.26 112.1"/><polygon points="78.9 144.84 77.96 139.86 78.61 138.64 79.51 139.7 80.02 142.74 78.9 144.84 78.9 144.84"/><polygon points="85.93 130.8 86.28 131.88 87.14 137.06 86.29 138.51 85.37 130.88 85.93 130.8 85.93 130.8"/><polygon points="83.26 116.65 84.63 112.9 83.26 116.65 83.26 116.65"/><polygon points="169.67 79.65 168.21 83.92 167.71 83.76 169.07 79.47 169.67 79.65 169.67 79.65"/><polygon points="87.92 173.6 86.03 169.58 86.41 169.38 88.3 173.32 87.92 173.6 87.92 173.6"/><polygon points="170.78 82.67 169.63 85.8 169.02 85.6 170.13 82.44 170.78 82.67 170.78 82.67"/><polygon points="119.67 275.43 119.5 276.24 119.17 277.83 119.58 277.93 118.61 278.7 117.38 278.84 117.72 278.67 116.97 276.76 115.34 274.44 113.73 270.03 111.84 265.62 112.12 264.36 109.49 255.43 107.07 249.52 104.34 242.57 105.49 238.76 105.98 238.63 107.62 240.92 109.2 243.29 110.5 246.69 112.8 253.93 114.69 259.93 115.84 262.46 117.7 268.62 119.63 272.23 118.7 274.38 119.68 273.85 119.76 275.57 119.67 275.43 119.67 275.43"/><polygon points="59.58 261.07 58.6 259.16 60.95 258.07 63.22 259.21 63.11 259.56 61.15 259.13 59.58 261.07 59.58 261.07"/><polygon points="63.41 243.91 71.17 240.63 71.4 241.18 63.41 243.91 63.41 243.91"/><polygon points="65.09 264.02 62.68 262.29 61.88 260.46 62.38 260.31 62.65 261.51 64.57 262.09 65.35 260.78 65.74 260.86 65.06 264.06 65.09 264.02 65.09 264.02"/><polygon points="49.75 260.07 48.36 259.81 48.32 258.83 49.79 258.04 50.28 259.4 49.75 260.07 49.75 260.07"/><polygon points="120 242 121.1 245.14 120.59 245.31 119.54 242.16 120 242 120 242"/><polygon points="205.27 234.29 204.58 231.43 204.94 231.31 206.04 233.34 207.75 228.93 207.81 233.05 207 235.08 206.72 236.35 205.14 237.68 204.44 235.58 205.27 234.29 205.27 234.29"/><polygon points="207.02 240.24 205.93 240.69 205.11 241.1 206.47 242.35 203.22 242.69 205.69 238.24 205.33 239.75 207.02 240.24 207.02 240.24"/><polygon points="175.67 227.84 177.27 226.97 177.7 226.5 176.55 225.84 175.93 227.3 175.31 224.12 176.76 224.03 178.65 226.72 175.67 227.84 175.67 227.84"/><polygon points="183.07 247.34 181.92 246 180.52 246.82 180.2 243.91 183.07 247.34 183.07 247.34"/><polygon points="180.34 242.82 179.03 241.09 180.3 239.83 181.84 240.81 180.34 242.82 180.34 242.82"/><polygon points="68.4 64.69 68.75 66.38 69.67 66.31 68.44 67.02 66.06 66.29 68.4 64.69 68.4 64.69"/><polygon points="76.75 67.32 74.63 69.78 76.75 67.32 76.75 67.32"/><polygon points="207.28 275.84 203.6 260.23 207.28 275.84 207.28 275.84"/><polygon points="58.8 59.27 61.11 56.68 64.76 51.54 63.26 54.33 63.4 56.42 62.91 57.8 60.59 59.23 58.8 59.27 58.8 59.27"/><polygon points="108.19 52.52 110.63 49.93 109.7 51.7 108.15 52.48 108.19 52.52 108.19 52.52"/><polygon class="cls-5" points="26.28 169.29 28.05 168.71 30.93 169.29 37.97 176.48 41.19 179.34 44.84 181.02 46.45 182.49 44.89 182 46.78 183.54 53.63 187.31 63.43 193.11 74.08 199.35 80.87 203.24 87.2 205.54 89.26 205.15 93.78 208.82 97.82 211.63 102.01 217.05 100.61 216.76 106.23 221.87 111.03 226.24 113.52 230.79 110.42 229.9 111 231.21 101.16 229.25 102.17 227.98 87.16 228.07 86.36 227.6 89.14 226.9 89.02 226.39 84.61 227.2 81.88 227.53 78.31 227.1 77.24 227.11 75.44 227.63 77.82 228.49 80.77 228.5 76.99 229.98 77.72 229.18 76.77 229.53 75.38 230.66 67.02 233.92 59.49 238.88 55.88 240.14 55.71 240.72 53.89 241.84 50.93 242.85 49.7 243.8 49.44 242.81 48.96 242.8 48.98 244.32 48.66 245.2 45.09 246.96 43.91 246.71 44.46 248.03 42.15 247.15 40.39 251.22 40.03 251.1 40.27 249.53 38.73 249.46 37.94 251.23 37.59 249.81 35.04 252.82 34.68 250.39 32.58 251.14 34.98 247.19 34.3 246.39 31.26 249.72 29.56 250.16 30.69 248.32 29.46 247.61 31.26 246.68 31.93 244.53 32.71 245.14 33.98 243.41 33.62 241.67 34.9 240.33 36.14 239.9 33.72 238.91 34.95 236.04 33.63 237.59 30.5 235.66 30.58 234.14 28.66 235.95 27.5 233.17 26.7 234.31 26.23 233.45 26.28 169.29"/></g><ellipse id="_Ellipse_2" data-name="&lt;Ellipse&gt;" class="cls-1" cx="133.93" cy="139.8" rx="105.31" ry="101.76"/></svg>