<svg id="Layer_1" data-name="Layer 1" xmlns="http://www.w3.org/2000/svg" viewBox="0 0 234.62 216.26"><defs><style>.cls-1,.cls-3{fill:#fff;}.cls-1{stroke:#231f20;stroke-width:1.46px;}.cls-1,.cls-2{stroke-miterlimit:10;}.cls-2{fill:none;stroke:#000;stroke-width:6px;}</style></defs><title>iconography-3</title><ellipse class="cls-1" cx="117.31" cy="108.13" rx="116.58" ry="107.4"/><rect class="cls-1" x="38.71" y="33.5" width="149.89" height="119.91" rx="11.98" ry="11.98"/><rect class="cls-1" x="47.27" y="46.02" width="149.89" height="119.91" rx="11.98" ry="11.98"/><rect class="cls-1" x="52.54" y="58.21" width="149.89" height="119.91" rx="11.98" ry="11.98"/><rect x="94.01" y="86.28" width="76.86" height="69.32" rx="29.9" ry="29.9"/><ellipse class="cls-2" cx="132.45" cy="93.46" rx="25.05" ry="21.1"/><path class="cls-3" d="M280.84,283.82a30.18,30.18,0,0,0-1-6.78,8.74,8.74,0,0,0-2.32-4.23,5,5,0,0,0-4.49-1.35c-1.83.45-3.11,2.08-4,3.73a14.52,14.52,0,0,0-1.73,9.38c.47,2.87,1.46,3.16,4.36,3.09-.12,2.1,0,4.26,0,6.37h4.45v-6.62c1.55,0,3.51.47,4.21-.71A6,6,0,0,0,280.84,283.82Z" transform="translate(-139.65 -159.52)"/></svg>