<svg id="Layer_1" data-name="Layer 1" xmlns="http://www.w3.org/2000/svg" viewBox="0 0 316 297"><defs><style>.cls-1,.cls-3{fill:#a8dde3;}.cls-2{fill:#fff;}.cls-3{font-size:33.62px;font-family:Futura-Light, Futura;}</style></defs><title>logo-icon</title><path class="cls-1" d="M45.08,120.91l78.66,12.8,61.13-24.78c14-5.69-75.66-41.63-120.75-19.7S10,116.44,10,116.44Z"/><path class="cls-2" d="M78.33,114l41.58,6,32.31-11.61c7.42-2.66-40-19.5-63.83-9.23s-28.6,12.75-28.6,12.75Z"/><polygon class="cls-1" points="123.75 133.7 123.75 198.23 143.29 198.23 164.33 156.14 174.35 189.71 186.34 154.14 200.91 198.23 227.96 198.23 225.46 105.04 189.38 105.04 175.85 144.62 167.33 116.04 123.75 133.7"/><text class="cls-3" transform="translate(181.37 95.89)">esign</text><text class="cls-3" transform="translate(234.98 198.23)">ania</text><rect class="cls-1" x="29.55" y="127.58" width="7.29" height="7.29"/><rect class="cls-1" x="95.69" y="138.61" width="9.89" height="9.89"/><rect class="cls-1" x="66.13" y="151.63" width="5.76" height="5.76"/><rect class="cls-1" x="69.01" y="176.68" width="6.08" height="6.08"/><rect class="cls-1" x="98.18" y="163.66" width="5.27" height="5.27"/><rect class="cls-1" x="36.84" y="146.12" width="7.13" height="7.13"/><rect class="cls-1" x="63.12" y="120.01" width="11.21" height="11.21"/><rect class="cls-1" x="103.45" y="182.76" width="5.86" height="5.86"/></svg>