<svg id="Layer_1" data-name="Layer 1" xmlns="http://www.w3.org/2000/svg" viewBox="0 0 244.2 212.59"><defs><style>.cls-1,.cls-2{fill:#fff;stroke:#a6dce3;stroke-miterlimit:10;}.cls-1{stroke-width:2px;}.cls-3{fill:#a6dce3;}</style></defs><title>message</title><circle class="cls-1" cx="122.1" cy="110.52" r="79.09"/><path class="cls-2" d="M162.85,141.51l8.42,9a1.22,1.22,0,0,1-1.24,2l-30.26-9a1.22,1.22,0,0,1,.35-2.38H162A1.22,1.22,0,0,1,162.85,141.51Z"/><rect class="cls-1" x="74.17" y="78.68" width="98.16" height="62.44" rx="2" ry="2"/><rect class="cls-3" x="85.57" y="90.07" width="73.64" height="2.41" rx="1.16" ry="1.16"/><rect class="cls-3" x="85.57" y="98.84" width="75.27" height="2.41" rx="1.18" ry="1.18"/><rect class="cls-3" x="85.57" y="106.29" width="63.19" height="2.78" rx="1.16" ry="1.16"/><rect class="cls-3" x="85.57" y="114.62" width="67.5" height="2.02" rx="1.01" ry="1.01"/><rect class="cls-3" x="85.57" y="121.85" width="40.71" height="2.41" rx="0.86" ry="0.86"/></svg>