<svg id="Layer_1" data-name="Layer 1" xmlns="http://www.w3.org/2000/svg" xmlns:xlink="http://www.w3.org/1999/xlink" viewBox="0 0 612 792"><defs><style>.cls-1,.cls-2{fill:#fff;}.cls-1,.cls-22{stroke:#231f20;stroke-miterlimit:10;stroke-width:1.46px;}.cls-3{clip-path:url(#clip-path);}.cls-4{fill:#19b24b;}.cls-5{fill:#6456a5;}.cls-6{fill:#f47a22;}.cls-7{fill:#fbb040;}.cls-8{fill:#e6e7e8;}.cls-9{fill:#c2b59b;}.cls-10{fill:#ee2a7b;}.cls-11{fill:#d1d3d4;}.cls-12{fill:#84c880;}.cls-13{fill:#ec008c;}.cls-14{fill:#726658;}.cls-15{fill:#c49a6c;}.cls-16{fill:#a97c50;}.cls-17{fill:#594a42;}.cls-18{fill:#00aeef;}.cls-19{fill:#8b5e3c;}.cls-20{fill:#3c2415;}.cls-21{fill:#9b8579;}.cls-22{fill:none;}</style><clipPath id="clip-path"><circle id="_Ellipse_" data-name="&lt;Ellipse&gt;" class="cls-1" cx="238.51" cy="302.59" r="110.7"/></clipPath></defs><title>iconography-2</title><circle id="_Ellipse_2" data-name="&lt;Ellipse&gt;" class="cls-2" cx="238.51" cy="302.59" r="110.7"/><g class="cls-3"><path d="M201.9,206.92h14.93l4.61.78,3.82-.13.54.17,6,1.78,1.43.23,8.63,2.13,1.07.4,9.31,4.31,6.34,4.37.26,1.65,3.34,5.28-.47,2.7-.54-1-.41,2,1.63,1.75,3.58,4.31.13.25L266,248l-2.76,3-.35-.24,1-4.6-3.32,1.35v1.76l-1-2.09-1.09.08-2.83-9.8-5.88,5.92.44-1.48-4.76,4.84v-1.27l-2.4,2.1-2.27,1.2-4.38-1.89-5.07-2.7-2.58-1.2-.42,0-2.08-.72-1.16-1-3.78-2.87-1.78.21-.26,3.42,1.71,4.73.87,3.91,1.07,3.16,4,3.48,2.42,3.15-5.95-4.76-1.22,1.57.59,2.12.63.56,3.21,3.1,6.15,4.74.7,1.55-2.07,1-1.1-.16V272l1.52-.11,2.83.1.67-.63.22-3.69-.17-9.73.26-3.68h1.25l.41,1.36.46,8.52-1.26,6,1,1.89,1.64-4.55,0-3-1.17-8.93.25-1.09.67.83,1.85,10.5-2.51,6-.45,1.23,1,.26h1.14l0,.36-3.67.26,3.36,6.23.19.59.63,2.16,1.37,4.22-.33.18-.73-.92-2.4-4.1-2.69-5-1.12-1.7-.33.21.48,1.33-3.49-2.28,0-1.78,1.13,1.19,1.26-.06-.6-1-1.48-.74-3.31,3-4.56,2.71-3.36-.37-6-1.73-1.34-.39,4.33,4.13-1.26-.12-5.06-3.28-4.84-2.22h-3.26l3.86-.51,2.72-.94-1.55-.86v-3.26l-1.72-.37,1.94-1.57,1.39-.48,7.39-3.55.93-1.51-5.25-5-.28-1.19-3.8,2.38-1.28.46-2.84.35-1.08.76-.34-.3,3.27-4.51,3.27-1.45.84-.83.52-1.36,1.88-1.78-2.58-.44,2.22-.81,1.33-1.15.3-1.66,1.27-7.23-.05-1.31-3-1.44-1.11.53-1.23-.15-3.57-1.17-3.53-.62-3.68-.37-5,1.29-1.28,1.4,1.62,5.31,1.21,1.91-.2,1.76-1.65,2.33,1.89-2,.65.84-.38,1.49L190.27,251l-2.44,2.36-1.75,1.55-2.37,8.31-.56,11.26-.37.73-1.6,1.47-2.32-3.84-1.49.69.08-1.55-.12-.8-4.4-8.88-2.47-3.36-2.53-2-10.34-1.63-3.36,2.37L153,263.1l2.72,9.53,3.95,6.06,1.12,1.08,2.06.66-.41-2.06.08-3-4.86-5.68-.32,1.93-1-.45-1.66-3.87L154,262.4l3.08-4,1.59,0,8.49,2.74,1.23,1.09,1.36,3.12.43,1.9L167,272l-3.42.31-.53-2.46,2.64-3.5-1.49-4.09-.72.2-2.72,3.28-1.3-.95,2.61,8.77,3.12,4.72,1.89,2.2,2.81-.67,1.36-1.16-2.86,4-5-.72,5.12,3.54,2-3,1.49-1.06.62.83-2.22,4.49-2.92,4.63-.75,1.05-1-.95-1.46-3-.39,0-.87,3.89-2.85,9.87-2,3.61L157,308.13l-.51,1-.28,2.84L156,313.2l2.27.66L159,316l6,8.88,5.85,6.17,5.66,5.83,2.71,1.34-.86-1.7,2.24.93,2.53,3.27-2-1.46,3.12,1.57-.42,1.57,2.91,1.64,2.29-1.32.72.84,1.87,2.11,1.17-.39-.15-.67.4-.1.52,2.87,5.61,1.75.48-.52-1.22-3.44-1.94-2.73-4-3.81-3.27-3.43L186,331.67l-.29.18.68,1.75L182.14,330l.8-.43-2.11-3.68.58-.45L188,332l.49-.42L182,322.44l.43-.32.86.64,5.66,6.24,4.2,5.51,3.45,4.34,9.67,8.22,6.65,5.64,1.2.88.51-.29-1.72-3.8-.65-1.2L211,343.11l-2.28-8.6-.25-.41-2.07-4.63-1.81-1.65-1-2-3-5.46-2.3-4.56-3.61-7-2.23-3.15-.56-.87-1-6.68.55-2.57,2.59-1.9,3.43-.11h1.88l-.71,1.12-1.48-.36-2.18.09-2.24.78.7,2.74,1.3-.81,2.82,2.17,1.76-.1,3.67-2.12,9.12-.1,0,.11-2.83.47h6.17l.85,0h2.9l1.18-.08,1,.16,2.24-1.49-4.12,3.39-2.49.75-3,.94-.05-.16,1.27-.59H204.66l3.62,3,1.74.28,6.9,2.1,6.89.8,8.09.61,6.67,1.41h0l2.86-5.87,2.47,4.2,2.13,1.36,3,.9,4.32,1.83,1-.59-.93-.7-2.67-1-8.61-5.65-2.45-3-.36-.39L236,297.2l-2-1.36-.46-2.23,1.93.05,2.14,2.44,7.82,6.65,5.9,3.44,5.9,2.64,1,.18,4.4-1.66.16-.64L261,301.19l-2.92-5.61-3.92-7.07-.19.13.71,3-.48.16-.61-1.17-3.6-10-1.16-2.53-.11-.82-.37-2.27-.25-2,2.72-5.21,1.2-1.09,1.55-.89,3.52-2.56,1.46.31,2.57-3.35-1.74-4.86-.27.16.69-2.8-.94.29,1.65-3.78.56-.73.38,0,.53,4.42-.21,2.16.5,5,2.66-1-.25,1.3,3,2.39-.86,2.87-.62-1.34-.76,1.75-1.95,2.06-2.31,2.62.15,2,.25,4,4.64,6.88.15,1.46-1.4,3.75-1.53,1.86-2.66,1.65,5.13,18.47-.65-1.51L262,311.41l.2-1-5.55,1.1.11-1.05-1.69,1.68.58,0-1.35,2.24-.65,2.75-4.12,17.47-.33,1.08-2.39,4.08-2.64,11.46.4-.08v3.8l-.1.84-.63,3.47L239.79,364l-1.13.6-.63.81-3.57.61-2,.2,0-.36,2.14-.37-.05-.42-2.48.21-4.17-.47-2.31-.46-2,0,0-.57H225l-12.37-8.88-.87,1-8-6.59-.59,6.29.09.77-.71,3.56,1,.08.65.4,4.09-1,3.56,1.27,3.42,7.3.17,1.39-1.51,0-1.27,3.09-.19,3.22,1.43,3.59-4.3,1.67-2.69-2.46-1.12.26-.66.83,1.44,2.38.41,2-2.39.22-.3-1.44-.39-2.68-1-.68-.15.27,1.59,3.13-.49-.29-2.53-1.75-1.58-.75-.21.37,6.93,6.25,2.31.8,6.29,5.84,5.12,3.67,1.07,1v1.45l-1.11-.29-1-.45,2.35,3.92.33,5.82,1.22,3.36.4,3.84,1.57,8.32-1.59,8.77-.09,1,1,2.5,1.63-.09.14.27-1.69.81,1.06,4.22-1.72,2.17-.12.42.75,1.25.08-.26,2.26,1-1.2,1.46,2.42.6-1.32,1.25-.34-.93-.79,1.56-.61,2,.42,0v-1.29l3.08-2.57,1.35,2.61-1.68.45,1.69,1.6,1.63,2.44-1.26.57-1.44-1.51-.2.15.29,1.45-.36.12-.9-1.49-.33,3.52.49-1.81,2.46-.54.78,1.2.58,1.13.81,2.46,2-.16.34-1.52,1.1,1.08.29-.18-1.22-2.16.72-.5-.19.4,3.67,2.86-1.81-.32-.82-.21-1.73,1.55,3.42,2-1,2.13,1.41.21,2.59-.45-2.29-1.94-.07.07,2.29.47,1.31-1-.7-2.07,1.41-.81.37.44-1,.56,3.72,2.24-.6-2-1.72-.3.09-.48,3.19.41,0-5.49-.21-.2.8-2.06-1.76.65V452.1H244l.08-.51,3.59.69.12-.18-1-.77.19-.46,1.36.5,1.35.34v2.51l-.68-2.37-.51.13.62,2.74.32,0,.23-.49.44-1,1.24-.09-.51-1.66h-2.54l.23-4.76,0,0,2.1,1.52,1.13.5.21-.33-.51-1.16.21-.15,1.07,1.28,1.85-.18,0,1.25-.75,1.18,2.25.14.13-.34-1-.83,0,0,1.51-1.46.18.77,2.2,1.77-.89-1.17-1.35-.62.88-1.71-1-.89,1.15-1h0l2.36.33,1.37.15.18,1.89-.58,1.07,2.36,3,1.35-.67.31.83.38-2.21-.21-.86-.83.59,1.44-1.73.31.17-.17-1.56.73.13,1.28-2.49,2-2.49,1.05-4.45-1.62.41,2.63-3.35.65-.75.45-.57-1.67-2.21.7-.2-.82-2.81.32-.14,1,1.43.17-.07-1.26-5.53-1.65-1L269,416.75l-3.1-11-3.06-2.25-4-2.7.31-2.14L261,397l2.47-1L262,390.44l-.84-5.49-.5-1.93.38-.15-.21-.18-2.69.47-.12-.6,33.13-6.49-.7-.77,1-.88,3.4,6.86.87,1.93,1.49,1.1,5.26,1.63,15.77,7.31,7.54,3.78,1-.1.29,1.22.27,0,.66-2.39,0,2.19.6,2-5.49,19,.43.14L325,414.9l.29.27-3.47,11.57L322,429l1.42,6-1.05,2.64,1.57,5.23.24,2.42-3.76,7-.17,1.33,0,2.71,2.3.36-1.06,1.75,2.46-.71-.92-4.18,3.67-.19-.86.91.91.27-2.42.76,2.12,2.32,2.11-.7.21-.07.89.56-.49,1.48-1.2.83.16.27,1.06-.27,1.47,1.75.81-2.13.07,5.59.23,14.15H122l0-.71.06-40.91,0-25.05.4-1.64-.41-1.8v-8.41l0-7,1.4-1.55.37-.21-1.21-.2,0-.17,1.88.26v.38l-1.73.41,1.1,2.64,1.82-1.72-.07,1.45,3,1.83,1.26-1.48-1.17,2.73,2.35.88,0,0-1.19.51-1.22,1.28.33,1.72v-.16l-1.16,1.66-.78-.6-.64,2-1.71.88,1.49.45,1.6-2.8-3,4.87,1.62-.41,2.28-2.58.61-.59.65.75-2.28,3.76,2-.71.35,2.31,2.44-3.25L131,404.3l1.83,5.36.76-1.68L135,408l-.23,1.49.34.11,1.67-3.87,2.2.83-.53-1.26,1.12.24,3.4-1.67.3-.83,0-1.45h.46l.25.94,1.17-.9,2.82-1,1.73-1.06.16-.56,3.44-1.2,4.3-3.08,2.85-1.64,7.95-3.1,2.09-1.55.14.14-.7.76,3.59-1.41h-2.8l-2.27-.81,1.71-.5,3.45.5,4.48-.48,3.27-.7.11.48-2.64.67.05.45h14.45v.44l-.87.24-.05.44,10.33,2-1-1.34,3,.85-2.37-4.34-9.91-9,1.33.28-4-5.15-2.1-1.26-6-4.9-2,.37-4.52-1.77-1.5-.42-12.12-6.93-10-6.07-3.75-2.14-6.51-3.59-2-1.22.19-.25,1.49.47-1.53-1.39-3.48-1.6-3.06-2.72-6.7-6.83-2.74-.55-1.69.55,0-2.38v-1.51l1.54-1.67,6.23-1.15.83-.21,4.5-2,1.21-1,3.1-4.09,3.18-1.68,1.37-.69,1.17-1.45-5.24-.34,6.89-.67,1.42-.05,3.51-3.33-1.33.32-2.6.72-4.31-.34-2-.92-.89-2.05.62-1-.3-1.17L134.62,302l-.15-.18.75-.58-3.64-5.71.88-1.79.94-2.05,3.95-.33.09,1.07-1.07-.13-1-.42-.8,1.14-.25,1.08,3.92-1.3,1.93-1.35-.07-3.48-.8-7.51-.47-2.14,0-3.51-1.12,1.44L136,278.53l-1.09.46-.26-1,2.1-9.14.77-6.87-.19-10.6,3-14.49,0-1.6,0-1,2.44-4.47,1.82-2,1.2-1.1.87-1.24,10.6-8.55,10.63-4.44,4-1.13,4.73-1.71,5.88-1.08,6-1.63h2.34l-2,.84.05.21h4.25l-.24-1h5l-2.36.71,3.35,1.25,3.1-2Zm5.84,247.94h0l1.43-1.49-1.32-.71.82-1-.07.1,2.95.35.59-1.36,1.54,1.09,0,0,1.79,1.36-.21.3-.74-.21-.43,2.21.44.53-1.42-.28,1.16,1.65,1-.19-.37-.91,1,.11-.42-2.18,2.64-.89-.6,2.38,1.87-2.24-1.1-3.6-.61-3.93-1.14-.47.06-.28L218,445l-1.17-1.38.25-2.13-.63-3.7-.09-2.34.06-.66-.75-4.29,2,2.13.77-3.76,1-4.08.25-1.25.09-3.06v-2.87h-.28l.89-1.12-.79-.93,0-3.05,0-6-2-6.61-.08-.12-1.66-2.35-5.94.17.57,2.25L210,400l-.95-1.94-1.06-1.37L201,394.49l-1.73-.29.07-.36,8.51,1.55-1.16-1.11-5.27-.93-5-.87.07-.48,5.42.56L202,392l-7.38-1.5-5.89-.43-3.92.18-5.23,1.57-.35,0v-1.69l-7.69,2.33,3.34,1.45,3.78-1.67.17.43L173,395.59l-1.89-1.68-5.77,1.37L161.56,398l-6.65,4.29.88,1-.14.17L154.3,403l-.09,1.24-4.11,1.88,2.21-3,1.16-.68,1.18-2.15-3.58,2.13-.37-.29-3,1.94,1.32.21-.21.69,1.39,1.15-.67.76-2.06-.31-2.32,1.75-.56-.31-3.11,2.3,3.68.13,0-1.77,1.87.28,2.47-2.16,1.16.13,1.4-.46.14.27-5.65,4L148,412l2.38-.6.07-.06.89,3.23-2.56,1.19.43,2.5-2,.77.82-3.42-.33-1.85-1.94,0-.38-.79,1-.16.95-.3-3.73.31-2.47,1.62-.39-.41,1.57-2.07-6.69,2.3.07.47,1,.22,3.51.77.42,1.5-.39,1.2v.09l.29.92,1.28.37,2.11,1.4-.91,1.43-.87-1.79-1.34,1.78h2.2l2.88-.56-1.1-.6-.88-.26.2-.68,2-.2,1.28.74-1.08.69,2.35,1.48,1.17,1.77-1,2.13-1.44.42-2-.87-.19,2.25.25.65-1.12-2-.46,2.77.75.48-1.71,1.24.15.34,2.24-.2,1.61-1.14-2.31-.24,1-1.2,1,.83,1.75-1.65,2.56-.56-1.34-.84.67-1.58-.5-.74.77-.73.54.91.23,1.69,3.53,1-.61,1.12L155,431l-1.18.79-.44.95,1.11.62.71-1L155,431l-.75-.41,1.84-.55,2.26,2.7,1.86-.74.28.35-1.36,2.23-.16.22.16,1-.58,1.66-2.56.42-1.8,3,1.63-2.37,2.66.82,2.15-1.09,0,0,1.19,1.09,2.63-1.15.27.48-1.4,1,4.68,2-2.59.52,2.17,1,.79-1,1.92,2.27.47-2.47.26-.12.89,2.51.47-1.43,1.27,2.89.13.56,1.09-.76,1.25.2-.11,1.52,1.39,1,.83,0,2.46,3.19.84-2.53-1.55-2v1.51l-1.75-.32,1.78-2.31-2.45-2.44,5.47-.75.74.85-2,1.22,2.88,1,.08-.22-.69-.7.62.06.24-1.69.26-3.62-4-2.45-.48-.58H183l.19-.29-1.17-.71-.37-2.23-.92-2h2.41l.3-2.15-2.52.12.47-3.1-2.62-1.63,1.13-1.23-3.45-4.39,1.43-.3-1.32-.29,1.5-.28-2.53-4.36.52-.36,1.11,1.09,4.45,7.42,1.09,1.14,1.46-1.09.35-.25,4.87,10.58.41,0,2.11-1.75.36,1.46L191,435l1.36-1.19.66,2.24,1.07,1.56.6,1.68.12,1.22,1,1.64,1.06,1.49,2.14-.39.43-.23-.15,1.21.67-.08.81,2.13.45-.16-.28-.87.39-1.61,1.15,1.1,1,2.76-2.15-.9,1.21,2,1.47-.36.12.34-1.6.7-.76.94-.12,2.6,1.47-1.05,1.08.89,0-.09h.92l.36.8,1.3.82-1.29,2.12-.5-.44,2.08.86.57,1.19-4.77-1.47-.17.54,4.12,1.63v4.63l.46,0-.43-4.6.82-.56-.15,3,.45.21,1.11-1.52h.9l.9-1.23,0-1.19.08-1-1.21.39-.61.76v-2.21l-1.45-.47ZM152.28,440.6l.32-.65-1.72-.54-.74.47.55.38h-.08l1.71.35Zm34.34,4.5,2.34-.4-1.43-.89-1.22.08.34,1.18.06.48-1.06.65,3.29.26.14-.3-2.47-1.05Zm-37.52-11.46,2.1-2.26-.17-.31-2.18.85.3,1.75-1.38-.1.91-1.77-.58-.4-1.93,1.72.3.35,1.57-.56-.22.67.87.9,2.9,0,.08-.36-2.57-.52Zm87.26-95.45,1,.48,1.9-.38-2.23-.57-.62.55-7.53-1.78.33.41,3.78,1.23,3.37.07Zm-94.71-61.88,0,5.38.59,0-.68-5.33.72-1.89-1.17-3.61-.36,4.51.85,1Zm168.81,139-.75-1.24-1.14-.19,0,1.33.75.54,1.2-.5,2.23,3.45.25-.94-1.51-2.27-1-.2Zm-50-176.7L259,235.34l-.47.19,1.88,8,0-4.93,1.06,4,.4-.11-.8-4.7-.49.06-.14.8Zm59.18,195.16-2.18,4.89,3.42-1.77-1.29-3.11.15-.89h-.36l.25.89ZM147.47,284.34l-.61,1.94-.35,1.75.69,1.5,1-1.62-1.05-.42,2.58-1-.68-2.68-1.57.54-.59-2.86-.08-3.57-1.47-.66,0,4.47,2.21,2.57Zm57.67,87.27,1.64,3.22,1.18-1.47-1.72-2.13-1.14.43-5.68-6.27.61,2.31,4.7,3.81.41.1Zm-39.38,74.27-.09.09v-.13l1.11-.91-1.22-1.07-2-2.4-1.43.7.63-1.63-.25-.35-1.65,1.05,1.31,1.4,1,.59-1.44,1,4,1.64ZM276.25,435.7l-2.53,3.53,1.76-1.35.89-2.11,1.25.43-.18-1.81.5.42v-1.54l1.65-3.55-2.5,1.2-1,3.77.16,1ZM187.34,225.16l1.1-1.84,1.41-2.31,3-4.57-.47-.39-1.74,1.51-3,3.05-.48,1,.23,3.55-1.68-.55-.52,1.51,2.18-1Zm120,222.18,0-1-1.82-.81.21,1.35h-3.21l.64-.76-2-1.31-2.91-13.12-.73.92-.41-.06v-3.38l-.37-3.91-.8-3.12-1.56-5.3-2.95-6-1.31.9-1.42,1.63-.1,4.4.64,9.69,1.93.9-.88,1.89,1.16,5.51.91,3.4.32.3.17-1,.17.23-.21,1.8.45.1.8-1.48.13.88.15,2.27,2,.26.74-1.45,0-.53,1.24,1.19-2.4,1.39-.38,1.8,1.87,3.33.37.42.19-3.29,1.38,4.21L299,454l2-2.75.51.17-.15,2.07h1.59l-.75-1.19,1.41-1.21,2.2-.36.32-.71,2.4,1.74V450.3l2.19,1.55-.87.18,0,.39,1.16,0,.49-2.3-.82-2.11.3.3,1.31,1,.88-1.61,1-1.42-1.84-.31.77-1.08-.46.12-.88-1.71.46-.21.41.92,2-1.86-.25,1.07,1.63-2.7-1.44,1.7-.39-1.34.89-.45-4.74-1.66-4.59-.88-3.3-3.08,1.55,4.79.81.38,2.87,3.68,0,.14,1.45,2.65,1.42,1.5-3.16-.57ZM241.41,222.42l-1.2-3.34-2,1.05-1.92.69-3.07-1.76v.56l.43.54,7.06,3.44,1.31-.09-.63-1.16,0,.05Zm-41.81-1.84,0,0,1.26.69,3.67.78,1.11.64,1.47-.18-.51-1.33-2-1.6,2.85-.57,2.37-.84-.07-.51L208.3,217l-1.66-.32-3.53,1-.39.17-1.54-.86-7.86,2.55,4.72.84,1.56.15ZM316.29,447l.66,2.8,1,1.78,3.6-4.31-.1-8.1-.61,1.2-1.26-.43-.57,1.35-3.27,3.38.23.63.37,1.74-1-1.64-1.47,2.35,1.82.38.59-1.13Zm-4.85-42,1.5.55,2,4,1.07,1-.19-2.25L311.43,405l.36-1.34,2.49-.81,4.86.25-4.36-4.15-2.83.29-2,2.71-.85-1.08-2-3.53-7.73-1.65,6.76,5-1.42-.44-7.48,3.31.11.14,1.11-.83-.25,1,3.3-3.39,1.43.64,2.29.71,4.3,2.07,2,1.06Zm.44,32.18h.76l2.72,2.09v-3.53l1.88-4.49,2-4.73-1.32-.2.55-2.59,2.13-2.7,1.13-3.87,4-14.92.42-3.38-1.38.44-2.85-1.36-8.06-4.45L311,392l-.52-1-1.62.09-.25-.14L306,389.64l-8.91-4-.21,1.25-1.14-1.36-.19.27-1.43-.83-3.52,6.56-.74,2.54-1.37,4.09L286,408.49l-.77,6.07.45-1.64,2.6-4.09.74-1,1.25-2.54.06-2.84,1.31-.29.65.6-.91,1-.93.2,1.78,3.46,2.5,2.63.25-.61,1.18-5.78,3.53-4.6,4.06-.46-1.24-.89-4-.13-2.34.2-.94-1.95,2.31-1.49,2,.3,3,0,4.4,1.54,3,3.36,1.9-1.25,8,3.9,1.54,1.35,1.78,2.61-1.46,2.37-1.88-.85-.14-2.32-.49-.85-3.64-.55.82,2.13,2.52,4.84,0,.65-.25,2.73-.11,1.05-.94,3,1.37,2.48-.45,3-.83-.55L316,424.58l-.15,2.71-.26,1.16-1.46-1.14-1.38-1.89-.47-3.19-.45.58-4.14,2.53L297.27,422l4.21,11.17.53.42,9.86,3.56ZM173.52,229.06l-2.87.75,4.51-3.57-.33-.47-11.55,5.8-.81-.44,1.67-2.38,2.38-1.61-1.55.4,4-3.94-1.69,1.1-6.18,3.7L158.38,231l-2.32,1.6-4.72,4.24-3.11,2.45-1.29.47-1.09.44,0,.38,1.45.31-.65,3.33,1.32-1.48,2.6-3.11,1-1,1.63-2.7,1.4,1.51.39,3.71-1.42,1.17-1.43.57-4.26,3.75-3.1,2.75.29.31,5.05-2.64-.19-.3-.86-.08-.09-.46,10.13-2.6,9-5L167.09,240l3.64,0,.76-.2,1.87-.08-1-1.39.84-.47,7.73,1.14.08-.5-4.65-.62-.29-1-2.64.2,2.07-1.78-3.15.19-2.92.91,3.27-3.84-8,.71-.11-.14,3.32-1.56,2.39-1.07,3.19-1.39,5.23-2.72-1.89-.63.12.43-.78.74-2.64,2.22Zm-17.64,120.5,2,2.36-2-2.33-.18-1.66-3.39-3.47.3-.44,13.38,9.5,1.22-1.74-2-2.67-3-3.94-1.07-1.55-1.67-1.74-2.54-4.27-4-5.82-.23-.63-.7-1.69-4.52-9.26-2-3.89-3.56,3-3.76,3.05-5.53,3.46-5.2,1.06-1.54.44.28,1.25,4.85,3.95.68,0,2.67,1,6,5.06,9.45,7.61,6.18,3.35ZM147,315.66l2.34,5.8,3,5.94,2.26,2.12,5.76,8.13,2.44-.23,2.92,3.42,1.36,2,5.32,6.28,7.15,11.25,1.8,2.5,5.76,4.1.53,1.65,4.42,3,2.39-.57,1.17-3.25,1.57-5.43.76-4-.84-2.76-.3-.45-3.23-3.53L191.18,350l-8.9-6.54-.62-.37L175.9,339l-13.8-14.82-4-4.52-4.57-7.56L147,315.66Zm55.71-4.77-.44.38,8.63,18.23-.7.32-11.54-23.18-.68.29-6.08-10-.5.09.54,3.66,1.73,2.36,1.79,4.39,4.2,7.94,7.46,13.33,3.55,6.9,2,4.34.34,1.19,1,5.44,1.73,7.78,1.62,2.67,4.7,2.81,5.61,2.93,3.65-.59,5.78-.34,1.37-1.72,3-3.13.47-2.08.45-6.32,3-10.3,0-4.89-.73,4.39-.34-.08.16-1.39-1.42,4.14-8.5,5.73.45-.84-3.38-1.8-.12.16,3.19,3.66-.21.21-6.43-6.29-.2,1.52-8.72-9.29.1,1.58-.36.11-.92-1.87L214.38,328l-1-1.79-4.06-5.91L204,312.13l-1.31-1.24ZM271,381.17l-2.65.47-5.64,1.27L262,384l1.73,5.74,2.92.92-2.58.4.66,2.3.34.07.77-1.45,1.48.48.39,2.73,1-.25.32,1.93-2.14.28-.94-3.63-.9,1.5,3,12.75,1.13,3.57.39-.13-.52-1.71.59.31,2.81,10.9,1.17,1.35.73,4.17.89.25.55-2.7.28-1.89,1.18-3.57-.25-2.11,1.2-.62.19,1-.35,3.63-1,4.87v2.45l2.25-.59,2.05-1.79,1.51-8.11.81-5-.2-.9-.5,0-1.29.33-1.81.18-3.4-1-.86-1.1-2-1.76-2-4.82-.93-10.43,1.63-4.74-1.3-6.63Zm-59-69.8,2.15-1,3.93.61,1.14,1.07,2,1.3,1,.32,2.86.63,1.4.19,1.21-.55.83,1.34,3.47.29,2.18-1.68,1.38,2.64,1.09-.08L242,318l1.07-.42,2.88,0,1.11,1.86.37,1.75H248l1.53-6.54-2.38-1.14-6.64-1.21-.82-.17-6.24-1.88-4.74-.19-4.29,0-10.28-2.22-4.11-1.26-2.19-.13-.49.84.69,1.7-1.08.22,2.54,1.11,2.52,1.14ZM174.26,214l-.2-.39-5.72,2.22-3.7,1.7-3,.44-.95.15-2.26.36-4,1.88-3,2.42-2.92,4.38-.65-1-2.05,3-1.55.24.36,1.68-1.38.11V234l.44-.3,2.33.83,3.37-4.34.45.81L148.55,233l-2.09,2.11-.93.61-4,6.2,3.37-.43-.14-2.2,5.44-4.65,3.93-4.32,1.29-1.17,1.5-1,2.47-2.14.21,1.22,5.95-5.1-.3-.38-1.63.32-1.11-.66.77-.77,1.45-.87,6.42-4.25,3.08-1.53ZM291.45,385.69l-.2-1.79-1-4.73L288,377.78h-4.71l-1.76.57-.82.21-1.13-.08-1.08.79-6.37,1.8,1,.7,2.1,3,4.4,1.68,1.24-2.17L280.7,381l.74-1.07.9.51,2.49,5.83.68,1.07,3.75,2.61.7-3.61,1.49-.63Zm-37-102.6.1.07,0,.13-.79,1.18,2,2.83,2.55-.31,2.71.69-2.18.75-1,1.77,1.89.46,2.27-1.28,1.87-2.11V284l-2.65-4.93-1.15-1.27-1.4,1.31-2.82,2.19-2.52.93-.64,1.33,1.75-.45Zm-44.93,78.75,1.41,5.88-.31,1.63-2.83,5.59-.42.38-3.21,1.9-3.18.9.11.36,4.71-.73,3.91-2.63,3.41-6.73-.3-3.24-2.17-4-2-.7-6.75,1.6-.76.59-.86,1.37,9.22-2.19ZM310,407l-2.28,1.67-.66-3.19.6-.35-3.1-1.74-.14.22,1.05,1.55-2.39,2.16L301.57,404l2.08-1.21-.08-.36-2.13-.12-.43,1.62,3.43,6.06,7.45-3.51-1.91-.9-.24.36.3,1Zm-10.56,14.2-.28-.33,3.11-2.72-1.53-1.61-3.61.12.95,2.67-1.13-.46,5.51,4.62,3.09-2.59-2.75-2.4-3.35,2.72ZM233.26,223.06l.39-.44-2-1.69-1.54-2,.44-1.24-.1-1.26-2.56-.61-2,0-2.07-1-2.56.69-2.24.4-3.47.21,1.42.35,3,1.53,2-1.55,2.39,1.39.74-1.72,3.41,1.37,1,1.35-4.18-.66,4,2.66.56.86,2,1.58.56-.93.81.67ZM205.85,375.65l-7.57-7.4,1.82,8.54,5.75-1.13Zm67.07,14-.58-.09-1,2.57.57,8.81.25.08.59-1,1.64.44-1.51-10.78Zm-70.21-23.9,6.44,5.13.15-6.84-.88-.41-5.71,2.12ZM217,244.92l-2.88,6.19-.4,1.53,1.63.3,3.68,3.19-2-11.22Zm10.34-33.7,1.51,1.65.13,1.19,6.9,2.63,3.35-1.24-4.54-1.19-1.39-1.09-6-1.95Zm2.48,112.73,1.64-7.65-.86-.65-1.91,2.57-.87-.76-.55,6.71,2.55-.22ZM147,263.39l4.59-4.6.09-1.77-4.14,3.26,2.54-3.86-.25-.33-.93.18-3.6,2.93-1.6-.32.59,1.61,1.49-.43.15,2h.38l-.79,1.06,1.48.29Zm86.17,62.21.72-10.51-1.42,2.63-.76,5.4,1.46,2.49Zm5.64-5.59-1.17-1.26-1.88.74-1.09,5.81,1.38,1.27,1.16-.56,1.6-6Zm-12.44,3.68.75-6.92-.7-1.49-1.6,1.15-1.49,5.87,3,1.39Zm-7.08-2.17-.75,2.74.94,4.24,1.22.11,1.24-4.44-2.65-2.65Zm.07-6.15-.33-2.07-2-.89-.9,1.8.31,4.34,1.53,1.13,1-.69.45-3.62Zm5.51-43.54-4.42-3.66-1.55-.8v4.76l6-.31Zm78.79,151.8.31.5,2.82,0,4.08-2.83-.16-.72L308.24,419l-2.1,2.59-2.52,2.07ZM229.54,270.24l-2.1-.59L225,267.1l-.92,0,.3.93,2.21,3-1.08,1.71-1.7.55,4.69.19,1-3.3Zm-6.88,46.86,0-1.35-.46-1.26-1.41.57-.5,1-.72,2.86.82,1.77,1.06.41,1.24-.63.68-3.3-.13-.26-.63.25Zm21.29,5L243,327l1.16,1.2,1.21-1.89,0-2.6-.77-5.12-2,3.59,1.43-.08Zm-33.13-96.48-3.89,1.46,6.73,2,.46-.42L212.78,226l.9-1-3-1,.13,1.52Zm85.62,184,3.79.21,1.19-1.84-1.71-4.1-1.29,2.68-.55.73-1.42,2.32ZM223.24,325l-1.65,4.65.58,1.3,2,1.17,1-4.38-2-2.74ZM195.31,210.35l0-.68-2.07-.06-3.71.88-8.11.81,1.07.77,5.31.1,4.77-1.32.91,1,.18-1.46Zm113,201.35,4.2,3.33.27-3.36-.43-3.08-4,3.11ZM213.6,312.32l-1.44,2.9,2.92,2.64-.73-5,.7-1.27-.23-.35-1.48.35.26.77Zm13.1,13.82-1.19,5.07.81,1.85,1.78-1.57.31-2.2-1.71-3.14Zm35.69,71.26-2.18,3.11,3.67,1-.27-4.13-1.69,1.15-.19-.2.65-1ZM232.93,329l-2.57,1-.76,3.3.45,1.65,1.3-1.15,1.58-4.85Zm26.15-54.64-2.27-1.74L254,273l.63,3.81,4.46-2.5ZM234.6,335l1.63-4.49-2-2.05-1,5.77,1.38.77Zm48.56,90.54,1.56-2.53.52-8.18-2.08,10.71ZM141.89,297.3l4.74-1.31.56-1v-2.42l-.76-2.11-.88,2-.18,1.33-1.82,1.46-1.65,2.11Zm55.61,71.51-.45-.19-1.64,4.63,2.7,2.17-.61-6.62Zm42.93-31.95,1.61-.73,1.72-4.61-2.3.29-1,5Zm-2.93-7.34L236.09,335l.13.7.85,0,1.55-2.61-1.11-3.53Zm-62.93,61.22L163.77,394l.2.55,10.61-3.82Zm37.75-91.82,0-.42-4.44.26-4.43-1.09-.93,1,9.83.23ZM223,221.26l1,3.41,2.14-.2.68-.7-2.49-2.17-1.32-.35Zm38.08,43.55L255.83,270l1.82-.78,2.2,1,1.19-5.43Zm54.76,154.54.73-4.24-1.62-3.57v8.22l.89-.41ZM294.05,383l-3.31-4.42,1.63,5.31,1.69-.89Zm19.81,8.62-.26.31L320,396l.51.19,2.06.44,1.61.75.25-.49-10.6-5.26ZM199.23,211.46l-.28-.32-4.07,5.15,2.32-3.3,2-1.54Zm17.91,113.76.58-3.23-1.57-.95-.86.38,1.85,3.8ZM151,289l2.47-2,.2-1.54-2.2-1.73L151,289Zm49.23-65,0,.26,4.66,2.19,1.36-.37-.21-1.28-1.74-.41-2.64-.25-1.39-.13ZM303.6,417.95l1.21,1.28,1.13,1.21,1.6-1.84-3.94-.66ZM264,239.28l.3-.23-4.88-5.41,4.58,5.63ZM239.84,328l.72-9.41-.72,9.41Zm-64-97.92,6.19-4.7-5.88,3.3-.31,1.4Zm39.05,166.66-6.64-2.12,6.64,2.12ZM172.76,221.09l-.12-.49-.76-.23-3.76,2-1.73.51-1.15,1.8,7.52-3.58Zm132,195.11-4-1.42,4,1.42ZM140.28,302.58l8-3.61-8,3.61Zm1.12,38.11-.34.34,6.54,5.47.37-.42-6.57-5.39Zm3.7-79.42-3.66,1-1.3,1,.58,1,1.4-.9,1.57-.72,1.4-1.38Zm38-24.37-5.76-1.73,1.9,1.73Zm27.75,138-1.07,3.33,2.57.35-1.5-3.68Zm35.3-154.23-4.89-3.17,4.89,3.17Zm-57.48,4.55,1.63.43,2-.5.05-.6-2-.27,1.39-2.72-.37-.2-2.71,3.86Zm108,190.67,2.7-1.39-2.5-1.77-.2,3.16ZM177.19,233.77l.91-1.17.09-1.14-1,.22-4.56,2,4.32-1,.26,1.09ZM312.42,451.53l3.65,1.9.94-.84-.26-.27-1.18.64-1.91-2.91-1.23,1.48Zm0-31.82-3.67-1.54,3.67,1.54Zm8.89,9.85,1.18,5.9-1.18-5.9Zm-32.44-38.79L286,388.91l1.89,4.52.94-2.66Zm12.81,22.61-3.49-1.29,3.49,1.29ZM183.83,233.9l.12-.49-4.58-1.31,4.46,1.8Zm66.41-14.29-1.16-2.14-1.94-.06,3.1,2.2ZM211.06,315l-.44-3.95.44,3.95Zm-68.71-57.35-.39.82-.38-4,.77,3.15Zm4.06,181,2.47-.16-1.21-.75-1-.24-2.08-.17,1.77,1.32Zm152.23-43.37-.48-.48-1.93,1,.11,1.16,1.33.19,1-1.82Zm7.88,19.43-3-1.18,3,1.18Zm-36.79,30.71,1.3,2.89,1.37,1.69,1.65-.85-4.32-3.73Zm33.62,9.8.38.43,2.07-.92,3.46-1.83-3.89.42-2,1.89ZM217,222.46l.25-.58-5.07-1.64,4.81,2.22Zm-68,70.95.29,0,.93-4.83-.43-.28-.94.9.15,4.17Zm25.8-39.73.2-.58-1.37-1.2-1.55-.28-.42.6L173,253l1.89.63Zm3.6-30.61,2.21,1.54,1.72-1.42-.2-.41-3.73.29Zm94.82,219.4-.38,2.1-.1,1,2.56-3.06ZM163.47,343l-.4.39,3.8,4.84.29-.24-3.69-5Zm21,107.05,2.35,2.59,1.6-1.77-4-.82ZM157,245.73l1,.88,2-1.44,2-1.34-.13-.2L157,245.73Zm-10.78,8.88-.29-.5-2.21.67-.35.77.91.45,1.93-1.39Zm75.71,10.72.28-.48-1.53-2.23-1.2,1.52,2.45,1.19Zm69.26,176.34-1.63-5.87,1.63,5.87ZM150,430.54l1.29,0,1-.75-1-1.29-.76,1-.53,1.06Zm3.82-175.25.24.73,4.45-1.78-.13-.42-4.56,1.47ZM253,234.24l-.33-.25-1.74,3,2.07-2.74Zm-81.33-17.36-.35-.57-3.71,2,.32.56,3.73-2ZM125,400.13l-.41,1,.51,1.41,2.58-1.51-2.69-.84ZM259.71,230.76l-.53-3,.53,3Zm-5.33-2.87.22,3.68-.22-3.68ZM143.17,423.55l0-.29-4.45-.3,0,.58Zm157.55-12.38,3.29.73-3.29-.73ZM302,457.35l1.21-.9-.14-.16-.8.18L300,453.8l1.57,1.4.51,2.15ZM194,223l2.84.84L194,223Zm48.43,244-.05.45,1.13.31-.42.33,1,1.4-.3-2.33-1.31-.17ZM219,459.3l-1.9,1.43.26.91.75-.49.89-1.85ZM147.63,297.93,144.18,300l3.45-2.11ZM305.87,413.23l1.52.86,1-1.24-.32-.49-2.22.87ZM234.19,225l1.2.4,1-2.18L236,223,234.19,225ZM196.11,446.12l1.57-1,.17.26-.38.32.18.3,1.67-.67-.2-.5-3,1.25Zm79.32,1.35-1.4-2.81.15,2.13,1.25.69Zm30.84-31.23,2.74.3-2.74-.3Zm-62.49,49.91,1,1h1.61l-2.57-1ZM213.14,265l3.07-.71-3.07.71ZM238.9,228.2l.31-.28-1.46-1.82,1.15,2.11ZM320.37,406l2.31.17-1.78-2.38-.53,2.21ZM156.53,445.63l.44,0-.44-3.34v3.39Zm53.4,6.07v2.77l1.69-.75-1.69-2ZM177.76,243.2l.07.44h3l0-.6-3,.16Zm-7.59,207.74.41,0,.24-3.43-.65,0v3.49Zm100.76-70.79.2.47,4.59-1.44-.12-.39-4.66,1.35Zm-47.64,42.77.61-.1-.45-3.37-.4.05.24,3.42Zm-86.95-83.18-.2.48,2.36,1,.17-.41-2.33-1Zm72.39,121.52-.21.44.95.74.8.55.92-.8-.23-.28-.66.28-1.58-.93Zm51.12-13.84-1.62-1.21-.28.21,1.68,2.72.22-1.71Zm32-39.09.18-.29-1.52-1.88L290,407.9l1.87.43ZM136.36,416l1,.65.82.37-.12-.95-1.7-.08ZM213.5,215.1l-3.86-.54-.06.43,3.92.1ZM318.79,456.17l.62,2.66,1.49-1.78-2.11-.89Zm-5.49-6.6,2.71-.49-2.65-.29-.06.78Zm-123.82,6.28h-2.07l2.07,1.58v-1.58ZM313.91,411.3v0ZM249.36,227.85l-.56.17.72,2.35.71-.23-.87-2.29Zm16.93,17.08v0Zm-64.6-21.45.19-.67-2.47,0,2.27.69Zm49.88,233.09.32-2.62-.32,2.62Zm-17.31,13.9-.13-1.37-.36.32-1.62-1.32,2.12,2.37Zm-76.7-167.83-1.84,2.07,1.84-2.07ZM141,258.14l-.58-.12-1.18,1.6,1.48-.16.29-1.33ZM157.89,249l.22.47,2.15-1.1-.25-.47-2.12,1.1Zm-4.18,189.86.93-1.93-.19-.2-1.77,1.49,1,.64Zm-2.22-158.34-.78.11.45,2.11.45-.08-.12-2.14ZM255.07,453.4l-.23-.13-.39.63.24.13.38-.63ZM150.21,438.83h.08l0-.08,0,.07Z"/><path class="cls-2" d="M223.72,443.71l1.72-2.17-1.06-4.22,1.69-.81-.14-.27-1.63.09-1-2.5.09-1L225,424l-1.57-8.32-.4-3.84-1.22-3.36-.33-5.82-2.35-3.92,1,.45,1.11.29v-1.45l-1.07-1-5.12-3.67-6.29-5.84-2.31-.8-6.93-6.25.21-.37,1.58.75,2.53,1.75.49.29,0,0,.29,1.43,2.39-.22-.41-2-1.44-2.38.66-.83,1.12-.26,2.69,2.46,4.3-1.67-1.43-3.59.19-3.22,1.27-3.09,1.51,0-.17-1.39-3.42-7.3-3.56-1.27-4.09,1-.65-.4-1-.08.71-3.56-.09-.77.59-6.29,8,6.59.87-1L225,363.92h-1.46l0,.57,2,0,2.31.46,4.17.47,2.48-.21.05.42-2.14.37,0,.36,2-.2,3.57-.61.63-.81,1.13-.6,4.07-4.75.63-3.47.1-.84v-3.8l-.4.08,2.64-11.46,2.39-4.08.33-1.08,4.12-17.47.65-2.75,1.35-2.24-.58,0,1.69-1.68-.11,1.05,5.55-1.1-.2,1,3.17-2.14.65,1.51-5.13-18.47,2.66-1.65,1.53-1.86,1.4-3.75-.15-1.46-4.64-6.88-.25-4-.15-2,2.31-2.62,1.95-2.06.76-1.75.62,1.34.86-2.87-3-2.39.25-1.3-2.66,1-.5-5L262,253l-.53-4.42-.38,0-.56.73,0,0V247.6l3.32-1.35-1,4.6.35.24,2.76-3,.13-10-.13-.25-3.58-4.31-1.63-1.75.41-2,.54,1,.47-2.7-3.34-5.28-.26-1.65-6.34-4.37L243,212.39l-1.07-.4-8.63-2.13-1.43-.23-6-1.78-.54-.17-3.82.13-4.61-.78H332.15V477.88l-.28,1.28L331.62,465l-.07-5.59-.81,2.13-1.47-1.75-1.06.27-.16-.27,1.2-.83.49-1.48-.89-.56-.35-2.38.14,2.45-2.11.7-2.12-2.32,2.42-.76-.91-.27.86-.91-3.67.19.92,4.18-2.46.71,1.06-1.75-2.3-.36,0-2.71.17-1.33,3.76-7-.24-2.42-1.57-5.23,1.05-2.64-1.42-6-.23-2.24,3.47-11.57L325,415l-1.33,4.16-.43-.14,5.49-19-.6-2,0-2.19-.66,2.39-.27,0-.29-1.22-1,.1-7.54-3.78L302.51,386l-5.26-1.63-1.49-1.1-.87-1.93-3.4-6.86-1,.88.7.77L258,382.66l.12.6,2.69-.47.21.18-.38.15.5,1.93.84,5.49,1.43,5.53-2.47,1-1.84,1.66-.31,2.14,4,2.7,3.06,2.25,3.1,11,1.08,5.39,1.65,1,1.26,5.53-.17.07-1-1.43-.32.14.82,2.81-.7.2,1.67,2.21-.45.57-.65.75-2.63,3.35,1.62-.41-1.05,4.45-2,2.49-1.28,2.49-.73-.13.17,1.56-.31-.17-1.44,1.72-.26.65-2.09-1.17.11-.23,1,.12.15-.41-1.75-.7-.18-1.89-1.37-.15-2.36-.33.47-1.93-1.84.14,1.37,1.78-1.15,1,1,.89-.88,1.71,0,0-.17-.77-1.51,1.46-1.24-4.1.63,2.65-1.85.18-1.07-1.28-.21.15.51,1.16-.21.33-1.13-.5-2.1-1.51-1.17-2-.49.21v.88l.76,1.53.94-.7-.23,4.75,0,0L247,451l-.19.46,1,.77-.12.18-3.59-.69-.08.51h1.89v1.75l1.76-.65-.8,2.06-4.32-.7L241.8,456l1.84-.46h3.42l0,5.49-3.19-.41-.09.48,1.72.3.6,2-3.72-2.24,1-.56-.37-.44-1.41.81.7,2.07L241,464l-2.29-.47.15-1.25L237.72,461l.31,2.57v0l-3.42-2,1.73-1.55.82.21,1.81.32-3.67-2.86.19-.4-.72.5,1.22,2.16-.29.18L234.6,459l-.34,1.52L233,458.22l-.76,2.43-.81-2.46-.58-1.13-.78-1.2V456l1.26-.57L229.71,453l-1.69-1.6,1.68-.45-1.35-2.61-.44-.09-2.42-.6,1.2-1.46-2.26-1-.08.26-.75-1.24,3.41.81-1.81-1.28,1-.59-2.51.64Zm8.53,9.91.92,3.14,1.5-.22-.42-1.38,1.1.31-.2-1.85Zm9.66,4.49-1.63-1.31-1.2-.09.45,1.22,1,.41,2.75.16-.05-.52-1.35.12Zm-2.55-3.83-.07-.54-3.55.54Z"/><polygon class="cls-4" points="201.9 207.02 198.8 208.98 195.45 207.73 197.81 207.02 201.9 207.02 201.9 207.02"/><polygon class="cls-4" points="192.83 207.02 193.07 208.07 188.82 208.07 188.77 207.86 190.78 207.02 192.83 207.02 192.83 207.02"/><path class="cls-2" d="M260.49,249.32l-1.65,3.78.94-.29-.69,2.8.27-.16,1.74,4.86-2.57,3.35-1.46-.31-3.52,2.56-1.55.89-1.2,1.09-2.72,5.21.25,2,.37,2.27.11.82,1.16,2.53,3.6,10,.61,1.17.48-.16-.71-3,.19-.13,3.92,7.07,2.92,5.61,1.73,5.53-.16.64-4.4,1.66-1-.18-5.9-2.64-5.9-3.44-7.82-6.65-2.14-2.44-1.93-.05.46,2.23,2,1.36,3.33,2.51.36.39,2.45,3,8.61,5.65,2.67,1,.93.7-1,.59L249,309.31l-3-.9-2.13-1.36-2.47-4.2-2.86,5.87h0l-6.67-1.41-8.09-.61-6.89-.8-6.9-2.1-1.74-.28-3.62-3h10.69l-1.27.59.05.16,3-.94,2.49-.75,4.12-3.39-2.24,1.49-1-.16-1.18.08h-2.9l-.85,0h-6.17l2.83-.47,0-.11-9.12.1-3.67,2.12-1.76.1-2.82-2.17-1.3.81-.7-2.74,2.24-.78,2.18-.09,1.48.36.71-1.12H197.6l-3.43.11-2.59,1.9-.55,2.57,1,6.68.56.87,2.23,3.15,3.61,7,2.3,4.56,3,5.46,1,2,1.81,1.65,2.07,4.63.25.41,2.28,8.6,1.22,5.19.65,1.2,1.72,3.8-.51.29-1.2-.88-6.65-5.64-9.67-8.22-3.45-4.34-4.2-5.51-5.66-6.24-.86-.64-.43.32,6.47,9.18-.49.42-6.55-6.64-.58.45,2.11,3.68-.8.43,4.29,3.65-.68-1.75.29-.18,3.17,3.53,3.27,3.43,4,3.81,1.94,2.73,1.22,3.44-.48.52-5.61-1.75-.52-2.87-.4.1.15.67-1.17.39-1.87-2.11-.72-.84-2.29,1.32-2.91-1.64.42-1.57-3.12-1.57,2,1.46-2.53-3.27-2.24-.93.86,1.7L176.51,337l-5.66-5.83L165,325l-6-8.88-.7-2.15L156,313.3l.16-1.27.28-2.84.51-1,1.35-2.41,2-3.61,2.85-9.87.87-3.89.39,0,1.46,3,1,.95.75-1.05,2.92-4.63,2.22-4.49-.62-.83-1.49,1.06-2,3L163.44,282l5,.72,2.86-4-1.36,1.16-2.81.67-1.89-2.2-3.12-4.72-2.61-8.77,1.3.95,2.72-3.28.72-.2,1.49,4.09-2.64,3.5.53,2.46,3.42-.31,3.17-4.73-.43-1.9-1.36-3.12-1.23-1.09-8.49-2.74-1.59,0-3.08,4,.69,4.89,1.66,3.87,1,.45.32-1.93,4.86,5.68-.08,3,.41,2.06-2.06-.66-1.12-1.08-3.95-6.06L153,263.2l1.23-5.49,3.36-2.37L167.94,257l2.53,2,2.47,3.36,4.4,8.88.12.8-.08,1.55,1.49-.69,2.32,3.84,1.6-1.47.37-.73.56-11.26,2.37-8.31,1.75-1.55,2.44-2.36,5.61-3.81.38-1.49-.65-.84-1.89,2,1.65-2.33.2-1.76-1.21-1.91-1.62-5.31,1.28-1.4,5-1.29,3.68.37,3.53.62,3.57,1.17,1.23.15,1.11-.53,3,1.44.05,1.31-1.27,7.23-.3,1.66-1.33,1.15-2.22.81,2.58.44-1.88,1.78-.52,1.36-.84.83-3.27,1.45-3.27,4.51.34.3,1.08-.76,2.84-.35,1.28-.46,3.8-2.38.28,1.19,5.25,5-.93,1.51-7.39,3.55-1.39.48-1.94,1.57,1.72.37V272l1.55.86-2.72.94-3.86.51h3.26l4.84,2.22,5.06,3.28,1.26.12-4.33-4.13,1.34.39,6,1.73,3.36.37,4.56-2.71,3.31-3,1.48.74.6,1-1.26.06-1.13-1.19,0,1.78,3.49,2.28-.48-1.33.33-.21,1.12,1.7,2.69,5,2.4,4.1.73.92.33-.18-1.37-4.22-.63-2.16-.19-.59-3.36-6.23,3.67-.26,0-.36h-1.14l-1-.26.45-1.23,2.51-6-1.85-10.5-.67-.83-.25,1.09,1.17,8.93,0,3-1.64,4.55-1-1.89,1.26-6-.46-8.52-.41-1.36h-1.25l-.26,3.68.17,9.73-.22,3.69-.67.63-2.83-.1-1.52.11v-1.91l1.1.16,2.07-1-.7-1.55-6.15-4.74-3.21-3.1-.63-.56-.59-2.12,1.22-1.57,5.95,4.76-2.42-3.15-4-3.48-1.07-3.16-.87-3.91-1.71-4.73.26-3.42,1.78-.21,3.78,2.87,1.16,1,2.08.72.42,0,2.58,1.2,5.07,2.7,4.38,1.89,2.27-1.2,2.4-2.1v1.27l4.76-4.84-.44,1.48,5.88-5.92,2.83,9.8,1.09-.08,1,2.09,0,0ZM168.84,317l-3.92-8.08-.38.16,3.89,8.72.44-.84.15,2.53,1.67,2.87,1.38,4.22.71,2.11,1,.35.79-3.1-.45-6.67-.46-6.59-.54-3.78-.5-.05-1,3.53,1,4.78-.39.82-1.84,1.49v-1.47l-1.53-1ZM243.7,264l-.58,0,0,3.37-1.31,3.25,1.39-.27.1.91,1.52-2.39.34.19-.37,1.29,8.23-7.88-.93.26,2.41-6.95-.93,2-.29-.12,1-4.36-.46-.1-4.88,11-.41-.18.74-4.43.1-4.72-2.8,5.33-.12,2.82-.25.71.07,2.07-.72,1-1-.75-.84-2.2Zm-41.93-5.79-2.36,1.39v1.73l-1.18,5.81-.21.15.62-.61-3.18-2.06-2-3,1,3.39,3.21,6.53-4.79-1.7.16-1.57-3.3-.65-.18.5,1.64,1.4,3.12,2,3.06.2,1.3,1.45.52,1.09,2.09-3.65-1.51.72.72-6.11,1.34-6.94Zm-5.07,26.13-2.63.92-3.49,1-4.05,7.69-.24,3.54.47.07.67-.87,2.41-4.26.69-1.4,3.67-4.52,2.51-2.12Zm-1.13,43.89.51-.17L187.78,312l-.41,2.62,3.55,6,4.65,7.62Zm47.93-68.84,1.11-1.29,3.27-6,1.06-4-.52-.26-.73,1-1,.92-3.2,9.63Zm-11.61-2.74-8.13-6.4,7.52,6.52.61-.13Zm-46,26.75.51.41,6.8-6.6-4,1.37-.22.18-3.07,4.65ZM241,278.49l4.24,7.35-4.47-9.78.23,2.43Zm-9.82,18.94.44-.2-1.26-3.17,1.94-2.52.09.71,2.32-1.11-1.23-1.46-4.24,4.25,1.93,3.49Zm-25.79-20.08v1.71l4.81.71,1-.22-.41-.88-5.39-1.33Zm-33.62,31.14,1.06-2-.48-2.9-.86-1-.62,1.16.9,4.74Zm6.68-13.35-.53.08.88,7.25.81-1.38-.81-4.93-.34-1Zm-2.54-13.46,1.3-3.57-1.3,3.57Zm82.17-35.19-.57-.18-1.3,4.09.48.15,1.39-4.06Zm-77.75,89.35.36-.27-1.79-3.75-.36.19,1.79,3.83Zm78.8-86.48-.62-.21-1.05,3,.58.19,1.09-3Z"/><path class="cls-5" d="M206.8,454.3l-1.3-.82,1.23-3.23-.63,1.3-.14-.81-.31-.17v-2.65l-2,2.29,0,.79.49,1.76-1.08-.89-1.47,1.05.12-2.6.76-.94,1.6-.7-.12-.34-1.47.36-1.21-2,2.15.9-1-2.76-1.15-1.1-.39,1.61.28.87-.45.16-.81-2.13-.67.08.15-1.21-.43.23-2.14.39-1.06-1.49-1-1.64-.12-1.22-.6-1.68L193,436.17l-.66-2.24L191,435.12l1.31-3.21-.36-1.46-2.11,1.75-.41,0-4.87-10.58-.35.25L182.75,423l-1.09-1.14-4.45-7.42-1.11-1.09-.52.36,2.53,4.36-1.5.28,1.32.29-1.43.3,3.45,4.39-1.13,1.23,2.62,1.63-.47,3.1,2.52-.12-.3,2.15h-2.41l.92,2,.37,2.23,1.17.71-.19.29h-2.43l.48.58,4,2.45-.26,3.62-.24,1.69-.62-.06.69.7-.08.22-2.88-1,2-1.22-.74-.85-5.47.75,0-.06-.48.13-2.72-.65,2.21-.3-.84-1.7-.38.18.25,1-1.47.25.27.52-.42,1.29-.26,1.63-1.27-2.89-.47,1.43-.89-2.51-.26.12-.47,2.47-1.92-2.27-.79,1-2.17-1,2.59-.52-4.68-2,1.4-1-.27-.48-2.63,1.15-1.19-1.09.63-.61-.38-2.82,3.26-.08-2.44-.63,1.18-.18,1-.79.41-1.09-1-2.23.68,3.37-1.38.18-1.68,1.5-1.74-.23,1.36-2.23-.28-.35-1.86.74-2.26-2.7-1.84.55.75.41h0l-.82-2,.61-1.12-3.53-1-.23-1.69-.54-.91-.77.73,0,0-1.17-1.77-2.35-1.48,1.08-.69-1.28-.74-2,.2-.21.68h0l-2.12-1.39-1.28-.37-.29-.92,2.76.69,1.58-.33-.49-.82.51-.64-.47-1.29-1.4.75,0,.93-1.28-1.56-1.24,2.17.39-1.2-.42-1.5-3.51-.77-1-.22-.07-.47,6.69-2.3L140.68,414l.39.41,2.47-1.62,3.73-.31-.95.3-1,.16.38.79,1.94,0,.33,1.85-.82,3.42,2-.77-.43-2.5,2.56-1.19-.89-3.23,1.63,1.7-1.7-1.64-2.38.6-1.41-1.35,5.65-4-.14-.27-1.4.46-1.16-.13v.08l.67-.76-.11.05,4.11-1.88.09-1.24,1.35.49.14-.17-.88-1,6.65-4.29,3.74-2.71,5.77-1.37,1.89,1.68,5.91-2.91-.17-.43L174.92,394l-3.34-1.45,7.69-2.33v1.69l.35,0,5.23-1.57,3.92-.18,5.89.43,7.38,1.5-.09.53-5.42-.56-.07.48,5,.87,5.27.93,1.16,1.11-8.51-1.55-.07.36,1.73.29,6.91,2.19,1.06,1.37.95,1.94.36-.13-.57-2.25,5.94-.17,1.66,2.35.08.12,2,6.61,0,6,0,3.05.79.93-.89,1.12h.28v2.87l-.09,3.06-.25,1.25-1,4.08-.77,3.76-2-2.13.75,4.29-.06.66.09,2.34.63,3.7-.25,2.13,1.17,1.38-1.35.18-.06.28,1.14.47.61,3.93,1.1,3.6-1.87,2.24.6-2.38-2.64.89.42,2.18-1-.11-.41-.26-.44-.53.43-2.21.74.21.21-.3-1.79-1.36v-2.6l-.54-.36-.52.19,1.1,2.74-1.54-1.09-.59,1.36-2.95-.35L208,450l1.17-1.59-.95-1.86-.93,2.57-.13.25,1.52,2.37-.82,1,1.32.71-1.44,1.49-.44-.55h0l-.5-.07-.06,0Zm-47.75-26.74,0,0,.86,1.53.16-.41,1.44.09.45-2.59-1.48-1.62.58,2-1.85-1.23-1-.72,1.39-.63-1-2.11.65-3-.37-.07-.74,1.24-1.83-.55L156,418.3l-.47.14.75,1.74,2.3,1.65.07,1.75-1.49.32.13,1.42-.47,1.75.11.2-.5.45.81.53-1.38.33,2.28.4.88-1.41Zm-4.16-2.27,1.36-.72L155,423.8l2.05-1.15-3,1.5,1,1.19h-1.86l-.89-1.74,1.52,3,.5-.83.47,1,.17-1.51Zm20.43,6.43.47-1.94-.36-2.22-.36-.25-1.54,1.17,2,2.27-.17,1,.62,1.68-1.09,3.54-1.59-.42,0,.2,1.2.9-.67.61-2,2,.35.24,1-1.38,3.41-2.41.49-4.09-1.66-.87Zm35.2,1,1.37,1.76.71-.51-1-1.74-.95.63-.08-1.64-.93.5.88-2-1.83-3.43-1.76-5.86-1.09-2.41-1.8-5.7-2.19-6.89-1.23-3.23-1.5-2.26-1.56-2.18-.47.13-1.09,3.63,2.6,6.6,2.3,5.62,2.5,8.49-.26,1.2,1.79,4.19,1.54,4.2,1.54,2.2.72,1.82-.32.16,1.17-.13.93-.73L210,435l.31-1.52.17-.77ZM199.2,440l1.54.19-.9-1.89-3.49,1.06,1.6,1.95L199.2,440ZM172.28,431l1.51.65.25-.94L171.82,429l-1.09,3.28,1.54-1.26Zm-18.9-12,1.5-1.85,1.86.41.1-.34-2.16-1.08-2.23,1,.93,1.82ZM157,402.69l7.6-2.59-.22-.52L157,402.69Zm16,33,.41-.08-.32-1-2.64-.9-2.1.81.6,1,4,.16Zm-4.71,3.81,2.23-.35,0-.37-2.36-.46-.83,1.39,2.29.93.1-.24-1.41-.89Zm44.27,7.29-2.11,1.35-.93,1.52,2-1.11,1.08-1.76Zm1.53,4.89,2.2-.88L215,449.7v1.11l-.92-.39v1.26Zm-51.4-21.1h.17v-2.76l-.47-.12-.77,2.19.26.09.69-.62.11,1.23Zm17.51,5.48v-1.74l-.37.23-1-1.28-.06,1.43,1.42,1.36Zm-22.37-4.91,2.73-1.74-2.73,1.74Zm53-30.27-.44.15,1,3,.49-.16-1.05-3Zm-4.48,48.06-.45-2.61.45,2.61Zm-29.15-7.21.8-1.63,1.44-.91-2.24,2.54Zm-10.48-5.56,2.08,1.39-2.08-1.39Zm5-1.35-.5,2.31.5-2.31Z"/><polygon class="cls-6" points="146.99 315.76 153.56 312.16 158.13 319.72 162.1 324.25 175.9 339.06 181.66 343.23 182.28 343.6 191.18 350.14 193.56 351.73 196.79 355.26 197.09 355.71 197.93 358.48 197.17 362.44 195.6 367.87 194.44 371.12 192.05 371.69 187.63 368.67 187.09 367.02 181.33 362.92 179.53 360.42 172.38 349.17 167.06 342.89 165.7 340.92 162.78 337.51 160.35 337.74 154.59 329.61 152.33 327.49 149.33 321.55 146.99 315.76 146.99 315.76"/><polygon class="cls-2" points="202.71 310.99 204.02 312.23 209.34 320.41 213.4 326.31 214.38 328.1 218.07 333.48 218.99 335.35 219.35 335.23 219.25 333.65 227.97 342.94 228.17 341.42 234.6 347.71 234.81 347.5 231.62 343.84 231.73 343.68 235.12 345.49 234.66 346.33 243.16 340.59 244.58 336.45 244.42 337.84 244.75 337.92 245.49 333.54 245.45 338.43 242.41 348.73 241.95 355.05 241.48 357.13 238.45 360.26 237.08 361.98 231.3 362.32 227.65 362.92 222.04 359.99 217.34 357.18 215.72 354.5 213.99 346.72 213.02 341.28 212.68 340.09 210.65 335.75 207.1 328.85 199.64 315.52 195.44 307.59 193.66 303.19 191.93 300.83 191.39 297.18 191.89 297.09 197.97 307.04 198.65 306.75 210.19 329.93 210.9 329.61 202.26 311.37 202.71 310.99 202.71 310.99"/><polygon class="cls-5" points="155.88 349.67 149.7 346.32 140.25 338.7 134.29 333.64 131.62 332.64 130.94 332.62 126.09 328.67 125.81 327.43 127.35 326.98 132.55 325.92 138.08 322.46 141.84 319.4 145.4 316.41 147.41 320.3 151.94 329.56 152.63 331.25 152.86 331.88 156.88 337.7 159.41 341.97 161.08 343.71 162.16 345.26 165.18 349.2 167.16 351.88 165.95 353.62 152.57 344.12 152.27 344.56 155.66 348.04 155.84 349.7 155.88 349.67 155.88 349.67"/><path class="cls-7" d="M318.48,423.86l.45-3-1.37-2.48.94-3,.11-1.05.25-2.73,0-.65-2.52-4.84-.82-2.13,3.64.55.49.85.14,2.32,1.88.85,1.46-2.37-1.78-2.61-1.54-1.35-8-3.9-1.9,1.25-3-3.36-4.4-1.54-3,0-2-.3-2.31,1.49.94,1.95,2.34-.2,4,.13,1.24.89-4.06.46-3.53,4.6L295,409.46l-.25.61-2.5-2.63L290.46,404l.93-.2.91-1-.65-.6-1.31.29-.06,2.84L289,407.88l-.74,1-2.6,4.09-.45,1.64.77-6.07,2.5-10.27,1.37-4.09.74-2.54,3.52-6.56,1.43.83.19-.27L296.9,387l.21-1.25,8.91,4,2.57,1.34.25.14,1.62-.09.52,1,2.83,1.44,8.06,4.45,2.85,1.36,1.38-.44-.42,3.38-4,14.92-1.13,3.87-2.13,2.7.05,0Zm-26.55-30.32-.79,1.23.67,2,1.5-1.26.27-1.21.76-1.93-.05-3.93-1.62,4.2-1.05-1.93-.34.11.66,2.71Zm1.66,5.66-1.61-.47.35-1.44L290,401.53l3.09-.32L291.77,400l.78-.39,1-.43Z"/><path class="cls-8" d="M271,381.27l1.3,6.63-1.63,4.74.93,10.43,2,4.82,2,1.76.86,1.1,3.4,1,1.81-.18,1.29-.33.5,0,.2.9-.81,5-1.51,8.11L279.36,427l-2.25.59v-2.45l1-4.87.35-3.63-.19-1-1.2.62.25,2.11L276.15,422l-.28,1.89-.55,2.7-.89-.25-.73-4.17-1.17-1.35-2.81-10.9-.59-.31.52,1.71-.39.13-1.13-3.57-3-12.75.9-1.5.94,3.63,2.14-.28L268.8,395l-1,.25-.39-2.73-1.48-.48-.77,1.45-.34-.07-.66-2.3,2.58-.4-2.92-.92L262,384.08l.71-1.07,5.64-1.27,2.65-.47Zm-7.26,6.15,2.83-1.07-1.79-2.56-1.38.09.59,3,.59-1.39,1.1.62-.42.45-1.52.83Zm7,18.54-2.73-3.26.3,2.76,1.33-.77,1.1,1.27Zm-2.61-4.29,1.43-1.91-1.47-.94L267,400l1.24,1.65Z"/><path class="cls-4" d="M173.49,229.13l-3.19,1.39-2.39,1.07-3.32,1.56.11.14,8-.71-3.27,3.84,2.92-.91,3.15-.19-2.07,1.78,2.64-.2.29,1,4.65.62-.08.5-7.73-1.14-.84.47,1,1.39-1.87.08-.76.2-3.64,0,1.11-1.33-9,5L149,246.31l.09.46.86.08.19.3-5.05,2.64-.29-.31,3.1-2.75L152.2,243l1.43-.57,1.42-1.17-.39-3.71-1.4-1.51-1.63,2.7-1,1-2.6,3.11-1.32,1.48.65-3.33-1.45-.31,0-.38,1.09-.44,1.29-.47,3.11-2.45,4.72-4.24,2.32-1.6,2.73-2.57,6.18-3.7,1.69-1.1-4,3.94,1.55-.4-2.38,1.61-1.67,2.38.81.44,11.55-5.8.33.47-4.51,3.57,2.87-.75,0,0Zm-11.72,3.14-2.23,1.52,2.27.69,1.17-.68-.87.07-.33-1.61Zm7.94,2.5-2,2.34,2-2.34Z"/><path class="cls-9" d="M305.78,450.82l-2.2.36-1.41,1.21.75,1.19h-1.59l.15-2.07-.51-.17-2,2.75.22-4.41-1.38-4.21-.19,3.29-.37-.42L295.39,445l.38-1.8,2.4-1.39-1.24-1.19,0,.53-.74,1.45-2-.26-.15-2.27-.13-.88-.8,1.48-.45-.1.21-1.8-.17-.23-.17,1-.32-.3-.91-3.4-1.16-5.51.88-1.89-1.93-.9-.64-9.69.1-4.4,1.42-1.63,1.31-.9,2.95,6,1.56,5.3.8,3.12.37,3.91v3.38l.41.06.73-.92,2.91,13.12,2,1.31-.64.76h3.21l1.56.56L307,449l-.5.16-.4.39-.33.46,0,0v.91Zm-11.95-17.76-3.5-14.84,3.5,14.84Zm7,12.31-1,1.09L301,448l.72-1-.94-1.65Z"/><polygon class="cls-10" points="212.03 311.47 209.52 310.33 206.98 309.22 208.06 309.01 207.37 307.31 207.86 306.47 210.05 306.61 214.16 307.87 224.45 310.08 228.74 310.11 233.48 310.3 239.72 312.18 240.54 312.35 247.18 313.55 249.56 314.7 248.03 321.24 247.39 321.24 247.02 319.49 245.91 317.63 243.04 317.67 241.96 318.09 236.73 316.51 235.64 316.59 234.26 313.95 232.08 315.63 228.61 315.34 227.77 314 226.56 314.54 225.16 314.35 222.3 313.73 221.28 313.41 219.26 312.11 218.12 311.03 214.18 310.42 212.03 311.47 212.03 311.47"/><path class="cls-4" d="M174.26,214.1l-3.08,1.53-6.42,4.25-1.45.87-.77.77,1.11.66,1.63-.32.3.38-5.95,5.1-.21-1.22L157,228.26l-1.5,1-1.29,1.17-3.93,4.32-5.44,4.65.14,2.2-3.37.43,4-6.2.93-.61,2.09-2.11,1.28-2.09-.45-.81L146,234.57l-2.33-.83-.44.3v-2.79l1.38-.11-.36-1.68,1.55-.24,2.05-3,.65,1,2.92-4.38,3-2.42,4-1.88,2.26-.36.95-.15,3-.44,3.7-1.7,5.72-2.22.2.39Zm-21.62,13,1.7,0,2.21-1.36.46-1.32-.14-2,1.43-2.65-3.47,4.89-2.2,2.46Z"/><polygon class="cls-7" points="318.48 423.86 318.43 423.81 317.87 426.41 319.19 426.61 317.24 431.34 315.36 435.83 315.36 439.36 312.64 437.27 314.19 437.55 313.68 436.05 313.2 432.79 314.68 433 315.11 430.19 314.35 428.37 312.44 428.97 312.61 431.3 311.42 435.24 309.95 434.68 309.61 435.1 311.88 437.28 302.02 433.72 301.49 433.29 297.27 422.13 307.72 425.45 311.86 422.92 312.31 422.33 312.78 425.52 314.16 427.41 315.61 428.55 315.88 427.39 316.02 424.68 317.65 423.31 318.48 423.86 318.48 423.86"/><polygon class="cls-11" points="291.45 385.79 289.96 386.42 289.26 390.03 285.51 387.42 284.83 386.35 282.34 380.53 281.44 380.02 280.7 381.1 280.86 384.32 279.62 386.49 275.21 384.81 273.11 381.86 272.1 381.16 278.46 379.37 279.54 378.58 280.67 378.66 281.5 378.45 283.26 377.88 287.97 377.88 290.2 379.27 291.25 384 291.45 385.79 291.45 385.79"/><polygon class="cls-2" points="254.5 283.19 252.74 283.64 253.39 282.31 255.91 281.37 258.73 279.18 260.13 277.88 261.28 279.15 263.92 284.08 263.91 287.37 262.04 289.48 259.77 290.76 257.89 290.3 258.85 288.53 261.03 287.78 258.31 287.09 255.77 287.4 253.78 284.57 254.57 283.39 254.6 283.26 254.5 283.19 254.5 283.19"/><polygon class="cls-12" points="311.44 405.1 309.45 404.05 305.15 401.98 302.86 401.27 301.43 400.63 298.13 404.03 298.38 403.01 297.27 403.84 297.16 403.69 304.63 400.38 306.06 400.82 299.3 395.79 307.03 397.44 309.06 400.96 309.91 402.04 311.95 399.33 314.78 399.05 319.14 403.2 314.28 402.95 311.79 403.76 311.44 405.11 311.44 405.1 311.44 405.1"/><polygon class="cls-9" points="307.62 443.71 304.75 440.03 303.94 439.65 302.39 434.87 305.69 437.94 310.28 438.82 315.02 440.48 314.13 440.93 314.51 442.28 314.57 442.21 312.55 444.06 312.14 443.14 311.68 443.35 312.56 445.06 313.02 444.94 312.25 446.02 314.1 446.33 313.13 447.75 312.25 449.36 310.94 448.39 310.63 448.09 310.52 448 309.1 446.5 307.65 443.85 310.08 445.31 310.53 441.56 310.33 441.49 309.36 443.47 307.62 443.71 307.62 443.71"/><polygon class="cls-12" points="209.57 361.94 200.35 364.14 201.21 362.77 201.96 362.18 208.71 360.58 210.71 361.28 212.88 365.25 213.18 368.49 209.77 375.22 205.85 377.85 201.15 378.58 201.04 378.22 204.22 377.32 207.43 375.43 207.84 375.04 210.67 369.45 210.98 367.82 209.57 361.94 209.57 361.94"/><polygon class="cls-9" points="316.33 447.19 315.96 445.44 315.73 444.82 318.99 441.44 319.56 440.09 320.82 440.52 321.43 439.32 321.53 447.42 317.93 451.73 316.95 449.94 316.29 447.14 316.33 447.19 316.33 447.19"/><polygon class="cls-4" points="199.6 220.68 198.04 220.53 193.32 219.69 201.18 217.14 202.72 218 203.11 217.83 206.64 216.79 208.3 217.11 209.69 217.74 209.76 218.25 207.39 219.09 204.54 219.66 206.57 221.26 207.08 222.59 205.61 222.76 204.5 222.13 200.83 221.34 199.57 220.65 201.04 219.91 201.93 218.22 199.6 220.68 199.6 220.68"/><polygon class="cls-2" points="310.03 407.05 309.73 406.03 309.98 405.67 311.89 406.57 304.44 410.07 301.01 404.01 301.44 402.39 303.57 402.51 303.65 402.88 301.57 404.08 303.1 407.37 305.49 405.21 304.44 403.66 304.58 403.44 307.69 405.18 307.09 405.53 307.75 408.73 310.03 407.05 310.03 407.05"/><polygon class="cls-13" points="299.47 421.25 302.82 418.54 305.56 420.94 302.48 423.53 296.97 418.92 298.1 419.38 297.16 416.71 300.77 416.59 302.3 418.2 299.19 420.92 299.47 421.25 299.47 421.25"/><polygon class="cls-4" points="233.26 223.16 232.45 222.5 231.9 223.43 229.86 221.85 229.3 220.99 225.29 218.32 229.47 218.98 228.49 217.64 225.08 216.26 224.33 217.98 221.94 216.59 219.98 218.15 217.01 216.61 215.59 216.27 219.06 216.06 221.29 215.66 223.85 214.97 225.92 215.97 227.93 215.94 230.49 216.55 230.59 217.81 230.14 219.05 231.69 221.03 233.66 222.72 233.26 223.16 233.26 223.16"/><polygon class="cls-12" points="205.85 375.75 200.1 376.89 198.28 368.35 205.85 375.75 205.85 375.75"/><polygon class="cls-2" points="272.93 389.72 274.44 400.49 272.8 400.06 272.21 401.09 271.96 401 271.39 392.19 272.34 389.63 272.93 389.72 272.93 389.72"/><polygon class="cls-2" points="202.71 365.81 208.42 363.69 209.31 364.11 209.15 370.94 202.71 365.81 202.71 365.81"/><polygon class="cls-2" points="217.02 245.01 219.05 256.23 215.37 253.04 213.74 252.74 214.14 251.2 217.02 245.01 217.02 245.01"/><polygon class="cls-4" points="227.36 211.31 233.32 213.26 234.71 214.35 239.25 215.54 235.9 216.78 229 214.15 228.88 212.97 227.36 211.31 227.36 211.31"/><polygon class="cls-2" points="229.85 324.04 227.29 324.26 227.85 317.55 228.72 318.31 230.63 315.74 231.48 316.39 229.85 324.04 229.85 324.04"/><polygon class="cls-4" points="146.97 263.49 145.49 263.2 146.29 262.14 145.91 262.12 145.76 260.15 144.27 260.59 143.67 258.98 145.27 259.3 148.87 256.37 149.8 256.18 150.05 256.51 147.51 260.38 151.65 257.12 151.56 258.88 146.97 263.49 146.97 263.49"/><polygon class="cls-2" points="233.14 325.7 231.68 323.21 232.44 317.82 233.86 315.19 233.14 325.7 233.14 325.7"/><polygon class="cls-2" points="238.78 320.11 237.18 326.11 236.02 326.67 234.64 325.4 235.73 319.59 237.61 318.85 238.78 320.11 238.78 320.11"/><polygon class="cls-2" points="226.34 323.79 223.3 322.4 224.79 316.53 226.39 315.37 227.09 316.86 226.34 323.79 226.34 323.79"/><polygon points="311.88 437.28 309.61 435.1 309.95 434.68 311.42 435.24 312.61 431.3 312.44 428.97 314.35 428.37 315.11 430.19 314.68 433 313.2 432.79 313.68 436.05 314.19 437.55 312.64 437.27 311.88 437.28 311.88 437.28"/><polygon class="cls-2" points="219.25 321.62 221.91 324.26 220.66 328.7 219.44 328.59 218.5 324.35 219.25 321.62 219.25 321.62"/><polygon class="cls-2" points="219.32 315.46 218.87 319.08 217.9 319.77 216.37 318.64 216.05 314.3 216.95 312.5 218.99 313.39 219.32 315.46 219.32 315.46"/><polygon class="cls-2" points="224.83 271.92 218.86 272.23 218.86 267.46 220.41 268.26 224.83 271.92 224.83 271.92"/><polygon class="cls-13" points="303.62 423.72 306.14 421.64 308.24 419.06 310.67 420.69 310.83 421.4 306.75 424.23 303.93 424.21 303.62 423.72 303.62 423.72"/><polygon class="cls-2" points="229.54 270.34 228.52 273.65 223.83 273.46 225.53 272.92 226.62 271.21 224.41 268.18 224.11 267.25 225.02 267.2 227.44 269.75 229.54 270.34 229.54 270.34"/><polygon class="cls-2" points="222.66 317.21 223.29 316.96 223.43 317.22 222.75 320.52 221.51 321.15 220.45 320.75 219.63 318.97 220.35 316.11 220.85 315.16 222.25 314.59 222.71 315.85 222.66 317.21 222.66 317.21"/><polygon class="cls-4" points="241.44 222.47 242.06 223.63 240.75 223.71 233.69 220.27 233.26 219.73 233.25 219.17 236.32 220.93 238.24 220.24 240.21 219.18 241.41 222.52 240.34 221.26 239.28 222.03 239.36 222.47 241.44 222.47 241.44 222.47"/><polygon class="cls-2" points="243.95 322.19 242.53 322.27 244.56 318.68 245.33 323.8 245.37 326.4 244.16 328.29 243 327.1 243.95 322.19 243.95 322.19"/><polygon class="cls-4" points="210.83 225.71 210.69 224.19 213.68 225.14 212.78 226.1 214.13 228.76 213.67 229.18 206.94 227.16 210.83 225.71 210.83 225.71"/><polygon class="cls-7" points="296.45 409.7 297.87 407.38 298.43 406.65 299.72 403.98 301.43 408.07 300.24 409.91 296.45 409.7 296.45 409.7"/><polygon class="cls-14" points="310.52 448 310.63 448.09 311.46 450.19 310.96 452.5 309.8 452.51 309.83 452.13 310.69 451.95 308.51 450.4 308.51 451.86 306.11 450.12 306.11 450.12 306.11 449.5 306.5 449.11 307 448.95 307.25 447.53 307.36 447.44 310.52 448 310.52 448"/><polygon class="cls-2" points="223.24 325.05 225.2 327.8 224.15 332.17 222.17 331 221.59 329.7 223.24 325.05 223.24 325.05"/><polygon class="cls-4" points="195.31 210.45 193.65 210.45 193.47 211.9 192.56 210.94 187.79 212.26 182.47 212.16 181.4 211.39 189.51 210.58 193.22 209.7 195.29 209.77 195.31 210.45 195.31 210.45"/><polygon class="cls-7" points="308.35 411.79 312.4 408.68 312.82 411.77 312.56 415.12 308.35 411.79 308.35 411.79"/><polygon class="cls-2" points="213.6 312.42 213.33 311.64 214.81 311.29 215.04 311.64 214.34 312.92 215.07 317.95 212.15 315.32 213.6 312.42 213.6 312.42"/><polygon class="cls-2" points="226.69 326.24 228.4 329.38 228.09 331.59 226.31 333.16 225.5 331.31 226.69 326.24 226.69 326.24"/><polygon class="cls-15" points="262.39 397.51 261.74 398.46 261.92 398.66 263.61 397.52 263.88 401.65 260.21 400.61 262.39 397.51 262.39 397.51"/><polygon class="cls-4" points="187.37 225.3 187.14 221.74 187.62 220.7 190.64 217.65 192.38 216.15 192.85 216.54 189.85 221.11 188.44 223.42 187.34 225.26 187.37 225.3 187.37 225.3"/><polygon class="cls-2" points="232.93 329.05 231.35 333.9 230.05 335.05 229.6 333.4 230.36 330.1 232.93 329.05 232.93 329.05"/><polygon class="cls-5" points="145.49 429.59 145.24 428.94 145.43 426.69 147.38 427.57 148.82 427.15 149.82 425.02 149.78 425.06 150.27 425.8 149.6 427.37 150.94 428.22 148.37 428.78 146.63 430.43 145.6 429.61 145.49 429.59 145.49 429.59"/><polygon class="cls-2" points="259.08 274.41 254.62 276.91 254 273.1 256.81 272.67 259.08 274.41 259.08 274.41"/><polygon class="cls-2" points="234.6 335.12 233.21 334.35 234.24 328.58 236.23 330.63 234.6 335.12 234.6 335.12"/><polygon class="cls-7" points="283.16 425.66 285.24 414.95 284.72 423.13 283.16 425.66 283.16 425.66"/><polygon class="cls-5" points="150.1 406.19 150.21 406.14 148.82 405 149.03 404.31 147.72 404.1 150.7 402.16 151.07 402.45 154.65 400.32 153.46 402.48 152.31 403.16 150.1 406.19 150.1 406.19"/><polygon class="cls-4" points="141.89 297.4 143.54 295.3 145.36 293.84 145.54 292.51 146.42 290.53 147.18 292.64 147.19 295.06 146.63 296.09 141.89 297.4 141.89 297.4"/><polygon class="cls-5" points="177.48 443.42 177.53 443.48 179.97 445.91 178.2 448.22 178.21 448.37 177.38 448.32 175.99 447.32 176.1 445.8 174.86 445.6 173.77 446.36 174.89 443.66 176.76 443.81 177.04 444.32 177 444.3 177.35 443.96 177.35 444.05 177.48 443.42 177.48 443.42"/><polygon class="cls-5" points="206.8 454.3 206.86 454.33 207.05 455.7 207 455.7 207.47 455.6 207.75 455.6 207.69 454.95 209.14 455.42 209.14 457.63 209.17 457.57 209.07 457.68 208.96 458.73 208.87 458.82 208.96 459.04 209.1 459.88 207.99 461.39 207.54 461.18 207.69 458.18 207.67 458.03 207.1 456.84 205.01 455.98 205.51 456.42 206.8 454.3 206.8 454.3"/><polygon class="cls-16" points="276.25 435.8 276.08 434.79 277.08 431.02 279.58 429.82 277.93 433.37 277.93 434.91 277.43 434.49 277.61 436.31 276.36 435.88 276.25 435.8 276.25 435.8"/><polygon class="cls-5" points="165.76 445.98 161.71 444.34 163.15 443.3 162.16 442.72 160.85 441.32 162.5 440.26 162.76 440.62 162.13 442.24 163.56 441.55 165.56 443.95 166.78 445.02 165.67 445.94 165.76 445.98 165.76 445.98"/><polygon class="cls-2" points="197.51 368.91 198.11 375.53 195.41 373.36 197.05 368.72 197.51 368.91 197.51 368.91"/><polygon class="cls-2" points="240.44 336.96 241.47 331.92 243.77 331.63 242.05 336.23 240.44 336.96 240.44 336.96"/><polygon class="cls-12" points="205.14 371.71 204.72 371.61 200.03 367.8 199.42 365.49 205.1 371.75 205.14 371.71 205.14 371.71"/><polygon class="cls-2" points="237.51 329.62 238.63 333.15 237.08 335.76 236.22 335.78 236.09 335.08 237.51 329.62 237.51 329.62"/><polygon class="cls-2" points="311.44 405.11 315.83 408.48 316.02 410.73 314.95 409.69 312.94 405.65 311.44 405.1 311.44 405.11 311.44 405.11"/><polygon class="cls-4" points="147.47 284.44 145.26 281.86 145.29 277.39 146.76 278.05 146.84 281.62 147.43 284.48 147.47 284.44 147.47 284.44"/><polygon class="cls-17" points="319.57 433.88 320.86 436.99 317.44 438.76 319.62 433.87 319.57 433.88 319.57 433.88"/><polygon class="cls-5" points="174.58 390.84 163.97 394.67 163.77 394.11 174.58 390.84 174.58 390.84"/><polygon class="cls-4" points="147.43 284.48 149 283.94 149.68 286.63 147.1 287.58 148.15 288.01 147.2 289.62 146.51 288.13 146.86 286.38 147.47 284.44 147.43 284.48 147.43 284.48"/><polygon class="cls-2" points="212.34 299.03 202.51 298.8 203.44 297.77 207.88 298.87 212.32 298.61 212.34 299.03 212.34 299.03"/><polygon class="cls-4" points="222.97 221.36 224.28 221.7 226.77 223.88 226.09 224.57 223.95 224.77 222.97 221.36 222.97 221.36"/><polygon class="cls-2" points="261.05 264.91 259.86 270.34 257.65 269.36 255.83 270.14 261.05 264.91 261.05 264.91"/><polygon class="cls-2" points="315.81 419.45 314.92 419.85 314.92 411.63 316.55 415.2 315.81 419.45 315.81 419.45"/><polygon class="cls-8" points="294.05 383.09 292.36 383.98 290.74 378.67 294.05 383.09 294.05 383.09"/><polygon class="cls-7" points="313.86 391.71 324.47 396.97 324.21 397.46 322.61 396.71 320.55 396.28 320.04 396.09 313.6 392.02 313.86 391.71 313.86 391.71"/><polygon class="cls-4" points="199.23 211.56 197.2 213.1 194.88 216.4 198.95 211.24 199.23 211.56 199.23 211.56"/><polygon class="cls-5" points="145.22 408.7 145.17 410.46 141.49 410.33 144.6 408.03 145.17 408.34 145.22 408.7 145.22 408.7"/><polygon class="cls-2" points="217.14 325.31 215.29 321.51 216.14 321.14 217.72 322.08 217.14 325.31 217.14 325.31"/><polygon class="cls-4" points="150.99 289.1 151.46 283.87 153.66 285.6 153.46 287.14 150.99 289.1 150.99 289.1"/><polygon class="cls-4" points="200.22 224.13 201.62 224.26 204.25 224.52 205.99 224.93 206.21 226.21 204.85 226.58 200.19 224.4 200.22 224.13 200.22 224.13"/><polygon class="cls-13" points="303.6 418.05 307.55 418.7 305.94 420.54 304.82 419.32 303.6 418.05 303.6 418.05"/><polygon class="cls-4" points="263.97 239.38 259.39 233.75 264.26 239.15 263.97 239.38 263.97 239.38"/><polygon class="cls-2" points="239.84 328.13 240.56 318.72 239.84 328.13 239.84 328.13"/><polygon class="cls-5" points="145.22 408.7 145.17 408.34 147.48 406.59 149.54 406.9 149.56 406.82 147.09 408.98 145.22 408.7 145.22 408.7"/><polygon class="cls-4" points="175.86 230.22 176.17 228.82 182.05 225.52 175.86 230.22 175.86 230.22"/><polygon class="cls-2" points="214.91 396.88 208.27 394.76 214.91 396.88 214.91 396.88"/><polygon class="cls-4" points="172.76 221.19 165.24 224.78 166.39 222.97 168.12 222.47 171.88 220.47 172.64 220.7 172.76 221.19 172.76 221.19"/><polygon class="cls-2" points="304.81 416.3 300.84 414.88 304.81 416.3 304.81 416.3"/><polygon class="cls-4" points="140.28 302.68 148.29 299.07 140.28 302.68 140.28 302.68"/><polygon points="159.17 434.69 160.92 434.92 160.88 434.88 161.25 437.7 160.62 438.31 160.66 438.35 158.59 437.61 159.16 435.95 159.01 434.9 159.17 434.69 159.17 434.69"/><polygon class="cls-4" points="260.41 238.67 260.38 243.6 258.51 235.63 258.98 235.44 260.44 238.71 260.41 238.67 260.41 238.67"/><polygon class="cls-5" points="141.4 340.8 147.97 346.18 147.6 346.61 141.06 341.14 141.4 340.8 141.4 340.8"/><polygon class="cls-4" points="145.1 261.38 143.7 262.76 142.13 263.48 140.72 264.38 140.14 263.38 141.44 262.35 145.1 261.38 145.1 261.38"/><polygon class="cls-4" points="183.1 237 179.25 237 177.35 235.27 183.1 237 183.1 237"/><polygon class="cls-2" points="227.91 448.21 228.36 448.3 225.28 450.86 225.28 452.15 224.86 452.11 225.47 450.09 226.26 448.52 226.6 449.45 227.91 448.21 227.91 448.21"/><polygon class="cls-12" points="210.85 375.04 212.35 378.72 209.78 378.36 210.85 375.04 210.85 375.04"/><polygon class="cls-2" points="246.15 220.81 241.26 217.64 246.15 220.81 246.15 220.81"/><polygon class="cls-2" points="230.08 455.97 230.08 455.87 227.63 456.4 227.14 458.21 227.46 454.69 228.37 456.18 228.72 456.06 228.44 454.61 228.64 454.46 230.08 455.97 230.08 455.97"/><polygon class="cls-4" points="188.68 225.35 191.38 221.49 191.76 221.7 190.37 224.42 192.38 224.68 192.32 225.28 190.31 225.78 188.68 225.35 188.68 225.35"/><polygon class="cls-2" points="296.72 416.02 296.92 412.87 299.42 414.64 296.72 416.02 296.72 416.02"/><polygon class="cls-5" points="158.59 437.61 160.66 438.35 158.51 439.44 155.85 438.62 154.23 440.99 156.03 438.03 158.59 437.61 158.59 437.61"/><polygon class="cls-2" points="310.47 415.42 311.48 415.61 312.99 417.88 312.74 418.82 310.51 415.37 310.47 415.42 310.47 415.42"/><polygon points="132.86 400.93 132 401.73 132.04 401.7 131.01 402.57 129.12 404.14 128.84 403.86 129.03 402.22 129.02 402.39 132.91 400.97 132.86 400.93 132.86 400.93"/><polygon class="cls-4" points="177.19 233.87 176.93 232.78 172.61 233.77 177.17 231.77 178.19 231.55 178.1 232.69 177.19 233.87 177.19 233.87"/><polygon points="140.19 418.44 141.44 416.27 142.71 417.82 144.03 418.06 144.52 418.89 142.95 419.22 140.19 418.53 140.19 418.44 140.19 418.44"/><polygon class="cls-17" points="312.42 451.63 313.66 450.15 315.57 453.07 316.75 452.43 317.01 452.69 316.07 453.53 312.42 451.63 312.42 451.63"/><polygon class="cls-2" points="312.38 419.81 308.71 418.27 312.38 419.81 312.38 419.81"/><polygon class="cls-2" points="321.26 429.65 322.44 435.55 321.26 429.65 321.26 429.65"/><polygon class="cls-2" points="288.82 390.87 287.89 393.53 285.99 389.01 288.82 390.87 288.82 390.87"/><polygon class="cls-4" points="141.66 276.41 140.81 275.46 141.17 270.95 142.34 274.56 141.62 276.45 141.66 276.41 141.66 276.41"/><polygon class="cls-2" points="301.63 413.48 298.14 412.19 301.63 413.48 301.63 413.48"/><polygon class="cls-2" points="236.37 338.3 233 338.22 229.22 336.99 228.89 336.59 236.42 338.36 236.37 338.3 236.37 338.3"/><polygon class="cls-5" points="178.21 448.37 178.2 448.22 179.95 448.54 179.95 447.03 181.5 449.04 180.66 451.56 178.21 448.37 178.21 448.37"/><polygon class="cls-2" points="264.26 450.08 264.52 449.43 265.36 448.84 265.57 449.7 265.19 451.91 264.88 451.08 263.53 451.75 261.17 448.78 263.45 450.6 264.26 450.08 264.26 450.08"/><polygon class="cls-15" points="276.25 435.8 276.36 435.88 275.47 437.99 273.71 439.33 276.25 435.8 276.25 435.8"/><polygon class="cls-4" points="183.83 234 179.38 232.19 183.95 233.51 183.83 234 183.83 234"/><polygon class="cls-4" points="250.24 219.71 247.14 217.51 249.08 217.57 250.24 219.71 250.24 219.71"/><polygon class="cls-2" points="211.06 315.09 210.62 311.14 211.06 315.09 211.06 315.09"/><polygon class="cls-4" points="142.36 257.74 141.59 254.59 141.97 258.56 142.36 257.74 142.36 257.74"/><polygon class="cls-5" points="146.42 438.72 144.66 437.4 146.73 437.57 147.68 437.81 148.89 438.55 146.42 438.72 146.42 438.72"/><polygon class="cls-18" points="298.65 395.35 297.68 397.16 296.35 396.97 296.25 395.82 298.17 394.87 298.65 395.35 298.65 395.35"/><polygon points="176.76 443.81 174.89 443.66 173.77 446.36 173.64 445.8 173.9 444.17 174.32 442.88 174.28 442.9 177 443.55 177.03 443.55 176.69 443.85 176.76 443.81 176.76 443.81"/><polygon class="cls-2" points="306.53 414.77 303.57 413.59 306.53 414.77 306.53 414.77"/><polygon class="cls-19" points="269.74 445.49 274.07 449.21 272.42 450.06 271.05 448.37 269.74 445.49 269.74 445.49"/><polygon class="cls-15" points="303.37 455.29 305.38 453.39 309.27 452.97 305.81 454.8 303.74 455.72 303.37 455.29 303.37 455.29"/><polygon class="cls-2" points="238.03 463.55 238.03 463.58 238.78 463.49 241.07 465.43 238.48 465.88 237.07 465.68 238.03 463.55 238.03 463.55"/><polygon class="cls-12" points="205.1 371.75 206.24 371.32 207.95 373.46 206.78 374.93 205.14 371.71 205.1 371.75 205.1 371.75"/><polygon points="205.66 450.57 205.97 450.74 206.11 451.55 206.74 450.25 205.51 453.48 205.14 452.67 205.59 450.8 205.66 450.57 205.66 450.57"/><polygon class="cls-4" points="217.04 222.56 212.23 220.34 217.3 221.97 217.04 222.56 217.04 222.56"/><polygon points="307.62 443.71 309.36 443.47 310.33 441.49 310.53 441.56 310.08 445.31 307.65 443.85 307.62 443.71 307.62 443.71"/><polygon class="cls-4" points="149.08 293.5 148.93 289.33 149.87 288.44 150.3 288.72 149.37 293.55 149.08 293.5 149.08 293.5"/><polygon class="cls-2" points="141.62 276.45 142.3 281.77 141.71 281.8 141.66 276.42 141.62 276.45 141.62 276.45"/><polygon points="264.26 450.08 263.45 450.6 261.17 448.78 261.74 447.7 263.48 448.39 263.33 448.8 262.29 448.68 262.18 448.91 264.26 450.08 264.26 450.08"/><polygon class="cls-4" points="174.88 253.77 172.99 253.13 171.74 252.31 172.16 251.71 173.71 251.99 175.08 253.19 174.88 253.77 174.88 253.77"/><polygon points="328.63 457 328.49 454.55 328.84 456.93 328.63 457 328.63 457"/><polygon class="cls-4" points="178.47 223.15 182.21 222.86 182.41 223.27 180.69 224.69 178.47 223.15 178.47 223.15"/><polygon class="cls-15" points="273.3 442.55 275.38 442.55 272.82 445.62 272.92 444.65 273.3 442.55 273.3 442.55"/><polygon class="cls-14" points="316.29 447.14 315.69 448.27 313.87 447.89 315.34 445.54 316.33 447.19 316.29 447.14 316.29 447.14"/><polygon class="cls-5" points="163.47 343.15 167.16 348.14 166.87 348.38 163.07 343.54 163.47 343.15 163.47 343.15"/><polygon points="223.72 443.71 226.23 443.07 225.21 443.66 227.01 444.94 223.6 444.14 223.72 443.71 223.72 443.71"/><polygon class="cls-4" points="173.52 229.16 176.16 226.94 176.94 226.21 176.82 225.78 178.71 226.4 173.49 229.13 173.52 229.16 173.52 229.16"/><polygon points="208.7 451.71 207.18 449.35 207.31 449.1 208.24 446.53 209.18 448.39 208.01 449.98 208.63 451.81 208.7 451.71 208.7 451.71"/><polygon class="cls-5" points="184.43 450.2 188.38 451.02 186.78 452.8 184.43 450.2 184.43 450.2"/><polygon points="247.06 455.56 243.64 455.54 241.8 456.01 242.52 454.65 246.84 455.35 247.06 455.56 247.06 455.56"/><polygon class="cls-5" points="209.17 457.57 209.14 457.63 209.75 456.87 210.95 456.48 210.88 457.47 210.9 458.65 210 459.88 209.8 458.5 209.2 457.59 209.17 457.57 209.17 457.57"/><polygon class="cls-4" points="156.97 245.83 161.88 243.74 162.01 243.94 159.96 245.28 157.95 246.72 156.97 245.83 156.97 245.83"/><polygon class="cls-5" points="207.67 458.03 207.69 458.18 206.88 458.74 206.87 458.77 206.85 458.74 202.73 457.1 202.9 456.56 207.67 458.03 207.67 458.03"/><polygon class="cls-4" points="146.19 254.71 144.25 256.1 143.35 255.65 143.69 254.88 145.9 254.21 146.19 254.71 146.19 254.71"/><polygon class="cls-5" points="144.64 430.81 146.95 431.05 145.34 432.19 143.09 432.39 142.95 432.04 144.66 430.8 144.64 430.81 144.64 430.81"/><polygon class="cls-2" points="221.9 265.43 219.45 264.24 220.65 262.72 222.18 264.95 221.9 265.43 221.9 265.43"/><polygon points="205.66 450.57 205.59 450.8 204.87 449.92 204.22 452.67 204.19 452.76 203.7 451 203.69 450.21 205.66 447.92 205.66 450.57 205.66 450.57"/><polygon class="cls-2" points="291.16 441.77 289.54 435.9 291.16 441.77 291.16 441.77"/><polygon points="232.25 460.66 233.01 458.22 234.26 460.5 232.25 460.66 232.25 460.66"/><polygon class="cls-5" points="150.01 430.64 150.54 429.58 151.3 428.57 152.26 429.86 151.3 430.61 150.01 430.64 150.01 430.64"/><polygon class="cls-4" points="153.83 255.39 158.39 253.92 158.52 254.34 154.07 256.12 153.83 255.39 153.83 255.39"/><polygon class="cls-4" points="253.01 234.34 250.95 237.08 252.69 234.08 253.01 234.34 253.01 234.34"/><polygon class="cls-4" points="171.68 216.98 167.95 218.99 167.63 218.43 171.34 216.41 171.68 216.98 171.68 216.98"/><polygon class="cls-2" points="310.51 415.37 309.31 415.87 308.56 415.32 308.58 413.99 309.72 414.18 310.47 415.42 310.51 415.37 310.51 415.37"/><polygon class="cls-5" points="124.97 400.23 127.66 401.07 125.08 402.59 124.56 401.18 124.97 400.23 124.97 400.23"/><polygon class="cls-4" points="259.71 230.85 259.19 227.85 259.71 230.85 259.71 230.85"/><polygon class="cls-4" points="254.38 227.99 254.6 231.67 254.38 227.99 254.38 227.99"/><polygon points="254.53 448.26 253.9 445.6 255.14 449.7 255.18 449.66 254.57 449.51 254.53 448.26 254.53 448.26"/><polygon class="cls-5" points="143.17 423.65 138.72 423.65 138.74 423.07 143.19 423.37 143.17 423.65 143.17 423.65"/><polygon class="cls-17" points="307.36 447.44 307.25 447.53 305.7 446.97 305.49 445.63 307.31 446.43 307.36 447.44 307.36 447.44"/><polygon class="cls-5" points="155.03 431.1 155.24 432.46 154.53 433.46 153.42 432.84 153.86 431.89 155.05 431.1 155.03 431.1 155.03 431.1"/><polygon class="cls-4" points="260.44 238.71 260.58 237.91 261.07 237.85 261.87 242.55 261.47 242.67 260.41 238.67 260.44 238.71 260.44 238.71"/><polygon class="cls-2" points="249.67 454.33 249.67 451.81 248.32 451.47 248.28 451.5 250.82 451.5 251.32 453.16 250.08 453.25 249.64 454.29 249.67 454.33 249.67 454.33"/><polygon points="150.4 411.47 152.09 413.11 150.46 411.41 150.4 411.47 150.4 411.47"/><polygon class="cls-2" points="300.73 411.27 304.02 412 300.73 411.27 300.73 411.27"/><polygon class="cls-15" points="302.03 457.45 301.52 455.3 299.95 453.9 302.3 456.57 303.09 456.39 303.24 456.55 302.03 457.45 302.03 457.45"/><polygon class="cls-2" points="194 223.07 196.84 223.91 194 223.07 194 223.07"/><polygon class="cls-2" points="242.44 467.08 243.74 467.24 244.04 469.58 243.09 468.17 243.51 467.84 242.38 467.53 242.44 467.08 242.44 467.08"/><polygon class="cls-2" points="127.87 403.88 127.82 403.87 126.23 406.67 124.73 406.22 126.44 405.33 127.08 403.29 127.87 403.88 127.87 403.88"/><polygon class="cls-2" points="204.34 382.88 202.75 379.75 202.9 379.48 203.91 380.16 204.3 382.84 204.34 382.88 204.34 382.88"/><polygon class="cls-5" points="219.05 459.4 218.16 461.24 217.41 461.73 217.15 460.83 219.05 459.4 219.05 459.4"/><polygon class="cls-5" points="147.81 433.68 148.05 433.02 146.47 433.58 146.18 433.23 148.1 431.5 148.69 431.91 147.79 433.67 147.81 433.68 147.81 433.68"/><polygon class="cls-4" points="147.63 298.03 144.18 300.14 147.63 298.03 147.63 298.03"/><polygon class="cls-2" points="305.87 413.33 308.09 412.46 308.41 412.95 307.39 414.2 305.87 413.33 305.87 413.33"/><polygon class="cls-5" points="214.52 456.12 214.93 456.37 215.29 457.29 214.26 457.48 213.1 455.83 214.52 456.12 214.52 456.12"/><polygon class="cls-4" points="234.19 225.14 236.03 223.08 236.44 223.35 235.4 225.53 234.19 225.14 234.19 225.14"/><polygon class="cls-5" points="196.11 446.21 199.12 444.97 199.32 445.47 197.65 446.14 197.47 445.84 197.85 445.52 197.68 445.25 196.11 446.21 196.11 446.21"/><polygon class="cls-20" points="275.43 447.57 274.17 446.88 274.02 444.75 275.43 447.57 275.43 447.57"/><polygon class="cls-2" points="306.27 416.34 309.01 416.64 306.27 416.34 306.27 416.34"/><polygon class="cls-2" points="243.78 466.25 246.35 467.24 244.74 467.24 243.78 466.25 243.78 466.25"/><polygon class="cls-2" points="213.13 265.05 216.21 264.34 213.13 265.05 213.13 265.05"/><polygon class="cls-4" points="238.9 228.3 237.75 226.19 239.21 228.02 238.9 228.3 238.9 228.3"/><polygon class="cls-18" points="320.37 406.12 320.9 403.91 322.68 406.28 320.37 406.12 320.37 406.12"/><polygon class="cls-15" points="314.57 442.21 314.51 442.28 315.96 440.57 314.33 443.27 314.57 442.21 314.57 442.21"/><polygon class="cls-5" points="149.15 433.77 148.85 432.02 151.04 431.18 151.21 431.48 149.11 433.75 149.15 433.77 149.15 433.77"/><polygon class="cls-2" points="236.37 338.3 236.42 338.36 237.03 337.81 239.26 338.39 237.36 338.77 236.37 338.3 236.37 338.3"/><polygon class="cls-5" points="145.49 429.59 145.6 429.61 144.64 430.81 144.66 430.8 143.91 430.32 144.37 427.55 145.49 429.59 145.49 429.59"/><polygon class="cls-5" points="156.53 445.73 156.53 442.34 156.97 445.68 156.53 445.73 156.53 445.73"/><polygon class="cls-5" points="149.11 433.75 151.68 434.27 151.6 434.63 148.7 434.59 147.82 433.68 147.79 433.67 149.15 433.77 149.11 433.75 149.11 433.75"/><polygon class="cls-4" points="187.34 225.26 185.16 226.25 185.68 224.74 187.37 225.29 187.34 225.26 187.34 225.26"/><polygon class="cls-5" points="209.93 451.8 211.62 453.82 209.93 454.57 209.93 451.8 209.93 451.8"/><polygon class="cls-5" points="186.62 445.21 189.09 446.26 188.95 446.56 185.66 446.3 186.71 445.65 186.66 445.18 186.62 445.21 186.62 445.21"/><polygon class="cls-4" points="177.76 243.29 180.79 243.14 180.83 243.74 177.83 243.74 177.76 243.29 177.76 243.29"/><polygon class="cls-2" points="155.84 349.7 157.88 352.03 155.88 349.67 155.84 349.7 155.84 349.7"/><polygon class="cls-2" points="256.79 448.98 258.14 449.61 259.03 450.78 256.82 449.01 256.79 448.98 256.79 448.98"/><polygon class="cls-5" points="170.17 451.03 170.17 447.54 170.83 447.57 170.59 451 170.17 451.03 170.17 451.03"/><polygon class="cls-2" points="270.94 380.25 275.6 378.89 275.72 379.28 271.13 380.72 270.94 380.25 270.94 380.25"/><polygon class="cls-5" points="223.29 423.01 223.05 419.59 223.45 419.54 223.9 422.91 223.29 423.01 223.29 423.01"/><polygon class="cls-5" points="136.35 339.84 138.68 340.87 138.51 341.28 136.15 340.31 136.35 339.84 136.35 339.84"/><polygon class="cls-5" points="208.73 461.36 210.31 462.29 210.97 462.01 211.2 462.29 210.28 463.09 209.48 462.54 208.53 461.8 208.73 461.36 208.73 461.36"/><polygon class="cls-2" points="259.85 447.51 259.63 449.23 257.95 446.51 258.24 446.3 259.85 447.51 259.85 447.51"/><polygon class="cls-2" points="291.89 408.43 290.02 408 290.55 406.25 292.07 408.14 291.89 408.43 291.89 408.43"/><polygon points="238.78 463.49 238.03 463.58 237.72 461.01 238.86 462.31 238.71 463.56 238.78 463.49 238.78 463.49"/><polygon class="cls-5" points="136.36 416.1 138.06 416.18 138.18 417.13 137.36 416.75 136.36 416.1 136.36 416.1"/><polygon class="cls-4" points="213.5 215.2 209.58 215.1 209.64 214.67 213.5 215.2 213.5 215.2"/><polygon class="cls-2" points="318.79 456.26 320.89 457.15 319.4 458.93 318.79 456.26 318.79 456.26"/><polygon class="cls-5" points="204.22 452.67 204.87 449.92 205.59 450.8 205.14 452.67 204.22 452.67 204.22 452.67"/><polygon class="cls-21" points="313.29 449.67 313.35 448.89 316 449.18 313.29 449.67 313.29 449.67"/><polygon class="cls-5" points="142.96 422.66 143.87 421.22 143.84 421.22 144.73 421.48 145.83 422.08 142.95 422.64 142.96 422.66 142.96 422.66"/><polygon class="cls-5" points="186.66 445.18 186.31 444 187.53 443.92 188.96 444.81 186.62 445.21 186.66 445.18 186.66 445.18"/><polygon class="cls-5" points="189.47 455.95 189.47 457.53 187.41 455.95 189.47 455.95 189.47 455.95"/><polygon class="cls-4" points="249.36 227.95 250.23 230.24 249.51 230.48 248.8 228.12 249.36 227.95 249.36 227.95"/><polygon class="cls-5" points="206.85 458.74 206.87 458.77 206.88 458.74 207.31 463.34 206.85 463.36 206.85 458.74 206.85 458.74"/><polygon class="cls-4" points="201.69 223.58 199.42 222.89 201.88 222.91 201.69 223.58 201.69 223.58"/><polygon class="cls-2" points="251.57 456.67 251.89 454.05 251.57 456.67 251.57 456.67"/><polygon class="cls-2" points="234.27 470.57 232.15 468.2 233.77 469.52 234.13 469.2 234.27 470.57 234.27 470.57"/><polygon points="241.44 222.47 239.36 222.47 239.28 222.03 240.34 221.26 241.41 222.52 241.44 222.47 241.44 222.47"/><polygon class="cls-4" points="157.57 302.74 155.72 304.81 157.57 302.74 157.57 302.74"/><polygon class="cls-4" points="141.03 258.24 140.75 259.56 139.27 259.72 140.46 258.12 141.03 258.24 141.03 258.24"/><polygon class="cls-4" points="157.89 249.11 160.01 248.01 160.26 248.48 158.11 249.59 157.89 249.11 157.89 249.11"/><polygon class="cls-5" points="153.72 438.97 152.69 438.33 154.46 436.84 154.65 437.04 153.72 438.97 153.72 438.97"/><polygon class="cls-4" points="151.49 280.63 151.61 282.77 151.16 282.85 150.71 280.74 151.49 280.63 151.49 280.63"/><polygon class="cls-2" points="254.57 449.51 255.18 449.66 256.2 450.48 256.07 450.82 253.83 450.69 254.57 449.51 254.57 449.51"/><polygon class="cls-5" points="142.95 422.64 140.75 422.64 142.08 420.86 142.96 422.65 142.95 422.64 142.95 422.64"/><polygon class="cls-2" points="249.64 454.29 249.41 454.78 249.09 454.82 248.48 452.08 248.99 451.95 249.67 454.33 249.64 454.29 249.64 454.29"/><polygon class="cls-5" points="150.7 440.36 150.15 439.98 150.89 439.51 152.6 440.05 152.28 440.7 152.33 440.7 150.62 440.36 150.85 439.9 150.71 439.88 150.7 440.36 150.7 440.36"/><polygon points="209.8 458.5 210 459.88 209.97 459.89 209.05 459.89 209.1 459.87 208.96 459.04 208.92 459.06 208.92 458.71 208.96 458.73 209.07 457.68 209.53 458.49 209.48 458.45 209.84 458.45 209.8 458.5 209.8 458.5"/><polygon class="cls-2" points="255.07 453.5 254.69 454.13 254.46 454 254.84 453.37 255.07 453.5 255.07 453.5"/><polygon class="cls-2" points="319.57 433.88 319.62 433.87 319.37 432.98 319.72 432.99 319.57 433.88 319.57 433.88"/><polygon points="150.7 440.36 150.71 439.88 150.85 439.9 150.62 440.36 150.7 440.36 150.7 440.36"/><polygon class="cls-2" points="165.76 445.98 165.67 445.94 165.66 446.18 165.66 446.07 165.76 445.98 165.76 445.98"/><polygon class="cls-2" points="209.05 459.89 209.97 459.89 209.05 459.89 209.05 459.89"/><polygon class="cls-2" points="159.01 434.9 159.16 435.95 159.01 434.9 159.01 434.9"/><polygon class="cls-2" points="306.11 450.12 306.11 450.12 305.78 450.82 305.82 450.83 305.82 449.93 305.78 449.96 306.11 450.12 306.11 450.12"/><polygon points="207.32 454.4 207.76 454.95 207.74 454.96 207.78 455.04 207.44 455.04 207.48 455.09 207.32 454.4 207.32 454.4"/><polygon points="207.69 454.95 207.75 455.6 207.78 455.64 207.78 455.04 207.74 454.96 207.69 454.95 207.69 454.95"/><polygon class="cls-2" points="150.21 438.93 150.25 438.86 150.29 438.94 150.21 438.93 150.21 438.93"/><polygon points="152.33 440.7 152.28 440.7 152.33 440.7 152.33 440.7"/><polygon points="232.25 453.62 235.16 453.62 235.35 455.47 234.25 455.16 234.68 456.54 233.17 456.76 232.25 453.62 232.25 453.62"/><polygon points="241.91 458.11 243.26 457.99 243.31 458.51 240.56 458.35 239.54 457.93 239.08 456.71 240.28 456.81 241.91 458.11 241.91 458.11"/><polygon points="239.36 454.28 235.75 454.28 239.3 453.74 239.36 454.28 239.36 454.28"/><polygon points="257.83 445.33 256.46 443.55 258.29 443.41 257.82 445.33 257.83 445.33 257.83 445.33"/><polygon points="248.51 446.74 247.57 447.44 246.81 445.92 246.81 445.03 247.3 444.82 248.47 446.79 248.51 446.74 248.51 446.74"/><polygon points="137.24 398.04 135.52 396.17 141.51 395.78 142.73 395.69 144.18 395.33 139.98 396.42 138.5 395.92 137.2 398.08 137.24 398.04 137.24 398.04"/><polygon points="137.2 398.08 138.66 401.09 138.26 401.39 134.97 401.38 138.25 400.37 137.24 398.05 137.2 398.08 137.2 398.08"/><polygon points="131.13 398.93 130.96 398.24 132.18 396.44 134.26 397.49 131.93 399.74 131.09 398.88 131.13 398.93 131.13 398.93"/><polygon points="184.13 371.47 180.6 368.05 181.48 367.19 184.92 370.75 184.13 371.47 184.13 371.47"/><polygon points="124.11 388.6 122.37 390.07 123.8 391.11 123.71 391.34 122.31 390.8 122.33 388.8 124.04 388.32 124.11 388.6 124.11 388.6"/><polygon points="122.53 386.3 122.1 381.46 122.51 381.42 123.01 386.26 122.53 386.3 122.53 386.3"/><polygon points="132 401.73 133.91 403.18 132.04 401.7 132 401.73 132 401.73"/><polygon points="132.91 400.97 133.66 398.55 132.86 400.93 132.91 400.97 132.91 400.97"/><polygon points="198.03 383.13 200.33 385.12 199.89 385.56 197.74 383.43 198.03 383.13 198.03 383.13"/><polygon points="128.46 393.14 126.65 393.14 127.13 391.63 128.46 393.14 128.46 393.14"/><polygon points="243.7 264.02 244.54 266.22 245.53 266.97 246.24 265.95 246.17 263.88 246.42 263.17 246.53 260.35 249.34 255.02 249.23 259.74 248.5 264.17 248.91 264.35 253.79 253.32 254.25 253.42 253.21 257.78 253.5 257.9 254.44 255.85 252.03 262.8 252.96 262.53 244.73 270.42 245.1 269.12 244.76 268.93 243.25 271.32 243.15 270.41 241.76 270.68 243.07 267.43 243.12 264.06 243.7 264.02 243.7 264.02"/><polygon points="201.77 258.23 200.43 265.17 199.71 271.28 201.22 270.56 199.14 274.2 198.62 273.11 197.32 271.66 194.26 271.46 191.14 269.49 189.5 268.1 189.68 267.6 192.98 268.25 192.82 269.82 197.62 271.53 194.41 265 193.45 261.61 195.46 264.63 198.64 266.69 198.02 267.3 198.23 267.16 199.41 261.35 199.41 259.62 201.77 258.23 201.77 258.23"/><polygon points="168.84 316.95 170.37 317.92 170.37 319.4 172.21 317.91 172.6 317.09 171.59 312.31 172.6 308.78 173.1 308.83 173.64 312.62 174.09 319.21 174.54 325.88 173.76 328.98 172.79 328.63 172.08 326.52 170.69 322.3 169.02 319.44 168.87 316.91 168.84 316.95 168.84 316.95"/><polygon points="196.7 284.36 194.19 286.47 190.52 291 189.84 292.4 187.43 296.66 186.76 297.53 186.29 297.46 186.53 293.92 190.58 286.23 194.07 285.28 196.7 284.36 196.7 284.36"/><polygon points="195.57 328.24 190.93 320.62 187.37 314.61 187.78 311.99 196.08 328.07 195.57 328.24 195.57 328.24"/><polygon points="243.51 259.41 246.71 249.78 247.7 248.86 248.43 247.88 248.95 248.13 247.89 252.12 244.62 258.11 243.51 259.41 243.51 259.41"/><polygon points="231.9 256.67 231.29 256.79 223.77 250.27 231.9 256.67 231.9 256.67"/><polygon points="185.88 283.42 188.95 278.77 189.17 278.59 193.18 277.23 186.39 283.83 185.88 283.42 185.88 283.42"/><polygon points="240.99 278.49 240.76 276.06 245.24 285.84 240.99 278.49 240.99 278.49"/><polygon points="231.17 297.43 229.24 293.93 233.48 289.68 234.71 291.14 232.38 292.25 232.3 291.54 230.36 294.06 231.61 297.23 231.17 297.43 231.17 297.43"/><polygon points="168.87 316.91 168.43 317.75 164.55 309.03 164.92 308.88 168.84 316.95 168.87 316.91 168.87 316.91"/><polygon points="205.38 277.35 210.76 278.67 211.17 279.56 210.19 279.77 205.38 279.06 205.38 277.35 205.38 277.35"/><polygon points="171.75 308.49 170.85 303.75 171.47 302.58 172.33 303.59 172.81 306.49 171.75 308.49 171.75 308.49"/><polygon points="178.44 295.13 178.77 296.16 179.59 301.09 178.78 302.46 177.9 295.21 178.44 295.13 178.44 295.13"/><polygon points="175.9 281.68 177.2 278.11 175.9 281.68 175.9 281.68"/><polygon points="258.07 246.49 256.68 250.55 256.2 250.4 257.5 246.31 258.07 246.49 258.07 246.49"/><polygon points="180.32 335.84 178.53 332.01 178.89 331.82 180.69 335.57 180.32 335.84 180.32 335.84"/><polygon points="259.13 249.36 258.03 252.34 257.45 252.15 258.5 249.15 259.13 249.36 259.13 249.36"/><polygon points="210.52 432.67 210.36 433.44 210.05 434.96 210.44 435.05 209.51 435.79 208.35 435.92 208.67 435.75 207.95 433.93 206.41 431.73 204.87 427.54 203.08 423.34 203.34 422.14 200.84 413.65 198.54 408.03 195.94 401.42 197.03 397.8 197.5 397.67 199.06 399.85 200.57 402.11 201.8 405.34 203.99 412.23 205.79 417.93 206.88 420.34 208.64 426.19 210.48 429.63 209.6 431.67 210.53 431.17 210.61 432.8 210.52 432.67 210.52 432.67"/><polygon points="175.32 431.71 176.98 432.58 176.49 436.68 173.08 439.09 172.11 440.46 171.77 440.23 173.76 438.23 174.43 437.62 173.23 436.72 173.27 436.52 174.86 436.94 175.95 433.4 175.33 431.71 175.32 431.71 175.32 431.71"/><polygon points="159.16 425.31 161.02 426.55 160.44 424.56 161.92 426.18 161.47 428.78 160.03 428.69 159.87 429.1 159.01 427.57 159.19 425.27 159.16 425.31 159.16 425.31"/><polygon points="199.2 439.99 197.94 441.29 196.34 439.35 199.84 438.29 200.74 440.18 199.2 439.99 199.2 439.99"/><polygon points="172.28 431.05 170.73 432.3 171.82 429.02 174.04 430.75 173.79 431.69 172.28 431.05 172.28 431.05"/><polygon points="153.38 419.02 152.45 417.2 154.68 416.16 156.84 417.24 156.74 417.58 154.87 417.17 153.38 419.02 153.38 419.02"/><polygon points="163.86 433.19 162.88 433.99 161.7 434.17 164.13 434.8 160.88 434.88 160.92 434.92 162.59 433.42 163.97 433.24 163.86 433.19 163.86 433.19"/><polygon points="157.01 402.69 164.4 399.58 164.61 400.1 157.01 402.69 157.01 402.69"/><polygon points="158.62 421.82 156.32 420.18 155.56 418.44 156.04 418.3 156.29 419.44 158.12 419.98 158.87 418.74 159.23 418.81 158.59 421.86 158.62 421.82 158.62 421.82"/><polygon points="172.98 435.69 168.94 435.53 168.34 434.52 170.43 433.71 173.07 434.61 173.39 435.61 172.98 435.69 172.98 435.69"/><polygon points="156.85 427.05 157.32 425.31 157.19 423.89 158.69 423.57 158.62 421.82 158.59 421.86 159.6 423.97 158.21 424.59 159.16 425.31 159.19 425.27 156.85 427.05 156.85 427.05"/><polygon points="154.9 425.29 154.73 426.8 154.27 425.75 153.77 426.58 152.25 423.61 153.14 425.35 155 425.35 154.9 425.29 154.9 425.29"/><polygon points="175.33 431.71 175.5 430.74 173.53 428.47 175.07 427.3 175.43 427.55 175.79 429.77 175.32 431.71 175.33 431.71 175.33 431.71"/><polygon points="168.28 439.5 169.69 440.39 169.59 440.63 167.3 439.7 168.13 438.31 170.49 438.78 170.51 439.15 168.28 439.5 168.28 439.5"/><polygon points="154.9 425.29 155 425.35 154.05 424.15 157.04 422.65 154.99 423.8 156.25 424.56 154.9 425.29 154.9 425.29"/><polygon points="144.03 418.06 142.71 417.82 142.66 416.89 144.07 416.13 144.53 417.43 144.03 418.06 144.03 418.06"/><polygon points="163.86 433.19 163.97 433.24 163.29 429.87 164.28 432.1 163.86 433.19 163.86 433.19"/><polygon points="212.55 446.8 211.47 448.56 209.51 449.67 210.44 448.14 212.55 446.8 212.55 446.8"/><polygon points="214.08 451.68 214.08 450.42 215 450.81 215 449.7 216.28 450.81 214.08 451.68 214.08 451.68"/><polygon class="cls-5" points="156.85 427.05 159.19 425.27 159.01 427.57 159.06 427.55 156.97 427.26 156.85 427.05 156.85 427.05"/><polygon points="210.52 432.67 210.61 432.8 211.56 432.18 212.6 433.91 211.89 434.43 210.52 432.67 210.52 432.67"/><polygon points="156.97 427.26 159.06 427.55 158.17 428.97 155.9 428.57 157.28 428.24 156.47 427.71 156.97 427.26 156.97 427.26"/><polygon points="174.32 442.88 174.06 442.36 175.53 442.1 175.28 441.08 175.66 440.9 176.5 442.6 174.28 442.9 174.32 442.88 174.32 442.88"/><polygon points="162.68 430.58 162.57 429.36 161.88 429.98 161.62 429.89 162.39 427.69 162.85 427.82 162.85 430.57 162.68 430.58 162.68 430.58"/><polygon points="180.19 436.06 178.76 434.71 178.82 433.27 179.81 434.56 180.19 434.32 180.19 436.06 180.19 436.06"/><polygon points="157.82 431.15 160.55 429.42 157.82 431.15 157.82 431.15"/><polygon points="210.83 400.88 211.88 403.87 211.39 404.03 210.39 401.03 210.83 400.88 210.83 400.88"/><polygon points="206.35 448.94 205.91 446.34 206.35 448.94 206.35 448.94"/><polygon points="177.2 441.73 179.44 439.2 178 440.1 177.2 441.73 177.2 441.73"/><polygon points="213.7 451.89 212.6 449.15 213.12 448.96 213.66 449.32 213.66 451.93 213.7 451.89 213.7 451.89"/><polygon points="166.73 436.17 168.81 437.57 166.73 436.17 166.73 436.17"/><polygon points="171.72 434.82 171.22 437.13 171.72 434.82 171.72 434.82"/><polygon points="207.05 455.7 206.86 454.33 207.36 454.4 207.48 455.09 207.44 455.04 207.44 455.64 207.47 455.6 207 455.7 207.01 455.6 207.05 455.7 207.05 455.7"/><polygon class="cls-2" points="207.48 455.09 207.36 454.4 207.32 454.4 207.48 455.09 207.48 455.09"/><polygon points="177.03 443.55 177 443.55 177.48 443.42 177.35 444.05 177.03 443.55 177.03 443.55"/><polygon points="291.93 393.55 291.27 390.83 291.61 390.72 292.66 392.65 294.28 388.45 294.33 392.37 293.57 394.3 293.3 395.51 291.8 396.77 291.13 394.78 291.93 393.55 291.93 393.55"/><polygon points="293.59 399.21 292.55 399.64 291.77 400.03 293.07 401.22 289.98 401.53 292.33 397.3 291.98 398.74 293.59 399.21 293.59 399.21"/><polygon points="263.77 387.42 265.29 386.58 265.71 386.14 264.61 385.51 264.02 386.9 263.43 383.88 264.81 383.79 266.61 386.35 263.77 387.42 263.77 387.42"/><polygon points="270.82 405.96 269.72 404.69 268.39 405.46 268.09 402.7 270.82 405.96 270.82 405.96"/><polygon points="268.21 401.66 266.98 400.01 268.18 398.81 269.64 399.75 268.21 401.66 268.21 401.66"/><polygon points="161.77 232.26 162.09 233.87 162.97 233.8 161.8 234.48 159.54 233.79 161.77 232.26 161.77 232.26"/><polygon points="169.71 234.76 167.69 237.1 169.71 234.76 169.71 234.76"/><polygon points="293.84 433.06 290.33 418.22 293.84 433.06 293.84 433.06"/><polygon points="300.83 445.37 301.77 447.01 301.05 448 299.81 446.46 300.83 445.37 300.83 445.37"/><polygon points="305.82 449.93 305.82 450.83 305.82 449.93 305.82 449.93"/><polygon points="307 448.95 306.5 449.11 307 448.95 307 448.95"/><polygon points="306.11 450.12 305.78 449.96 306.11 449.5 306.11 450.12 306.11 450.12"/><polygon points="152.63 227.11 154.83 224.65 158.3 219.76 156.87 222.41 157.01 224.4 156.55 225.71 154.34 227.07 152.63 227.11 152.63 227.11"/><polygon points="199.6 220.68 201.93 218.22 201.04 219.91 199.57 220.65 199.6 220.68 199.6 220.68"/><polygon points="177.35 443.96 177 444.3 177.35 443.96 177.35 443.96"/><polygon class="cls-2" points="177.35 443.96 177 444.3 177.04 444.32 176.69 443.85 177.03 443.55 177.35 444.05 177.35 443.96 177.35 443.96"/><polygon points="176.69 443.85 177.04 444.32 176.76 443.81 176.69 443.85 176.69 443.85"/><polygon class="cls-2" points="209.53 458.49 209.07 457.68 209.17 457.57 209.2 457.59 209.53 458.49 209.53 458.49"/><polygon points="207.75 455.6 207.47 455.6 207.44 455.64 207.78 455.64 207.75 455.6 207.75 455.6"/><polygon points="208.96 459.04 208.87 458.82 208.96 458.73 208.92 458.71 208.92 459.06 208.96 459.04 208.96 459.04"/><polygon class="cls-2" points="207.05 455.7 207.01 455.6 207 455.7 207.05 455.7 207.05 455.7"/><polygon points="209.53 458.49 209.2 457.59 209.8 458.5 209.84 458.45 209.48 458.45 209.53 458.49 209.53 458.49"/><polygon class="cls-2" points="208.92 459.06 208.92 458.71 208.92 459.06 208.92 459.06"/><polygon class="cls-2" points="209.48 458.45 209.84 458.45 209.48 458.45 209.48 458.45"/><polygon class="cls-2" points="207.78 455.64 207.44 455.64 207.44 455.04 207.78 455.04 207.78 455.64 207.78 455.64"/><polygon class="cls-5" points="121.71 331.73 123.39 331.18 126.13 331.73 132.83 338.57 135.89 341.29 139.36 342.89 140.89 344.28 139.41 343.82 141.2 345.29 147.71 348.87 157.04 354.38 167.16 360.32 173.62 364.01 179.64 366.21 181.6 365.84 185.9 369.33 189.74 372 193.73 377.15 192.4 376.88 197.74 381.74 202.3 385.89 204.68 390.22 201.72 389.37 202.28 390.62 192.91 388.75 193.88 387.55 179.61 387.64 178.84 387.19 181.48 386.52 181.37 386.04 177.18 386.81 174.58 387.12 171.19 386.71 170.17 386.72 168.46 387.22 170.72 388.03 173.52 388.04 169.93 389.45 170.62 388.69 169.73 389.02 168.4 390.1 160.45 393.19 153.29 397.91 149.86 399.11 149.7 399.67 147.97 400.72 145.15 401.69 143.98 402.59 143.74 401.65 143.28 401.64 143.29 403.09 143 403.92 139.6 405.59 138.47 405.36 139 406.61 136.8 405.78 135.13 409.65 134.78 409.54 135.01 408.04 133.55 407.97 132.79 409.66 132.46 408.31 130.04 411.17 129.69 408.86 127.7 409.57 129.99 405.81 129.33 405.06 126.44 408.23 124.83 408.64 125.9 406.89 124.73 406.22 126.44 405.33 127.08 403.29 127.82 403.87 129.03 402.22 128.69 400.57 129.9 399.29 131.09 398.88 128.79 397.94 129.96 395.21 128.69 396.69 125.72 394.85 125.8 393.4 123.97 395.13 122.87 392.49 122.11 393.57 121.67 392.75 121.71 331.73"/></g><circle id="_Ellipse_3" data-name="&lt;Ellipse&gt;" class="cls-22" cx="238.51" cy="302.59" r="110.7"/></svg>