<svg id="Layer_1" data-name="Layer 1" xmlns="http://www.w3.org/2000/svg" viewBox="0 0 244.2 212.59"><defs><style>.cls-1,.cls-3{fill:#fff;}.cls-1{stroke:#a6dce3;stroke-miterlimit:10;stroke-width:2px;}.cls-2{fill:#a6dce3;}</style></defs><title>setting</title><circle class="cls-1" cx="119.02" cy="102.99" r="79.09"/><polygon class="cls-2" points="106.03 54 115.18 53.8 121.83 47.15 132.64 50.48 132.64 59.63 138.25 65.24 106.03 54"/><polygon class="cls-2" points="137.85 64.84 141.82 73.26 150.53 76.8 151.68 88.05 143.25 91.61 140.27 98.97 137.85 64.84"/><polygon class="cls-2" points="140.62 98.48 135 105.69 136.15 115.03 126.88 121.51 119.67 115.88 111.79 116.85 140.62 98.48"/><polygon class="cls-2" points="114.05 116.46 104.13 117.19 97.44 123.88 86.57 120.53 86.57 111.33 82.4 104.21 114.05 116.46"/><polygon class="cls-2" points="83.5 106.09 77.34 97.62 68.58 94.06 67.42 82.75 75.9 79.16 78.9 71.77 83.5 106.09"/><polygon class="cls-2" points="78.54 72.25 84.2 65 83.04 55.61 92.36 49.1 99.62 54.76 107.54 53.78 78.54 72.25"/><ellipse class="cls-2" cx="110.34" cy="85.2" rx="36.17" ry="31.42"/><ellipse class="cls-3" cx="110.48" cy="83.97" rx="8.54" ry="7.29"/><polygon class="cls-2" points="131.37 119.6 136.53 116.96 138.5 111.33 145.59 110.24 148.11 115.46 152.87 117.12 131.37 119.6"/><polygon class="cls-2" points="152.53 117 157.12 120.72 163.07 120.33 166.83 126.44 163 130.8 163.33 135.83 152.53 117"/><polygon class="cls-2" points="163.4 135.45 162.17 141.12 165.41 146.14 161.9 152.4 156.23 151.17 152 153.9 163.4 135.45"/><polygon class="cls-2" points="153.18 153.06 147.72 156.21 145.74 161.88 138.61 162.97 136.07 157.71 131.73 154.8 153.18 153.06"/><polygon class="cls-2" points="132.87 155.57 127.02 152.43 121.03 152.81 117.25 146.67 121.1 142.29 120.77 137.23 132.87 155.57"/><polygon class="cls-2" points="120.7 137.61 121.93 131.91 118.68 126.86 122.2 120.57 127.91 121.8 132.16 119.06 120.7 137.61"/><ellipse class="cls-2" cx="142.44" cy="136.23" rx="22.94" ry="19.93" transform="translate(-45.09 75.56) rotate(-25.8)"/><ellipse class="cls-3" cx="142.18" cy="135.48" rx="5.42" ry="4.62" transform="translate(-44.79 75.37) rotate(-25.8)"/></svg>