<svg id="Layer_1" data-name="Layer 1" xmlns="http://www.w3.org/2000/svg" viewBox="0 0 326.06 280.64"><defs><style>.cls-1{fill:#bde4e3;}.cls-2{fill:#fff;}</style></defs><title>twitter</title><rect class="cls-1" x="77.27" y="51.74" width="171.51" height="175.6" rx="22.52" ry="22.52"/><path class="cls-2" d="M163.16,118.06a46.72,46.72,0,0,1-29-5.59c-14.1-8.25-27.27-21.42-27.27-21.42S99,100,103.56,109.55a69,69,0,0,0,12,17l-12.24-2.93s-2.66,11.18,8.51,18.63L123,149.72H110.74s1.6,13.57,14.37,16.76l12.77,3.19s-14.37,10.11-27.94,11.18l-13.57,1.06s8,16.76,39.91,13.3,59.87-11.18,68.12-30.6,12.24-47.63,12.24-50.55,13-16,13-16l-14.1,4.79s9.58-9.84,9.58-11.84S227,87.2,227,87.2l-17.83,6.92s-5.85-10.38-18.36-9-17.56,2.66-22.35,11.18S163.16,118.06,163.16,118.06Z"/></svg>